<svg xmlns="http://www.w3.org/2000/svg" width="78.899" height="80.94" viewBox="0 0 78.899 80.94"><defs><style>.a,.q{fill:#263238;}.b{fill:#8b726a;}.c{fill:#407bff;}.d{fill:#695584;}.d,.e{opacity:0.4;}.e{fill:#3e54a4;}.f{fill:#ffdbbb;}.g{fill:#eef2fc;}.h{fill:#ffb573;}.i{fill:#ffb7a4;}.j{fill:#c28d6a;}.k{fill:#582f0c;}.l{opacity:0.2;}.m{fill:#4962bd;}.n,.o,.s{fill:#fff;}.n{opacity:0.7;}.o,.p{opacity:0.3;}.q{fill-rule:evenodd;}.r{fill:#fef1e9;}.t{fill:#f2f6ff;}.u{fill:#ffdaba;}.v{fill:#ed893e;}</style></defs><g transform="translate(0 0)"><path class="a" d="M88.119,147.217c-4.709-.33-4.023-4.122-6.966-7.586a4.662,4.662,0,0,1,2.341-1.512,8.316,8.316,0,0,0-3.106.98,1.82,1.82,0,0,1-.382-1c1.738-1.519,6.264.688,7.819-2.143s7.332-1.885,7.535,1.788C102.6,141.525,91.986,147.488,88.119,147.217Z" transform="translate(-80.006 -117.97)"/><g transform="translate(18.23 39.609)"><path class="b" d="M195.848,338.167c-1.568-.657-1.883-1.372-2.691-1.871-.691-.429-.911-.456-1.471-.795a.792.792,0,0,1-.082-1.277c.2-.2.085-.426.282-.822l2.566.276c.239.594.679,3.32,1.494,3.818C196.723,337.973,196.473,338.429,195.848,338.167Z" transform="translate(-184.046 -311.053)"/><path class="c" d="M160.151,235.864l-.585,7.393c1.63,1.164,2.877,2.512,9.36,1.346-2.349,5.881-1.519,13.611-1.519,13.611a5.536,5.536,0,0,0,2.566.276,50.343,50.343,0,0,1,5.562-15.511,2.686,2.686,0,0,0-1.785-3.947C167.748,237.761,160.151,235.864,160.151,235.864Z" transform="translate(-159.566 -235.864)"/><path class="d" d="M160.151,235.864l-.585,7.393c1.63,1.164,2.877,2.512,9.36,1.346-2.349,5.881-1.519,13.611-1.519,13.611a5.536,5.536,0,0,0,2.566.276,50.343,50.343,0,0,1,5.562-15.511,2.686,2.686,0,0,0-1.785-3.947C167.748,237.761,160.151,235.864,160.151,235.864Z" transform="translate(-159.566 -235.864)"/><path class="a" d="M196.062,329.447a4.7,4.7,0,0,0-.067.8.192.192,0,0,1-.2.177,11.3,11.3,0,0,1-2.705-.415.163.163,0,0,1-.132-.154l.006-.757a.2.2,0,0,1,.236-.17l2.7.336A.166.166,0,0,1,196.062,329.447Z" transform="translate(-185.303 -307.605)"/></g><path class="e" d="M160.028,255.962l-.252.1-.212,2.684a7.327,7.327,0,0,0,5.74,1.781A25.9,25.9,0,0,1,160.028,255.962Z" transform="translate(-141.334 -211.747)"/><g transform="translate(16.318 27.847)"><path class="f" d="M158.442,188.686l1.574.292c.531.1,1.064.186,1.6.277,1.065.175,2.129.329,3.188.444l-.305.021c.442-.064.888-.121,1.336-.194s.9-.14,1.349-.22l1.36-.228c.453-.075.915-.156,1.365-.222l.019,0a.7.7,0,0,1,.438,1.315c-.433.236-.861.436-1.3.632s-.881.372-1.329.543-.9.328-1.362.469-.926.277-1.4.395a.776.776,0,0,1-.191.023l-.114,0c-.578-.008-1.157-.021-1.729-.065s-1.144-.088-1.711-.157-1.133-.148-1.7-.241-1.114-.2-1.7-.341a1.4,1.4,0,0,1,.58-2.744Z" transform="translate(-155.488 -187.712)"/><path class="g" d="M151.27,184.734c1.611-.371,2.737-.053,5.374,1.049.838,1.517-.125,3.881-.125,3.881S150.625,188.222,151.27,184.734Z" transform="translate(-151.221 -184.574)"/><path class="h" d="M213.492,184.624l-.679-.084a.8.8,0,0,0-.685.252l-.814.886a1.485,1.485,0,0,0-.359,1.315l.062.291a5.056,5.056,0,0,0,2.485-.372l.408-.125a.663.663,0,0,0,.462-.821l-.236-.812A.764.764,0,0,0,213.492,184.624Z" transform="translate(-197.243 -184.534)"/></g><g transform="translate(42.518 17.927)"><path class="i" d="M289.143,164.107l0,0c-.694-.513-1.405-1-2.114-1.482s-1.427-.953-2.141-1.422-1.431-.931-2.145-1.384l-1.056-.684c-.249-.165-.495-.326-.724-.481a7.281,7.281,0,0,1-.46-.681c-.187-.314-.386-.655-.572-1.014s-.373-.726-.552-1.1-.364-.756-.539-1.143c-.349-.774-.7-1.557-1.04-2.348L276.782,150l-.011-.026a2.271,2.271,0,0,0-4.213,1.694c.327.881.675,1.7,1.046,2.537s.762,1.657,1.19,2.475q.317.614.658,1.228t.728,1.223c.257.408.523.821.838,1.236a9.373,9.373,0,0,0,1.164,1.314l.1.089a1.163,1.163,0,0,0,.214.154c.431.242.827.457,1.225.65l1.185.572c.785.374,1.579.718,2.37,1.066s1.592.671,2.4.988,1.611.624,2.437.9a1.138,1.138,0,0,0,1.039-1.994Z" transform="translate(-270.844 -146.918)"/><path class="i" d="M339.029,214.866l2.544-.053-.794,2.947s-2.309-.232-2.384-1.478Z" transform="translate(-321.706 -197.955)"/><path class="i" d="M351.516,216.628l-.452.986a.882.882,0,0,1-1.034.483l-1.229-.337.794-2.947,1.471.638A.882.882,0,0,1,351.516,216.628Z" transform="translate(-329.727 -197.955)"/><path class="j" d="M265.56,143.978a12.5,12.5,0,0,0,.468,3.926,13.4,13.4,0,0,0,3.4,4.911c2.859-.707,5.176-3.294,5.156-4.558-1.064-2.411-3.16-6.121-4.533-6.864C268.855,140.746,266.346,142.261,265.56,143.978Z" transform="translate(-265.56 -141.24)"/></g><g transform="translate(32.413 32.671)"><path class="i" d="M232.752,214.88l-6.517-.21c-.784,5.182-.22,8.914,5.835,9.5,1.763.17,6.393.408,8.416,1.047a85.652,85.652,0,0,0-2.17,13.848l2.557-.363a148,148,0,0,1,5.757-13.72,4.536,4.536,0,0,0-2.411-6.2C238.548,216.554,232.752,214.88,232.752,214.88Z" transform="translate(-224.927 -212.588)"/><path class="k" d="M230.339,207.794a35.093,35.093,0,0,1,7.3,2.607s-2.1,2.56-2.894,8.047c-1.514-.126-11.192-1.656-11.192-1.656-3.259-1.261-1.724-11.206-1.724-11.206Z" transform="translate(-221.463 -205.586)"/><path class="l" d="M242.834,236.144l-2.4,4.556c2.367.371,6,.928,7.887,1.181A20.011,20.011,0,0,1,242.834,236.144Z" transform="translate(-236.088 -229.142)"/><path class="b" d="M284.224,319.369s-3.354-1.224-3.574-2.932l-3.442.465-.348,3.321h.825l.209-.412.442.412c4.476,0,5.229-.047,6.059-.324A.525.525,0,0,0,284.224,319.369Z" transform="translate(-264.166 -291.037)"/></g><g transform="translate(3.68 34.639)"><rect class="a" width="21.82" height="2.004" rx="1.002" transform="translate(4.718 13.401)"/><path class="a" d="M167.227,280.331a.375.375,0,0,1-.139-.027l-7.762-3.063a.378.378,0,0,1,.278-.7l7.761,3.063a.378.378,0,0,1-.139.73Z" transform="translate(-144.646 -262.227)"/><path class="a" d="M180.919,368.557l-.02,0-25.937-5.874a.09.09,0,0,1,.04-.175l25.937,5.874a.09.09,0,0,1-.02.177Z" transform="translate(-141.412 -328.515)"/><path class="a" d="M157.507,346.817a.09.09,0,0,1,0-.179l25.577-.64a.093.093,0,0,1,.092.087.09.09,0,0,1-.088.092l-25.577.64Z" transform="translate(-143.359 -315.792)"/><path class="a" d="M268.845,341.143a.539.539,0,0,0,.485-.3l3.591-7.387a.539.539,0,0,0-.969-.471l-3.591,7.387a.539.539,0,0,0,.484.774Z" transform="translate(-228.839 -305.525)"/><path class="a" d="M278.854,333.757h2.753a.539.539,0,1,0,0-1.077h-2.753a.539.539,0,1,0,0,1.077Z" transform="translate(-236.554 -305.526)"/><path class="a" d="M317.589,297.117a12.376,12.376,0,1,1-12.376,12.376,12.39,12.39,0,0,1,12.376-12.376m0-1.436A13.812,13.812,0,1,0,331.4,309.493a13.812,13.812,0,0,0-13.812-13.812Z" transform="translate(-256.182 -277.004)"/><g transform="translate(48.583 19.664)"><path class="a" d="M363.753,325.641a.09.09,0,0,1-.09-.09v-25.47a.09.09,0,0,1,.18,0v25.47A.09.09,0,0,1,363.753,325.641Z" transform="translate(-350.928 -299.992)"/><path class="a" d="M333.646,355.747h-25.47a.09.09,0,1,1,0-.179h25.47a.09.09,0,0,1,0,.179Z" transform="translate(-308.087 -342.833)"/><path class="a" d="M342.464,334.459a.089.089,0,0,1-.063-.026l-18.01-18.01a.09.09,0,0,1,.127-.127l18.01,18.01a.09.09,0,0,1-.063.153Z" transform="translate(-320.634 -312.539)"/><path class="a" d="M324.454,334.459a.09.09,0,0,1-.063-.153L342.4,316.3a.09.09,0,0,1,.127.127l-18.01,18.01A.09.09,0,0,1,324.454,334.459Z" transform="translate(-320.634 -312.539)"/><path class="a" d="M342.485,327.931a.091.091,0,0,1-.034-.007.09.09,0,0,1-.049-.117l9.747-23.531a.09.09,0,1,1,.166.068l-9.747,23.531A.09.09,0,0,1,342.485,327.931Z" transform="translate(-334.534 -303.251)"/><path class="a" d="M335.938,344.225a.087.087,0,0,1-.034-.007l-23.531-9.747a.09.09,0,0,1,.069-.166l23.531,9.747a.09.09,0,0,1-.034.173Z" transform="translate(-311.348 -326.438)"/><path class="a" d="M352.232,327.931a.09.09,0,0,1-.083-.055L342.4,304.345a.09.09,0,1,1,.166-.069l9.747,23.531a.09.09,0,0,1-.049.117A.091.091,0,0,1,352.232,327.931Z" transform="translate(-334.534 -303.252)"/><path class="a" d="M312.407,344.226a.09.09,0,0,1-.034-.173l23.531-9.747a.09.09,0,0,1,.069.166l-23.531,9.747A.085.085,0,0,1,312.407,344.226Z" transform="translate(-311.348 -326.439)"/></g><path class="a" d="M109.876,297.117A12.376,12.376,0,1,1,97.5,309.493a12.39,12.39,0,0,1,12.376-12.376m0-1.436a13.812,13.812,0,1,0,13.812,13.812,13.812,13.812,0,0,0-13.812-13.812Z" transform="translate(-96.064 -277.004)"/><path class="a" d="M142.849,338.872a3.594,3.594,0,1,1-3.594,3.594,3.6,3.6,0,0,1,3.594-3.594m0-.417a4.011,4.011,0,1,0,4.011,4.011,4.011,4.011,0,0,0-4.011-4.011Z" transform="translate(-129.037 -309.977)"/><path class="a" d="M149.184,350.929a2.128,2.128,0,1,1,2.128-2.128A2.13,2.13,0,0,1,149.184,350.929Zm0-3.179a1.051,1.051,0,1,0,1.051,1.051A1.052,1.052,0,0,0,149.184,347.75Z" transform="translate(-135.372 -316.312)"/><path class="a" d="M253.539,345.588a4.559,4.559,0,1,1-4.559,4.559,4.565,4.565,0,0,1,4.559-4.559m0-.529a5.089,5.089,0,1,0,5.089,5.089,5.089,5.089,0,0,0-5.089-5.089Z" transform="translate(-213.532 -315.068)"/><g transform="translate(0.988 19.664)"><path class="a" d="M156.041,325.641a.09.09,0,0,1-.09-.09v-25.47a.09.09,0,0,1,.18,0v25.47A.09.09,0,0,1,156.041,325.641Z" transform="translate(-143.216 -299.992)"/><path class="a" d="M125.933,355.747h-25.47a.09.09,0,1,1,0-.179h25.47a.09.09,0,1,1,0,.179Z" transform="translate(-100.374 -342.833)"/><path class="a" d="M134.752,334.459a.09.09,0,0,1-.063-.026l-18.01-18.01a.09.09,0,1,1,.127-.127l18.01,18.01a.09.09,0,0,1-.063.153Z" transform="translate(-112.922 -312.539)"/><path class="a" d="M116.742,334.459a.09.09,0,0,1-.063-.153l18.01-18.01a.09.09,0,1,1,.127.127l-18.01,18.01A.09.09,0,0,1,116.742,334.459Z" transform="translate(-112.922 -312.539)"/><path class="a" d="M134.772,327.931a.089.089,0,0,1-.083-.124l9.747-23.531a.09.09,0,1,1,.166.069l-9.747,23.531A.089.089,0,0,1,134.772,327.931Z" transform="translate(-126.821 -303.252)"/><path class="a" d="M128.226,344.226a.087.087,0,0,1-.034-.007l-23.531-9.747a.09.09,0,0,1,.069-.166l23.531,9.747a.09.09,0,0,1-.034.173Z" transform="translate(-103.635 -326.438)"/><path class="a" d="M144.519,327.932a.089.089,0,0,1-.083-.055l-9.747-23.531a.09.09,0,1,1,.166-.068l9.747,23.531a.089.089,0,0,1-.083.124Z" transform="translate(-126.821 -303.252)"/><path class="a" d="M104.695,344.226a.09.09,0,0,1-.034-.173l23.531-9.747a.09.09,0,0,1,.069.166l-23.531,9.747A.085.085,0,0,1,104.695,344.226Z" transform="translate(-103.635 -326.439)"/></g><path class="a" d="M155.134,290.077a.356.356,0,0,1-.184-.051.359.359,0,0,1-.123-.493L166.439,270.2a.359.359,0,0,1,.616.37L155.442,289.9A.359.359,0,0,1,155.134,290.077Z" transform="translate(-141.322 -257.229)"/><path class="m" d="M341.893,256.306a.719.719,0,0,1-.7-.554l-5.869-25.03a.718.718,0,0,1,0-.31l.847-4.088a.718.718,0,0,1,1.407.292l-.815,3.933,5.833,24.875a.719.719,0,0,1-.7.882Z" transform="translate(-280.486 -223.099)"/><path class="m" d="M180.121,356.852a.692.692,0,0,1-.072,0l-26.194-2.591a.718.718,0,1,1,.141-1.429l26.194,2.591a.718.718,0,0,1-.07,1.433Z" transform="translate(-140.114 -321.054)"/><path class="m" d="M209.687,277.537h-.031a.718.718,0,0,1-.567-.32L191.684,251.05a.718.718,0,0,1,1.2-.8L209.739,275.6l16.229-20.4a.718.718,0,1,1,1.124.894L210.25,277.266A.718.718,0,0,1,209.687,277.537Z" transform="translate(-169.681 -241.739)"/><path class="m" d="M219.174,270.738q-.475,0-.951-.021a21.239,21.239,0,0,1-14.125-6.228.718.718,0,0,1,1.017-1.015,19.743,19.743,0,0,0,26.806,1.189l3.312-2.776a.718.718,0,1,1,.923,1.1l-3.312,2.776A21.234,21.234,0,0,1,219.174,270.738Z" transform="translate(-179.181 -250.824)"/><g transform="translate(57.567)"><path class="c" d="M380.617,245.3c-.194-.957,1.838-2.138,3.306-2.145C382.441,244.04,381.915,245.487,380.617,245.3Z" transform="translate(-372.972 -236.512)"/><path class="c" d="M371.689,242.331c.634-.492,0-2.316-.91-3.108C371.226,240.571,370.778,241.754,371.689,242.331Z" transform="translate(-365.398 -233.483)"/><path class="c" d="M349.793,245.647c.512-.634-1.068-1.511-2.5-1.578C348.441,244.727,348.464,245.719,349.793,245.647Z" transform="translate(-347.297 -237.219)"/><g transform="translate(6.435 0.959)"><path class="c" d="M375.582,231.011l-.2-.075c.818-2.179,3.094-4.892,4.683-5.582l.085.2C378.632,226.21,376.369,228.915,375.582,231.011Z" transform="translate(-375.382 -223.751)"/><g transform="translate(3.325)"><path class="c" d="M390.377,219.352a.955.955,0,0,1,.314-.816c.456-.5.571.164.592.756.091-.513.351-1.016.966-.737.431.2.191.569-.147.89.317-.1.617.007.676.659.062.694-.472.535-.9.308a.841.841,0,0,1-.095,1.332c-.472.434-.544-.19-.524-.772-.131.483-.42.912-.986.585-.5-.287-.02-.739.424-1.047-.412.14-.861.082-.8-.764C389.926,219.295,390.134,219.245,390.377,219.352Z" transform="translate(-389.891 -218.36)"/><path class="l" d="M390.377,219.352a.955.955,0,0,1,.314-.816c.456-.5.571.164.592.756.091-.513.351-1.016.966-.737.431.2.191.569-.147.89.317-.1.617.007.676.659.062.694-.472.535-.9.308a.841.841,0,0,1-.095,1.332c-.472.434-.544-.19-.524-.772-.131.483-.42.912-.986.585-.5-.287-.02-.739.424-1.047-.412.14-.861.082-.8-.764C389.926,219.295,390.134,219.245,390.377,219.352Z" transform="translate(-389.891 -218.36)"/><g transform="translate(1.144 1.403)"><path class="c" d="M394.951,224.628a.377.377,0,0,0,.023.465.248.248,0,0,0,.382-.085.378.378,0,0,0-.023-.465A.249.249,0,0,0,394.951,224.628Z" transform="translate(-394.883 -224.483)"/><path class="n" d="M394.951,224.628a.377.377,0,0,0,.023.465.248.248,0,0,0,.382-.085.378.378,0,0,0-.023-.465A.249.249,0,0,0,394.951,224.628Z" transform="translate(-394.883 -224.483)"/></g></g></g><g transform="translate(5.583)"><path class="c" d="M373.315,229.7l-.2-.077c.755-1.954,1.942-6.287,1.4-7.936l.2-.066C375.278,223.321,374.08,227.722,373.315,229.7Z" transform="translate(-372.783 -219.915)"/><path class="c" d="M374.767,216.322a.857.857,0,0,0,.5-.719c.126-.67-.544-.407-1.082-.1.391-.359.656-.86-.02-1.243-.473-.268-.638.145-.686.614-.134-.33-.436-.533-1.055-.228-.658.325-.145.7.352.949a.835.835,0,0,0-1.115.81c-.055.647.547.369,1.049.034-.337.378-.516.864.169,1.177.6.275.669-.386.632-.941.163.436.528.794,1.238.283C375.132,216.683,375.032,216.475,374.767,216.322Z" transform="translate(-371.661 -214.174)"/><path class="n" d="M374.767,216.322a.857.857,0,0,0,.5-.719c.126-.67-.544-.407-1.082-.1.391-.359.656-.86-.02-1.243-.473-.268-.638.145-.686.614-.134-.33-.436-.533-1.055-.228-.658.325-.145.7.352.949a.835.835,0,0,0-1.115.81c-.055.647.547.369,1.049.034-.337.378-.516.864.169,1.177.6.275.669-.386.632-.941.163.436.528.794,1.238.283C375.132,216.683,375.032,216.475,374.767,216.322Z" transform="translate(-371.661 -214.174)"/><g transform="translate(1.466 1.432)"><path class="c" d="M378.7,220.811a.383.383,0,0,1-.428.234.274.274,0,0,1-.191-.379.383.383,0,0,1,.428-.234A.273.273,0,0,1,378.7,220.811Z" transform="translate(-378.059 -220.424)"/><path class="l" d="M378.7,220.811a.383.383,0,0,1-.428.234.274.274,0,0,1-.191-.379.383.383,0,0,1,.428-.234A.273.273,0,0,1,378.7,220.811Z" transform="translate(-378.059 -220.424)"/></g></g></g><g transform="translate(57.958 3.449)"><path class="c" d="M359.727,247.48c-.411-1.128-.344-4.018.213-3.3s-.8,2.221.055,3.246C359.85,247.739,359.727,247.48,359.727,247.48Z" transform="translate(-357.065 -240.668)"/><path class="c" d="M365.6,247.826c.205-.945,1.493-2.885,1.562-2.155s-1.5,1.169-1.357,2.235C365.575,248.055,365.6,247.826,365.6,247.826Z" transform="translate(-361.797 -241.779)"/><g transform="translate(3.93 4.785)"><path class="c" d="M366.166,251.055c.342-.477,1.526-1.248,1.389-.825s-1.117.291-1.294.918C366.1,251.175,366.166,251.055,366.166,251.055Z" transform="translate(-366.151 -250.107)"/><path class="o" d="M366.166,251.055c.342-.477,1.526-1.248,1.389-.825s-1.117.291-1.294.918C366.1,251.175,366.166,251.055,366.166,251.055Z" transform="translate(-366.151 -250.107)"/></g><path class="c" d="M375.962,248.724c.162-.953,1.359-2.95,1.462-2.224s-1.445,1.236-1.254,2.294C375.945,248.953,375.962,248.724,375.962,248.724Z" transform="translate(-369.784 -242.422)"/><g transform="translate(2.813 2.494)"><path class="c" d="M362,247.889a9.508,9.508,0,0,0,.446-4.474C362.968,244.092,362.665,246.6,362,247.889Z" transform="translate(-361.835 -242.658)"/><path class="c" d="M361.914,241.63c-.351.038-.574-.511-.638-1.226a2.4,2.4,0,0,0,.321.215s.018-.35.045-.506c.093.081.24.282.376.382a1.256,1.256,0,0,0,.076-.354C362.413,240.466,362.725,241.423,361.914,241.63Z" transform="translate(-361.276 -240.113)"/><path class="o" d="M361.914,241.63c-.351.038-.574-.511-.638-1.226a2.4,2.4,0,0,0,.321.215s.018-.35.045-.506c.093.081.24.282.376.382a1.256,1.256,0,0,0,.076-.354C362.413,240.466,362.725,241.423,361.914,241.63Z" transform="translate(-361.276 -240.113)"/></g><g transform="translate(1.774 0.317)"><path class="c" d="M358.661,239.862a10.991,10.991,0,0,1-.077-5.2C357.918,235.392,358.022,238.307,358.661,239.862Z" transform="translate(-357.812 -233.735)"/><path class="c" d="M357.416,232.387c.408,0,.6-.656.587-1.486a2.784,2.784,0,0,1-.343.286s-.063-.4-.112-.577c-.1.1-.242.353-.386.485a1.45,1.45,0,0,1-.13-.4C356.7,231.108,356.458,232.246,357.416,232.387Z" transform="translate(-356.74 -230.61)"/><path class="p" d="M357.416,232.387c.408,0,.6-.656.587-1.486a2.784,2.784,0,0,1-.343.286s-.063-.4-.112-.577c-.1.1-.242.353-.386.485a1.45,1.45,0,0,1-.13-.4C356.7,231.108,356.458,232.246,357.416,232.387Z" transform="translate(-356.74 -230.61)"/></g><g transform="translate(0 4.272)"><path class="c" d="M351.029,249.7c-.433-.843-2.143-2.354-2.024-1.645s1.716.728,1.85,1.773C351.113,249.91,351.029,249.7,351.029,249.7Z" transform="translate(-348.999 -247.871)"/><path class="p" d="M351.029,249.7c-.433-.843-2.143-2.354-2.024-1.645s1.716.728,1.85,1.773C351.113,249.91,351.029,249.7,351.029,249.7Z" transform="translate(-348.999 -247.871)"/></g><path class="c" d="M376.287,250.923c.366-.581,1.7-1.564,1.565-1.06s-1.285.417-1.448,1.163C376.213,251.069,376.287,250.923,376.287,250.923Z" transform="translate(-370.023 -245.027)"/><path class="c" d="M372.719,246.167c.618-.864,1.246-3.343.6-2.861s.155,2.083-.817,2.753C372.553,246.358,372.719,246.167,372.719,246.167Z" transform="translate(-367.117 -240.033)"/><g transform="translate(0.001 2.494)"><path class="c" d="M353.832,247.59a9.505,9.505,0,0,0-1.541-4.224C353.054,243.749,353.869,246.136,353.832,247.59Z" transform="translate(-351.538 -242.621)"/><path class="c" d="M350.11,241.532c-.3.187-.738-.211-1.107-.828a2.393,2.393,0,0,0,.382.055s-.135-.324-.179-.475c.119.033.338.15.5.181a1.261,1.261,0,0,0-.085-.352C350.054,240.267,350.751,240.994,350.11,241.532Z" transform="translate(-349.003 -240.113)"/><path class="o" d="M350.11,241.532c-.3.187-.738-.211-1.107-.828a2.393,2.393,0,0,0,.382.055s-.135-.324-.179-.475c.119.033.338.15.5.181a1.261,1.261,0,0,0-.085-.352C350.054,240.267,350.751,240.994,350.11,241.532Z" transform="translate(-349.003 -240.113)"/></g><g transform="translate(0.848 0.781)"><path class="c" d="M357.02,241.621a10.992,10.992,0,0,1-1.363-5.016C355.191,237.476,356.015,240.273,357.02,241.621Z" transform="translate(-354.876 -235.696)"/><path class="c" d="M353.6,234.391c.4-.1.417-.784.2-1.585a2.771,2.771,0,0,1-.261.362s-.16-.372-.251-.531c-.068.125-.147.4-.254.565a1.445,1.445,0,0,1-.225-.353C352.589,233.329,352.634,234.492,353.6,234.391Z" transform="translate(-352.699 -232.637)"/><path class="p" d="M353.6,234.391c.4-.1.417-.784.2-1.585a2.771,2.771,0,0,1-.261.362s-.16-.372-.251-.531c-.068.125-.147.4-.254.565a1.445,1.445,0,0,1-.225-.353C352.589,233.329,352.634,234.492,353.6,234.391Z" transform="translate(-352.699 -232.637)"/></g><g transform="translate(3.39 1.485)"><path class="c" d="M363.792,243.5a9.508,9.508,0,0,0,1.065-4.369C365.279,239.87,364.63,242.308,363.792,243.5Z" transform="translate(-363.792 -238.344)"/><g transform="translate(0.519)"><path class="c" d="M366.521,237.248c-.353-.011-.5-.586-.461-1.3a2.4,2.4,0,0,0,.288.258s.067-.344.115-.495c.081.093.2.313.319.431a1.251,1.251,0,0,0,.125-.34C367.178,236.165,367.354,237.157,366.521,237.248Z" transform="translate(-366.055 -235.708)"/><path class="p" d="M366.521,237.248c-.353-.011-.5-.586-.461-1.3a2.4,2.4,0,0,0,.288.258s.067-.344.115-.495c.081.093.2.313.319.431a1.251,1.251,0,0,0,.125-.34C367.178,236.165,367.354,237.157,366.521,237.248Z" transform="translate(-366.055 -235.708)"/></g></g><g transform="translate(4.894)"><path class="c" d="M372.165,238.479a10.991,10.991,0,0,0,.077-5.2C372.909,234.009,372.8,236.924,372.165,238.479Z" transform="translate(-371.75 -232.352)"/><path class="c" d="M370.943,231c-.408,0-.6-.656-.587-1.486a2.768,2.768,0,0,0,.343.286s.063-.4.112-.577c.1.1.242.353.386.485a1.451,1.451,0,0,0,.13-.4C371.656,229.725,371.9,230.863,370.943,231Z" transform="translate(-370.356 -229.227)"/><path class="o" d="M370.943,231c-.408,0-.6-.656-.587-1.486a2.768,2.768,0,0,0,.343.286s.063-.4.112-.577c.1.1.242.353.386.485a1.451,1.451,0,0,0,.13-.4C371.656,229.725,371.9,230.863,370.943,231Z" transform="translate(-370.356 -229.227)"/></g><g transform="translate(6.114 2.318)"><path class="c" d="M375.684,246.82a9.508,9.508,0,0,1,1.541-4.224C376.462,242.979,375.647,245.367,375.684,246.82Z" transform="translate(-375.683 -241.851)"/><g transform="translate(0.929)"><path class="c" d="M380,240.762c.3.187.738-.211,1.107-.828a2.379,2.379,0,0,1-.382.055s.135-.323.179-.475c-.119.033-.338.15-.5.182a1.255,1.255,0,0,1,.085-.352C380.053,239.5,379.356,240.224,380,240.762Z" transform="translate(-379.738 -239.343)"/><path class="o" d="M380,240.762c.3.187.738-.211,1.107-.828a2.379,2.379,0,0,1-.382.055s.135-.323.179-.475c-.119.033-.338.15-.5.182a1.255,1.255,0,0,1,.085-.352C380.053,239.5,379.356,240.224,380,240.762Z" transform="translate(-379.738 -239.343)"/></g></g><g transform="translate(5.419 0.605)"><path class="c" d="M372.65,240.851a10.991,10.991,0,0,0,1.363-5.016C374.478,236.706,373.654,239.5,372.65,240.851Z" transform="translate(-372.65 -234.926)"/><g transform="translate(0.908)"><path class="c" d="M376.951,233.621c-.4-.1-.417-.784-.2-1.585a2.767,2.767,0,0,0,.262.362s.16-.372.251-.531c.068.125.147.4.254.565a1.451,1.451,0,0,0,.225-.353C377.959,232.559,377.913,233.722,376.951,233.621Z" transform="translate(-376.613 -231.867)"/><path class="p" d="M376.951,233.621c-.4-.1-.417-.784-.2-1.585a2.767,2.767,0,0,0,.262.362s.16-.372.251-.531c.068.125.147.4.254.565a1.451,1.451,0,0,0,.225-.353C377.959,232.559,377.913,233.722,376.951,233.621Z" transform="translate(-376.613 -231.867)"/></g></g></g><path class="a" d="M354.543,254.026c-.242,1.624-2.157,3.074-4.577,3.324-3.05.315-5.431-1.259-5.139-3.225l.641-4.312c.01-.067.1-.121.2-.121h9.519Z" transform="translate(-287.807 -241.553)"/><path class="a" d="M338.812,262.263a8.989,8.989,0,0,1-2.3-.625,4.662,4.662,0,0,0-.573,1.013,8.4,8.4,0,0,0,2.8.76Z" transform="translate(-280.976 -250.762)"/><path class="a" d="M344.753,227.368a.715.715,0,0,1-.2-.029l-3.008-.878a.718.718,0,1,1,.4-1.379l3.008.878a.718.718,0,0,1-.2,1.408Z" transform="translate(-284.896 -222.56)"/><path class="q" d="M185.436,249.534l7.778,1.056a.614.614,0,0,0,.691-.526l.08-.593a.614.614,0,0,0-.485-.684l-7.707-1.581a.614.614,0,0,0-.732.519l-.152,1.119A.614.614,0,0,0,185.436,249.534Z" transform="translate(-164.547 -239.627)"/><path class="a" d="M262.667,357.978a1.3,1.3,0,1,0,1.3,1.3,1.3,1.3,0,0,0-1.3-1.3m0-1.077a2.375,2.375,0,1,1-2.375,2.375,2.375,2.375,0,0,1,2.375-2.375Z" transform="translate(-222.661 -324.197)"/><path class="a" d="M253.172,373.379a.539.539,0,0,0,.485-.3l3.591-7.386a.539.539,0,0,0-.969-.471l-3.591,7.386a.539.539,0,0,0,.484.775Z" transform="translate(-216.757 -330.375)"/><path class="a" d="M246.821,398.229h2.753a.539.539,0,1,0,0-1.077h-2.753a.539.539,0,1,0,0,1.077Z" transform="translate(-211.861 -355.224)"/></g><g transform="translate(28.106 34.206)"><path class="i" d="M213.554,214.609l-7.02-.673c-2.825,4.415-2.173,8.7,2.014,12.7,2.066,1.973,4.593,4.055,7.387,6.667a2.024,2.024,0,0,1,.669,2.17c-2.285,5.3-1.568,18.507-1.568,18.507l2.493-.676a142.95,142.95,0,0,1,5.64-18.8,4.742,4.742,0,0,0-.89-4.684A123.231,123.231,0,0,1,213.554,214.609Z" transform="translate(-204.323 -213.557)"/><path class="k" d="M204.367,212.284c-.715,1.367-2.59,5.06-1.211,8.627s6.373,7.478,7.266,8.277c2.775-2.544,7.905-4.583,7.905-4.583s-3.679-6.328-4.058-9.86A70.963,70.963,0,0,0,204.367,212.284Z" transform="translate(-202.663 -212.284)"/><path class="b" d="M253.646,384.05s-3.354-1.223-3.574-2.932l-3.442.465-.348,3.321h.825l.209-.412.442.412c4.476,0,5.229-.047,6.059-.324A.526.526,0,0,0,253.646,384.05Z" transform="translate(-236.287 -342.431)"/></g><path class="r" d="M214.6,130.827a42.657,42.657,0,0,1,7.942,2.162,4.159,4.159,0,0,1,2.437,5.109c-1.252,3.983-3.28,5.891-4.813,12.8-2.519,3.653-15.373-.9-15.373-.9-.154-1.587,2.563-5.5,3.412-8.2a35.629,35.629,0,0,0,1.59-7.244A4.152,4.152,0,0,1,214.6,130.827Z" transform="translate(-176.196 -115.241)"/><g transform="translate(37.842 4.467)"><path class="i" d="M254.866,111.391c-.116,1.879.022,4.07-.829,5.266a4.634,4.634,0,0,0,3.278,2.4c1.953.462,1.883-.614,1.532-1.423-1.217-1.055-1.046-2.11-.547-2.649Z" transform="translate(-252.001 -104.771)"/><path class="l" d="M260.393,110.66l2.642,3.76a1.439,1.439,0,0,0-.352,1.251,2.84,2.84,0,0,1-1.755-1.109,4.326,4.326,0,0,1-.736-3.1C260.264,111.213,260.329,110.945,260.393,110.66Z" transform="translate(-256.735 -104.207)"/><path class="i" d="M256.776,94.373c-.167,2.279-.109,3.3.879,4.6a2.8,2.8,0,0,0,5-.6c.762-1.97.908-5.367-1.189-6.547A3.149,3.149,0,0,0,256.776,94.373Z" transform="translate(-254.057 -89.373)"/><path class="s" d="M280.52,107.834h-.04a.744.744,0,0,1-.521-.275,1.545,1.545,0,0,1-.308-1.124c.063-.739.539-1.312,1.055-1.283a.745.745,0,0,1,.521.275,1.545,1.545,0,0,1,.308,1.124h0C281.473,107.269,281.022,107.834,280.52,107.834Zm.145-2.609c-.464,0-.881.535-.938,1.215a1.468,1.468,0,0,0,.29,1.068.67.67,0,0,0,.468.249c.481.031.916-.516.975-1.214a1.47,1.47,0,0,0-.29-1.068.672.672,0,0,0-.468-.249Zm.832,1.321h0Z" transform="translate(-271.74 -99.959)"/><path class="a" d="M254.035,83.518c.452.589.41.8.41.8a5.891,5.891,0,0,0-3.322-1.177,2.4,2.4,0,0,0-1.976-.61s.724.336.877.62c-1.019-.029-3.174-.094-3.058.813a2.855,2.855,0,0,0-1.458-.069,6.178,6.178,0,0,1,1.088.369c-1.216.375-.957,2.189-.625,2.986.368.883-.82.547-.82.547s.373.623.943.527a2.651,2.651,0,0,0,2.095,1.491c1.072-.231,1.392-2.324.725-2.713,1.188.445,2.762-.416,3.886-1.412a5.631,5.631,0,0,1,1.255,1.324s1.115-.476.894-1.3C255.811,85.908,255.117,83.813,254.035,83.518Z" transform="translate(-245.152 -82.499)"/><path class="s" d="M259.31,108.415h0c-.026,0-2.668-.24-3.308-.166a.036.036,0,0,1-.042-.033.038.038,0,0,1,.033-.042,32.2,32.2,0,0,1,3.323.166.038.038,0,0,1,0,.075Z" transform="translate(-253.481 -102.278)"/><path class="s" d="M270.795,106.457h-.041a.745.745,0,0,1-.521-.275,1.544,1.544,0,0,1-.308-1.124c.061-.72.511-1.284,1.014-1.284h.04a.746.746,0,0,1,.521.275,1.544,1.544,0,0,1,.308,1.124h0C271.748,105.892,271.3,106.457,270.795,106.457Zm.145-2.609c-.464,0-.881.535-.939,1.215a1.468,1.468,0,0,0,.29,1.068.671.671,0,0,0,.468.249c.477.032.916-.516.975-1.214a1.47,1.47,0,0,0-.29-1.068.672.672,0,0,0-.468-.249Zm.832,1.322h0Z" transform="translate(-264.244 -98.897)"/><path class="s" d="M278.372,108.9a.038.038,0,0,1-.035-.023c-.066-.161-.415-.043-.419-.042a.038.038,0,0,1-.025-.071c.018-.006.419-.146.514.084a.038.038,0,0,1-.021.049A.039.039,0,0,1,278.372,108.9Z" transform="translate(-270.372 -102.707)"/><path class="s" d="M270.107,117.236a16.6,16.6,0,0,0-2.5-.948,1.629,1.629,0,0,0,1.335,1.376C269.9,117.965,270.107,117.236,270.107,117.236Z" transform="translate(-262.459 -108.545)"/><path class="i" d="M252.407,107.613a2.081,2.081,0,0,0,.831,1.285c.552.371.781-.23.765-.928-.014-.629-.106-1.505-.726-1.591S252.268,106.95,252.407,107.613Z" transform="translate(-250.723 -100.901)"/><path class="a" d="M271.932,106.672c-.027.193.054.363.181.379s.25-.127.277-.32-.054-.362-.181-.379S271.959,106.479,271.932,106.672Z" transform="translate(-265.791 -100.886)"/><path class="a" d="M281.254,107.935c-.027.193.054.363.181.379s.251-.127.277-.32-.054-.363-.18-.379S281.281,107.742,281.254,107.935Z" transform="translate(-272.978 -101.859)"/><path class="i" d="M278.31,109.521a6.887,6.887,0,0,0,.767,1.739,1.129,1.129,0,0,1-.945.092Z" transform="translate(-270.575 -103.329)"/><path class="a" d="M269.388,102.852a.113.113,0,0,1-.048-.032.114.114,0,0,1,.009-.161,1.147,1.147,0,0,1,1.008-.291.113.113,0,0,1,.081.14.116.116,0,0,1-.14.082h0a.916.916,0,0,0-.8.239A.116.116,0,0,1,269.388,102.852Z" transform="translate(-263.775 -97.798)"/><path class="a" d="M283.7,103.566a.113.113,0,0,1-.1-.038.9.9,0,0,0-.756-.328.114.114,0,0,1-.128-.1.115.115,0,0,1,.1-.129,1.126,1.126,0,0,1,.959.4.116.116,0,0,1-.072.189Z" transform="translate(-274.105 -98.278)"/></g><g transform="translate(25.645)"><path class="i" d="M203.5,89.116l-.019-.013-2.113-1.46c-.708-.489-1.407-.987-2.1-1.482q-.517-.373-1.014-.754t-.974-.758c-.315-.253-.61-.516-.881-.761-.162-.147-.312-.3-.434-.428a4.9,4.9,0,0,1,.162-.794,18.575,18.575,0,0,1,.721-2.032c.282-.7.6-1.4.918-2.109l.98-2.121.013-.027a1.138,1.138,0,0,0-1.856-1.262c-.587.613-1.106,1.235-1.621,1.888s-.995,1.328-1.456,2.039a17.083,17.083,0,0,0-1.267,2.311,8.747,8.747,0,0,0-.5,1.434,4.782,4.782,0,0,0-.135.944,3.514,3.514,0,0,0,.2,1.348,1.567,1.567,0,0,0,.13.274l.047.077a9.382,9.382,0,0,0,1.059,1.4c.345.39.7.733,1.047,1.065s.7.649,1.055.955.714.6,1.074.887c.717.58,1.452,1.123,2.191,1.654s1.482,1.032,2.281,1.526a2.271,2.271,0,0,0,2.486-3.8Z" transform="translate(-191.923 -72.068)"/><path class="i" d="M214.543,73.42l1.706-1.887L213.5,70.2s-1.338,1.9-.445,2.77Z" transform="translate(-207.978 -68.552)"/><path class="i" d="M218.666,63.343l-1.041-.3a.882.882,0,0,0-1.042.465l-.551,1.149,2.746,1.33.481-1.529A.882.882,0,0,0,218.666,63.343Z" transform="translate(-210.508 -63.003)"/><path class="j" d="M219.578,126.052a4.205,4.205,0,0,1-5,3.177q-.128-.03-.256-.068c-1.29-.38-3.742-1.023-4.692-2.641.494-2.9,1.422-6.649,2.683-6.722,2.483.884,5.31,2.466,6.85,2.722C219.944,122.651,219.969,124.379,219.578,126.052Z" transform="translate(-205.572 -106.785)"/></g><g transform="translate(11.918 39.326)"><path class="b" d="M197.857,382.008c-1.618.522-2.323.184-3.261.331-.8.124-.989.247-1.634.354-.539.09-.675-.194-.509-.734.083-.271-.213-.379-.321-.807l2.128-1.46c.568.3,2.292,1.9,3.235,1.745C198.4,381.291,198.5,381.8,197.857,382.008Z" transform="translate(-178.358 -346.451)"/><path class="c" d="M139.065,234.626s1.058,8.126,2.53,13.937c1.545,6.1,4.162,16.029,6.324,19.3a5.537,5.537,0,0,1-2.128,1.46s-8.817-10.285-8.31-17.528c-6.183-9.894-5.805-12.531-5.061-14.89Z" transform="translate(-132.016 -234.626)"/><path class="d" d="M139.065,234.626s1.058,8.126,2.53,13.937c1.545,6.1,4.162,16.029,6.324,19.3a5.537,5.537,0,0,1-2.128,1.46s-8.817-10.285-8.31-17.528c-6.183-9.894-5.805-12.531-5.061-14.89Z" transform="translate(-132.016 -234.626)"/><path class="a" d="M191.562,375.867a4.684,4.684,0,0,0,.472.654.192.192,0,0,1-.04.268,11.292,11.292,0,0,1-2.324,1.445.163.163,0,0,1-.2-.031l-.488-.579a.2.2,0,0,1,.069-.283l2.271-1.5A.166.166,0,0,1,191.562,375.867Z" transform="translate(-175.902 -343.452)"/></g><path class="t" d="M129.352,188.056a36.075,36.075,0,0,1,.3,4.138c.11,1.821,1.026,5.186.493,5.514-.964.855-3.812,1.409-9.092,1.24a37.781,37.781,0,0,0-3.128-9.883,2.14,2.14,0,0,1,1.438-3c.355-.086.733-.168,1.123-.241a29.181,29.181,0,0,1,4.128-.563c.454-.021.927-.028,1.38-.026A3.454,3.454,0,0,1,129.352,188.056Z" transform="translate(-109.081 -157.225)"/><path class="u" d="M128.05,224.232l-.586-.354a.8.8,0,0,0-.728-.049l-1.1.478a1.486,1.486,0,0,0-.863,1.055l-.062.291a5.057,5.057,0,0,0,2.421.672l.424.052a.663.663,0,0,0,.757-.562l.115-.838A.763.763,0,0,0,128.05,224.232Z" transform="translate(-114.464 -186.927)"/><path class="u" d="M105.72,195.005c-.349.419-.732.864-1.083,1.307s-.71.89-1.05,1.336-.661.9-.95,1.347a6.792,6.792,0,0,0-.661,1.25l-.466-1.332a4.144,4.144,0,0,0,.9.582,7.725,7.725,0,0,0,1.144.434,12.8,12.8,0,0,0,1.268.307c.429.085.894.151,1.31.207l.054.007a.7.7,0,0,1,.058,1.378,9.55,9.55,0,0,1-1.527.2,10.373,10.373,0,0,1-1.548-.028,8.205,8.205,0,0,1-1.59-.312,5.892,5.892,0,0,1-1.592-.753,1.191,1.191,0,0,1-.483-1.26l.018-.072a7.888,7.888,0,0,1,.8-1.969,17.938,17.938,0,0,1,1-1.613c.35-.513.72-1,1.1-1.484s.764-.941,1.2-1.408a1.4,1.4,0,0,1,2.108,1.85Z" transform="translate(-95.012 -162.971)"/><path class="g" d="M115.07,187.764c-1.509-.085-2.375.336-4.193,3.019.7,1.769,3.152,3.463,3.152,3.463S116.443,190.291,115.07,187.764Z" transform="translate(-103.803 -159.169)"/><path class="u" d="M128.264,167.345c.541,1.279,1.314,3.653.571,4.657,0,0,1.233-.36,4.129.927.622-1.215,0-1.49,0-1.49-1.556-.148-1.75-1.241-1.709-2.3Z" transform="translate(-117.206 -143.436)"/><path class="s" d="M132.377,186.72c-.863.245-.957,1.612-.957,1.612s-2.526-1.085-3.13-2.169a8.79,8.79,0,0,0,.7-.6A18.465,18.465,0,0,1,132.377,186.72Z" transform="translate(-117.225 -157.483)"/><path class="s" d="M147.625,185.746a1.649,1.649,0,0,1,1.2.98c-.063-1.965-1.006-2.018-1.006-2.018a1.137,1.137,0,0,0-.811-.006A.951.951,0,0,1,147.625,185.746Z" transform="translate(-131.657 -156.764)"/><path class="l" d="M133.572,170.544l1.77,1.062a4.183,4.183,0,0,0,.027.743,2.039,2.039,0,0,1-1.676-1.091A2,2,0,0,1,133.572,170.544Z" transform="translate(-121.294 -145.902)"/><path class="u" d="M118.183,146.408c1.061,1.93,1.469,2.767,2.966,3.369,2.252.9,4.42-.676,3.965-2.849-.411-1.956-2.077-4.784-4.419-4.768A2.822,2.822,0,0,0,118.183,146.408Z" transform="translate(-109.142 -124.022)"/><path class="a" d="M117.5,141.432c1.443.782-3.792,2.381-3.792,2.381.729.462,2.137,4.436-2.151,3.532C111.916,142.152,112.976,140.585,117.5,141.432Z" transform="translate(-104.329 -123.294)"/><path class="s" d="M136.343,163.382a15.652,15.652,0,0,0-2.518.1,1.533,1.533,0,0,0,1.662.7C136.432,164.09,136.343,163.382,136.343,163.382Z" transform="translate(-121.493 -140.371)"/><path class="a" d="M133.174,156.566c.082.166.237.264.345.219s.13-.215.048-.381-.237-.264-.346-.219S133.092,156.4,133.174,156.566Z" transform="translate(-120.953 -134.825)"/><path class="a" d="M142.166,153.018c.082.166.237.264.346.219s.13-.215.048-.381-.236-.264-.345-.219S142.083,152.852,142.166,153.018Z" transform="translate(-127.884 -132.09)"/><path class="a" d="M142.354,151.86l.343-.279S142.646,151.977,142.354,151.86Z" transform="translate(-128.068 -131.284)"/><path class="v" d="M141.777,155.943a5.433,5.433,0,0,0,1.067.878c-.135.287-.558.323-.558.323Z" transform="translate(-127.623 -134.647)"/><path class="u" d="M118.079,164.459a1.513,1.513,0,0,0,1.177.334c.512-.1.462-.711.064-1.16-.359-.4-1.058-.842-1.449-.518S117.633,164.109,118.079,164.459Z" transform="translate(-109.024 -140.089)"/><path class="a" d="M129.463,152.256a.1.1,0,0,0,.052-.063.792.792,0,0,1,.5-.562.1.1,0,0,0,.066-.13.117.117,0,0,0-.141-.07.988.988,0,0,0-.637.7.11.11,0,0,0,.082.129A.114.114,0,0,0,129.463,152.256Z" transform="translate(-118.003 -131.165)"/><path class="a" d="M141.108,148.061a.1.1,0,0,0,.063-.046.107.107,0,0,0-.044-.144,1.131,1.131,0,0,0-1-.1.1.1,0,0,0-.044.139.117.117,0,0,0,.148.051.9.9,0,0,1,.79.085A.114.114,0,0,0,141.108,148.061Z" transform="translate(-126.308 -128.293)"/><path class="a" d="M133.363,155.408l.343-.279S133.655,155.524,133.363,155.408Z" transform="translate(-121.137 -134.019)"/></g></svg>