<svg xmlns="http://www.w3.org/2000/svg" width="62.761" height="85.112" viewBox="0 0 62.761 85.112"><defs><style>.a{fill:#e87058;}.b{fill:#f27c60;}.c{fill:#a92417;}.d{fill:#fbd7b8;}.e,.g,.i,.k,.o,.t,.u,.x,.y{fill:none;}.e{stroke:#fbd7b8;}.e,.g,.i,.o,.t,.u,.x,.y{stroke-miterlimit:10;}.e,.o,.t{stroke-width:0.5px;}.f{fill:#f7e1c6;}.g{stroke:#e2b798;}.h{fill:#706959;}.i{stroke:#595245;}.i,.u,.y{stroke-width:0.75px;}.j{fill:#595245;}.k{stroke:#f7e1c6;stroke-linecap:round;stroke-linejoin:round;}.l{fill:#fff;}.m{fill:#663024;}.n{fill:#723739;}.o{stroke:#d66751;}.p{fill:#c13333;}.q{fill:#543a36;}.r{fill:#442d2a;}.s{fill:#ef5454;}.t,.u{stroke:#c13333;}.v{fill:#bd3b27;}.w{fill:#3f2c25;}.x{stroke:#3f2c25;stroke-width:0.932px;mix-blend-mode:screen;isolation:isolate;}.y{stroke:#a92417;}.z{fill:#e5877a;}</style></defs><g transform="translate(0.008)"><g transform="translate(0 0)"><g transform="translate(0 6.474)"><path class="a" d="M387.194,237.039s1.452,2.308,3.519,2.211c1.15-.138,1.552-.285,1.211-1.965s-3.141-2.07-3.141-2.07Z" transform="translate(-361.213 -202.297)"/><path class="b" d="M341.3,281.646l-7.042,1.223s.688,4.961,1.447,10.1c-1.667,4.612-.844,15.821-.709,19.256.033.842,3.01-.182,3.01-.182s2.731-18.93,2.759-19.075C341.241,290.616,341.3,281.646,341.3,281.646Z" transform="translate(-321.231 -237.369)"/><g transform="translate(13.485 73.798)"><g transform="translate(0)"><path class="c" d="M336.114,402.382v3.179c2.782.034,6.589.075,6.589.075s-.24-1.06-2.065-1.251c-.165-2.532-.179-2.023-.179-2.023Z" transform="translate(-336.114 -402.32)"/><g transform="translate(4.15 1.841)"><path class="d" d="M353.191,410.513a.111.111,0,0,1-.033-.005.112.112,0,0,1-.073-.141,1,1,0,0,1,.47-.511.112.112,0,0,1,.1.2.786.786,0,0,0-.357.378A.113.113,0,0,1,353.191,410.513Z" transform="translate(-353.079 -409.844)"/></g></g><line class="e" y1="0.016" x2="4.399" transform="translate(0 0.348)"/><line class="e" x2="6.526" y2="0.091" transform="translate(0 3.037)"/></g><g transform="translate(0.045 45.018)"><path class="b" d="M289.952,284.674a75.7,75.7,0,0,1,.277,8.8c-2.622,3.814-2.345,10.705-3.825,18.159-.164.824,2.816,1.1,2.816,1.1l6.028-17.651c.551-1.613,1.263-8.936,1.263-8.936Z" transform="translate(-285.121 -284.674)"/><g transform="translate(0 26.401)"><path class="c" d="M281.972,392.594s-.488,2.015-.8,3.131l5.44,2.564s.222-1.064-1.359-2c.9-2.372.677-1.914.677-1.914Z" transform="translate(-281.175 -392.594)"/><g transform="translate(3.593 3.549)"><path class="d" d="M295.926,407.547a.106.106,0,0,1-.027-.018.112.112,0,0,1-.008-.159,1,1,0,0,1,.639-.27.113.113,0,0,1,.009.225.783.783,0,0,0-.482.2A.112.112,0,0,1,295.926,407.547Z" transform="translate(-295.861 -407.1)"/></g><line class="e" x2="3.956" y2="1.788" transform="translate(0.724 0.298)"/><line class="e" x2="5.406" y2="2.567" transform="translate(0.055 2.931)"/></g></g><path class="f" d="M323.026,212.215c.219.219-.342,11.778,0,13.674,3.277.673,7.941.856,9.705.061.541-3.67.1-14.622.1-14.622l.037-7.087-6.317,1.71Z" transform="translate(-312.658 -178.9)"/><path class="f" d="M294.282,212.215c.219.219-.342,11.778,0,13.674,3.277.673,7.7.8,9.463,0,.541-3.67.339-14.561.339-14.561l.037-7.087-6.317,1.71Z" transform="translate(-290.945 -178.9)"/><path class="g" d="M333.315,248.151c.541-3.67.339-14.942.339-14.942" transform="translate(-320.515 -200.781)"/><path class="c" d="M319.374,163.72s4.354,1.681,7.371-.6,1.3-14.441,1.3-14.441l-4.069-1.059-1.352.2-1.448.645-2.329,1.3-.132,6.31Z" transform="translate(-309.49 -136.129)"/><path class="b" d="M328.242,132.555a2.92,2.92,0,0,0,.165,1.8c-.938,1.142-1.124,1.432-1.712,1.243s-1.855-1.508-1.773-1.733a5.464,5.464,0,0,0-.143-1.312l.239-1.1Z" transform="translate(-314.066 -123.92)"/><path class="h" d="M301.477,143.558s1.435,4.832,1.435,6.728-.452,5.688-.44,8.318-.172,8.994-.538,10.276-3.509.794-6.1-.43-.519-9.48-.519-9.48l2.212-14.7,2.507-3.929Z" transform="translate(-291.221 -130.635)"/><path class="h" d="M342.215,141.735a9.944,9.944,0,0,1,5.7,4.1c1.926,3.211,5.015,8.8,6.422,10.209s4.3,4.221,3.017,6.655-3.18,4.025-5.382,3.6-3.017-4.107-3.262-5.434-2.569-7.308-2.569-7.308L343.192,148S343.362,142.042,342.215,141.735Z" transform="translate(-327.238 -131.685)"/><path class="h" d="M347.9,151.127s.658,6.958,1.162,9.927,1.284,9.785,1.468,10.519-6.483.8-7.339.43.6-7.463.423-10.827-.695-15.574-.695-15.574V144.48S347.776,149.877,347.9,151.127Z" transform="translate(-327.768 -133.759)"/><path class="i" d="M363.278,171.65s.658,6.958,1.162,9.927,1.284,9.785,1.468,10.519" transform="translate(-343.148 -154.282)"/><path class="i" d="M305.3,155.563s1.188,4.444,1.295,5.744a36.877,36.877,0,0,1-.245,4.949c-.082.652-.3,4.76-.3,6.024s-.306,6.789-.367,7.38l0,.018a1.052,1.052,0,0,1-1.07.947,11.134,11.134,0,0,1-4.759-1.148" transform="translate(-295.241 -142.13)"/><path class="f" d="M319.65,142s-1.06,2.161.306,3.119,3.079-1.745,3.079-1.745-1.293.157-2.268-1.638A1.778,1.778,0,0,1,319.65,142Z" transform="translate(-309.897 -131.685)"/><path class="j" d="M321.78,167.273c.02.078-.122.182-.318.233s-.372.03-.392-.048.122-.182.319-.233S321.76,167.2,321.78,167.273Z" transform="translate(-311.264 -150.919)"/><ellipse class="j" cx="0.367" cy="0.145" rx="0.367" ry="0.145" transform="translate(10.247 19.714) rotate(-3.252)"/><path class="j" d="M322.829,197.285c0,.08-.156.154-.358.166s-.37-.044-.375-.124.156-.154.358-.166S322.825,197.205,322.829,197.285Z" transform="translate(-312.041 -173.551)"/><path class="j" d="M321.762,216.045c0,.08-.172.136-.375.124s-.363-.086-.358-.166.172-.136.375-.124S321.767,215.965,321.762,216.045Z" transform="translate(-311.235 -187.69)"/><path class="j" d="M320.7,234.476c0,.08-.172.136-.375.124s-.363-.086-.358-.166.173-.136.375-.124S320.7,234.4,320.7,234.476Z" transform="translate(-310.431 -201.612)"/><path class="j" d="M319.2,249.249c0,.08-.172.136-.375.124s-.363-.086-.358-.166.172-.136.375-.124S319.205,249.169,319.2,249.249Z" transform="translate(-309.3 -212.771)"/><path class="i" d="M344.153,150.5s.184,4.093.184,4.919.557,9.491.615,10.479-.462,5.606-.645,7.288a13.73,13.73,0,0,0-.114,2.678.5.5,0,0,0,.462.437,28.438,28.438,0,0,0,6.774-.339" transform="translate(-328.702 -138.305)"/><path class="f" d="M334.7,141.218s1.222,1.235,2.2.746.515-2.648-1.233-3.082A2.313,2.313,0,0,1,334.7,141.218Z" transform="translate(-321.56 -129.529)"/><path class="k" d="M332.224,148.765s-1.268,1.8-.513,2.454S332.224,148.765,332.224,148.765Z" transform="translate(-319.122 -136.995)"/><path class="k" d="M334.83,148.613s1.685,1.42,1.121,2.243S334.83,148.613,334.83,148.613Z" transform="translate(-321.659 -136.881)"/><path class="k" d="M334.736,150.5s.453,5.683-.037,6.437" transform="translate(-321.56 -138.305)"/><path class="k" d="M335.165,151.948A50.906,50.906,0,0,0,336.4,157.3" transform="translate(-321.912 -139.4)"/><path class="g" d="M298.361,245.98s.065,10.066.065,11.616" transform="translate(-294.112 -210.428)"/><path class="g" d="M300.6,245.98s.065,10.15.065,11.7" transform="translate(-295.802 -210.428)"/><g transform="translate(0 10.538)"><path class="b" d="M293.037,245.584a9.023,9.023,0,0,1,.221-1.35h-.1l-2.018-1s0,.247,0,.619l-.31.054-.025.113-.5-.1a1.014,1.014,0,0,0-.045-.1l-.241.044-.228-.044.012.083-.379.069s-.447,2.738.68,3.114c.147.482.41.85.872.841h0a1.426,1.426,0,0,0,.65.449c.39.734.97.709.856.48a7.642,7.642,0,0,1-.245-2.542c.143.962.683,1.492,1.02,1.441C293.7,247.688,292.955,246.42,293.037,245.584Z" transform="translate(-287.296 -218.889)"/><path class="h" d="M289.522,143.73s-4.4,2.1-5.463,6.34-2.2,11.185-2.854,13.707.245,4.324,2.039,5.3a5.936,5.936,0,0,0,4,.338s3.241-1.664,2.966-4.265-.927-10.249-.764-12.419" transform="translate(-280.992 -143.73)"/><path class="i" d="M290.194,196.86a5.936,5.936,0,0,0,4,.338s3.241-1.664,2.966-4.265-.927-10.249-.764-12.419" transform="translate(-287.943 -171.515)"/><path class="j" d="M288.816,246.56s-.333.99,1.471,1.2,2.737-.024,2.844-.677C292.6,247.2,290.174,247.512,288.816,246.56Z" transform="translate(-286.884 -221.404)"/></g><g transform="translate(6.698 41.527)"><path class="c" d="M312.662,270.764c-.966-.811-1.983.33-1.983.33s-.956-1.194-1.963-.435.379,2.43,1.884,3.416C312.155,273.17,313.628,271.575,312.662,270.764Z" transform="translate(-308.373 -270.406)"/></g><g transform="translate(4.096)"><g transform="translate(5.788 1.983)"><path class="b" d="M325.858,108.827a2.909,2.909,0,0,1,.537,2.507c.117.346.687.483,1.022.821.241.243-.472.778-.444.929s.269,3.386-2.869,2.371a3.826,3.826,0,0,1-1.918-1.495c-.6.024-1.24-1.733-.352-1.791a.881.881,0,0,1,.547.152,1.216,1.216,0,0,1,.194.162c-.1-.293.436-.89-.007-1.66C322.9,110.984,323.448,108.316,325.858,108.827Z" transform="translate(-321.396 -108.762)"/><path class="l" d="M336.507,129.043c.03.121-.073,1.1-.839,1.08a.816.816,0,0,1-.815-1.024A3.386,3.386,0,0,1,336.507,129.043Z" transform="translate(-331.539 -124.023)"/><g transform="translate(3.254 1.639)"><path class="m" d="M337,117.861c-.126-.157-.3-.181-.43.16-.08.214-.08.625.233.656C337.281,118.724,337.206,118.117,337,117.861Z" transform="translate(-336.078 -117.191)"/><path class="l" d="M338,118.824c-.056-.069-.134-.08-.191.071-.036.1-.036.277.1.291C338.121,119.207,338.088,118.938,338,118.824Z" transform="translate(-337.03 -117.965)"/><path class="m" d="M336,115.5a1.137,1.137,0,0,0-1.295.487c-.014.031.026.067.054.043a2.01,2.01,0,0,1,.518-.39,1.321,1.321,0,0,1,.713-.079.031.031,0,0,0,.01-.06Z" transform="translate(-334.699 -115.462)"/></g></g><path class="n" d="M302.852,105.188s-1.991-1.9-3.31,1.133c-.892,2.115-.227,3.019-1.072,3.761s-1.493,3.1,1.209,3.53,3.135-1.133,2.588-3.486A9.066,9.066,0,0,1,302.852,105.188Z" transform="translate(-297.736 -103.634)"/><path class="o" d="M325.362,133.268a3.689,3.689,0,0,0,3.158.894" transform="translate(-318.604 -125.29)"/><path class="n" d="M313.046,127.264s.4,2.718-.251,3.54a1.323,1.323,0,0,0,.935,2.139c1.055.059,4.214-.344,3.841-2.188-.178-1.324-1.544-2.38-2.1-2.819A7.419,7.419,0,0,0,313.046,127.264Z" transform="translate(-308.897 -120.754)"/><path class="n" d="M315,106.359s2.171-1.814,1.92-3.584c.95.889,1.182,1.017,1.732.87s.4-1.518-.435-2.363-2.315-.791-2.693-.112c-.462-.23-4.027.215-4.148,3.262s1.335,4.285,3.348,3.552a1.7,1.7,0,0,1-.878-1.152c-.133-.829.572-.87.82-.711A2.688,2.688,0,0,1,315,106.359Z" transform="translate(-308.037 -100.655)"/></g><path class="j" d="M385.364,233.513s2.067.533,3.486-1.962c.419-.893.213-.942.213-.942S386.729,233.331,385.364,233.513Z" transform="translate(-359.831 -198.817)"/></g><g transform="translate(26.277)"><g transform="translate(20.346 23.565)"><g transform="translate(5.389)"><path class="p" d="M499.2,182.782a1.288,1.288,0,0,0,.85-.88.5.5,0,0,0,.643.259.612.612,0,0,0,.236-.2c.022.043.041.087.064.129a2.709,2.709,0,0,0,.441.628,1.108,1.108,0,0,0,.646.341,8.56,8.56,0,0,0-.553-1.294.591.591,0,0,0,.2-.011,1.747,1.747,0,0,0,.366.2,1.235,1.235,0,0,0,1.185-.126,3.81,3.81,0,0,0-.5-.68c-.031-.032-.066-.06-.1-.089a.8.8,0,0,0,.294-.366,1.6,1.6,0,0,0,.248.035,1.524,1.524,0,0,0,1.112-.416,1.8,1.8,0,0,0-.872-.7.83.83,0,0,0-.014-.794,1.637,1.637,0,0,0-.354-.488,1.77,1.77,0,0,0,.057-.436,1.187,1.187,0,0,0,.526-.488.465.465,0,0,0,.05-.381.513.513,0,0,0-.192-.219,2.624,2.624,0,0,0-1.1-.368c-.017-.013-.032-.029-.049-.041l.016-.006a1.379,1.379,0,0,0,.656-.761.781.781,0,0,0-.593-.3,1.56,1.56,0,0,0-.394.014c.051-.058.1-.115.152-.176a.41.41,0,0,0,.1-.233.329.329,0,0,0-.134-.254.611.611,0,0,0-.264-.107,1.264,1.264,0,0,0-.177-.021c-.013-.06-.028-.12-.046-.18a2.834,2.834,0,0,0,.506-.732.183.183,0,0,0,.024-.095.211.211,0,0,0-.1-.133,3.2,3.2,0,0,0-.693-.416,1.139,1.139,0,0,0-.424-.079c.045-.059.089-.119.131-.178l.223-.312a.094.094,0,0,0,.017-.03c.013-.046-.037-.088-.081-.107a.878.878,0,0,0-.772.108c-.021.012-.039.028-.059.04a.9.9,0,0,0-.029-.32.338.338,0,0,0-.369-.276,1.409,1.409,0,0,0-.737.194,1.093,1.093,0,0,0-.448-.191h-.024l-.026-.367a.8.8,0,0,0-.049-.265.172.172,0,0,0-.091-.1.144.144,0,0,0-.074,0,.719.719,0,0,0-.362.233c-.078.079-.148.165-.22.25a3.981,3.981,0,0,0-.1-.49.152.152,0,0,0-.029-.063c-.043-.048-.115-.02-.164.012a2.454,2.454,0,0,0-.455.4.713.713,0,0,0-.277-.266.541.541,0,0,0-.5.035.712.712,0,0,0-.069.057c-.125-.258-.253-.514-.392-.765a4.74,4.74,0,0,0-.213,1.108,2.4,2.4,0,0,0,.025.428s0-.008-.007-.011a.293.293,0,0,0-.21-.08.609.609,0,0,0-.361.123,2.1,2.1,0,0,0-.535-.393.189.189,0,0,0-.114-.027.11.11,0,0,0-.047.024,1.2,1.2,0,0,0-.221-.3,4.192,4.192,0,0,0-.131,1.371,1.65,1.65,0,0,0-.336-.092.306.306,0,0,0-.115,0,.241.241,0,0,0-.154.145.782.782,0,0,0,0,.525,1.849,1.849,0,0,0,.565.885,1.314,1.314,0,0,0,.094.578l2.6,4.928a3.889,3.889,0,0,0,.507,2.286,1.551,1.551,0,0,0,.2.351,1.1,1.1,0,0,0,.348.268A1.653,1.653,0,0,0,499.2,182.782Zm.694-9.871a1.138,1.138,0,0,0-.077-.274l.245.119C500.01,172.808,499.951,172.855,499.9,172.912Z" transform="translate(-493.601 -170.517)"/></g><path class="q" d="M473.482,191.859a.254.254,0,0,0,.162-.123l2.273-3.017a6.164,6.164,0,0,0,4.146,1.373,8.794,8.794,0,0,0,4.536-1.346c-5.659-1.961-7.3-9.458-7.3-9.458-1.014.992-1.858,1.444-2.3,2.851a7.776,7.776,0,0,0-.173,4.555c-1.01-.06-2.02-.1-3.028-.111a.213.213,0,0,0-.173.05.242.242,0,0,0-.037.147,8.592,8.592,0,0,0,.263,2.706,4.476,4.476,0,0,0,1.452,2.292A.281.281,0,0,0,473.482,191.859Z" transform="translate(-471.574 -177.142)"/><g transform="translate(0.733 3.354)"><path class="r" d="M475.565,195.513a.277.277,0,0,0,.18.079.254.254,0,0,0,.162-.123l2.273-3.017a6.164,6.164,0,0,0,4.146,1.373,8.8,8.8,0,0,0,4.536-1.346c-4.24-1.47-6.224-6.046-6.952-8.249a1.53,1.53,0,0,0-.368.8c-.023.337.221.737.541.733a.264.264,0,0,0-.07.319.267.267,0,0,0,.291.15.791.791,0,0,0,.09.537.254.254,0,0,0,.073.063.522.522,0,0,0-.2.245.665.665,0,0,0,.154.672,2.36,2.36,0,0,0,.184.856.944.944,0,0,0,.632.55.494.494,0,0,0,.585-.427c.056.332.214.76.527.755a1.8,1.8,0,0,0,.162.665.569.569,0,0,0,.534.335l.571.915c.2.314.524.678.827.533a7.614,7.614,0,0,1-3.39,1.021,4.363,4.363,0,0,1-3.167-1.236l3.138-1.069a1.728,1.728,0,0,0,.588-.288,1.287,1.287,0,0,0-.9-.062,8.928,8.928,0,0,0-2.856,1.1l-.023-.014A21.014,21.014,0,0,0,480,187.5a7.146,7.146,0,0,0-2,3.086c.129-.595.248-1.193.331-1.8a3.211,3.211,0,0,0-.146-1.816,12.6,12.6,0,0,0-.685,4.19l-.036-.023a16.217,16.217,0,0,1-2.563.055c-.038.047.032.117.091.141a5.377,5.377,0,0,0,2.508-.033c0,.031,0,.061,0,.092l.173-.06a8.237,8.237,0,0,1-2.445,1.424,1.214,1.214,0,0,0-.656.618.851.851,0,0,0,.841.022,6.953,6.953,0,0,0,2.095-1.535c-.394.628-.786,1.257-1.164,1.9A6.159,6.159,0,0,0,475.565,195.513Zm2.168-4.2.023-.008-.006.019Z" transform="translate(-474.57 -184.229)"/></g><g transform="translate(7.995 4.293)"><path class="s" d="M505.983,189.9a.325.325,0,0,0,.044-.163.2.2,0,0,0,.059-.033.357.357,0,0,0,.063-.391c.007-.008.016-.012.022-.021a.336.336,0,0,0,.01-.274.636.636,0,0,0-.095-.177.435.435,0,0,0,.017-.307.4.4,0,0,0-.082-.144.348.348,0,0,0-.322-.1.4.4,0,0,0-.149.071.517.517,0,0,0-.211-.1c-.014-.015-.027-.032-.043-.046a.443.443,0,0,0-.413-.133.338.338,0,0,0-.2.343.467.467,0,0,0,.023.12.484.484,0,0,0-.324.218.505.505,0,0,0-.08.333.245.245,0,0,0-.045.117.312.312,0,0,0,.035.147.712.712,0,0,0,.461.377.311.311,0,0,0,.2.267.391.391,0,0,0,.161.025.4.4,0,0,0,.056.074.363.363,0,0,0,.282.124.294.294,0,0,0,.223-.194h.007A.32.32,0,0,0,505.983,189.9Zm-.16-.827v0c-.007,0-.015,0-.022,0S505.816,189.073,505.823,189.071Z" transform="translate(-504.256 -188.066)"/><g transform="translate(0.347 0.315)"><path class="t" d="M506.2,192.524a.254.254,0,0,0-.055.245.553.553,0,0,0,.132.222,1.489,1.489,0,0,0,.271.241" transform="translate(-506.024 -191.748)"/><path class="t" d="M507.475,193.774a.536.536,0,0,0,.342.211.449.449,0,0,0,.353-.233" transform="translate(-507.035 -192.676)"/><path class="t" d="M507.613,190.9a.573.573,0,0,1,.013-.438.381.381,0,0,1,.336-.225" transform="translate(-507.111 -190.022)"/><path class="t" d="M506.132,189.63a.724.724,0,0,0-.325.192.381.381,0,0,0-.127.323" transform="translate(-505.675 -189.562)"/><path class="t" d="M508.752,191.653a.148.148,0,0,1,.146-.055.465.465,0,0,1,.308.164.544.544,0,0,1,.125.347" transform="translate(-507.999 -191.049)"/><path class="t" d="M508.323,189.408a.148.148,0,0,1,.146-.054.463.463,0,0,1,.308.163.545.545,0,0,1,.126.347" transform="translate(-507.675 -189.352)"/><path class="t" d="M508.935,192.576a.365.365,0,0,1-.03.283" transform="translate(-508.115 -191.787)"/><path class="t" d="M508.677,194.748a.178.178,0,0,0,.177.06.456.456,0,0,0,.35-.283" transform="translate(-507.943 -193.26)"/></g></g><g transform="translate(5.885 3.243)"><path class="s" d="M496.257,185.735a.287.287,0,0,0,.16-.021.242.242,0,0,0,.059.044.307.307,0,0,0,.363-.09.184.184,0,0,0,.029.013.275.275,0,0,0,.237-.095.518.518,0,0,0,.1-.157.356.356,0,0,0,.268-.1.321.321,0,0,0,.079-.132.4.4,0,0,0-.084-.343.5.5,0,0,0-.138-.114.563.563,0,0,0-.024-.239c.005-.02.013-.038.016-.059a.5.5,0,0,0-.1-.442.341.341,0,0,0-.4-.061.369.369,0,0,0-.089.068.589.589,0,0,0-.353-.224.442.442,0,0,0-.323.051.231.231,0,0,0-.122,0,.241.241,0,0,0-.105.09.682.682,0,0,0-.079.581.274.274,0,0,0-.12.17.344.344,0,0,0,0,.125.476.476,0,0,0,.063.163.346.346,0,0,0-.033.081.4.4,0,0,0,.043.315.342.342,0,0,0,.28.138l0,.007A.4.4,0,0,0,496.257,185.735Zm.615-.468,0,0a.166.166,0,0,0-.012-.02C496.86,185.256,496.867,185.261,496.872,185.268Z" transform="translate(-495.629 -183.771)"/><g transform="translate(0.212 0.257)"><path class="t" d="M496.911,185.923a.222.222,0,0,0-.235.041.456.456,0,0,0-.119.21,1.4,1.4,0,0,0-.062.35" transform="translate(-496.495 -185.641)"/><path class="t" d="M497.523,187.5a.449.449,0,0,0,.381.651" transform="translate(-497.241 -186.846)"/><path class="t" d="M498.531,186.917a.465.465,0,0,1,.376-.155.459.459,0,0,1,.365.233" transform="translate(-498.033 -186.287)"/><path class="t" d="M499.164,185.1a.9.9,0,0,0-.331-.235.356.356,0,0,0-.339,0" transform="translate(-498.004 -184.824)"/><path class="t" d="M499.757,187.941a.187.187,0,0,1,.122.118.489.489,0,0,1,.023.355.427.427,0,0,1-.228.252" transform="translate(-498.896 -187.178)"/><path class="t" d="M501.429,186.676a.187.187,0,0,1,.122.118.49.49,0,0,1,.023.355.427.427,0,0,1-.228.252" transform="translate(-500.159 -186.223)"/><path class="t" d="M498.736,188.489a.3.3,0,0,1-.255.08" transform="translate(-497.995 -187.592)"/><path class="t" d="M496.888,189.251a.2.2,0,0,0,.042.191.536.536,0,0,0,.422.224" transform="translate(-496.784 -188.168)"/></g></g><g transform="translate(7.219 1.803)"><path class="s" d="M502.35,179.982a.288.288,0,0,0,.118-.11.206.206,0,0,0,.069,0,.315.315,0,0,0,.244-.288.224.224,0,0,0,.029-.005.293.293,0,0,0,.141-.22.6.6,0,0,0,0-.2.379.379,0,0,0,.163-.244.371.371,0,0,0-.005-.162.391.391,0,0,0-.243-.255.43.43,0,0,0-.168-.022.581.581,0,0,0-.141-.2c-.006-.02-.009-.041-.017-.061a.5.5,0,0,0-.308-.331.315.315,0,0,0-.347.174.431.431,0,0,0-.037.111.505.505,0,0,0-.4.005.441.441,0,0,0-.232.231.219.219,0,0,0-.1.072.274.274,0,0,0-.038.14.747.747,0,0,0,.235.559.319.319,0,0,0-.009.219.372.372,0,0,0,.064.11.45.45,0,0,0,.134.108.384.384,0,0,0,.015.091.4.4,0,0,0,.2.254.3.3,0,0,0,.294-.039l.005.005A.348.348,0,0,0,502.35,179.982Zm.252-.767,0,0c-.007,0-.013-.009-.02-.011S502.595,179.212,502.6,179.215Z" transform="translate(-501.084 -177.886)"/><g transform="translate(0.36 0.372)"><path class="t" d="M502.734,181.312a.224.224,0,0,0-.167.172.528.528,0,0,0,.013.253,1.555,1.555,0,0,0,.129.345" transform="translate(-502.557 -180.846)"/><path class="t" d="M503.62,182.975a.584.584,0,0,0,.207.358.471.471,0,0,0,.43,0" transform="translate(-503.36 -182.102)"/><path class="t" d="M504.276,181.1a.5.5,0,0,1,.221-.354.4.4,0,0,1,.41,0" transform="translate(-503.855 -180.374)"/><path class="t" d="M503.675,179.44a.771.771,0,0,0-.385-.017.343.343,0,0,0-.269.2" transform="translate(-502.907 -179.406)"/><path class="t" d="M505.737,181.972a.163.163,0,0,1,.158.034.512.512,0,0,1,.2.3.494.494,0,0,1-.053.353" transform="translate(-504.959 -181.337)"/><path class="t" d="M506.426,179.893a.162.162,0,0,1,.158.034.51.51,0,0,1,.2.3.5.5,0,0,1-.053.353" transform="translate(-505.479 -179.766)"/><path class="t" d="M505.123,182.768c-.032.089-.074.187-.162.217" transform="translate(-504.373 -181.946)"/><path class="t" d="M503.939,184.936a.2.2,0,0,0,.131.144.465.465,0,0,0,.451-.045" transform="translate(-503.601 -183.583)"/></g></g><g transform="translate(6.462 5.408)"><path class="s" d="M500.122,194.006a.411.411,0,0,0-.076-.179.242.242,0,0,0,.024-.075.433.433,0,0,0-.217-.4.251.251,0,0,0,0-.035.4.4,0,0,0-.178-.253.624.624,0,0,0-.194-.086.515.515,0,0,0-.2-.288.38.38,0,0,0-.161-.066.339.339,0,0,0-.319.157.5.5,0,0,0-.068.177.488.488,0,0,0-.234.07c-.022,0-.043-.008-.065-.009a.433.433,0,0,0-.413.2.438.438,0,0,0,.075.461.52.52,0,0,0,.1.09.622.622,0,0,0-.105.442.63.63,0,0,0,.163.359.314.314,0,0,0,.044.138.328.328,0,0,0,.127.1.659.659,0,0,0,.617-.014.338.338,0,0,0,.214.106.318.318,0,0,0,.126-.023.4.4,0,0,0,.144-.1.374.374,0,0,0,.094.023.344.344,0,0,0,.3-.1.382.382,0,0,0,.044-.343l.006,0A.394.394,0,0,0,500.122,194.006Zm-.687-.617,0,0c0,.007-.012.01-.016.018S499.43,193.4,499.435,193.388Z" transform="translate(-497.991 -192.624)"/><g transform="translate(0.299 0.376)"><path class="u" d="M500.794,199.313a.314.314,0,0,0,.123.261.534.534,0,0,0,.254.1,1.366,1.366,0,0,0,.376.009" transform="translate(-500.406 -198.053)"/><path class="u" d="M502.533,197.971a.5.5,0,0,0,.411-.072.574.574,0,0,0,.118-.478" transform="translate(-501.721 -196.624)"/><path class="u" d="M501.189,196.026a.672.672,0,0,1-.287-.4.486.486,0,0,1,.11-.457" transform="translate(-500.477 -194.921)"/><path class="u" d="M499.337,195.854a.921.921,0,0,0-.124.42.488.488,0,0,0,.12.386" transform="translate(-499.212 -195.44)"/><path class="u" d="M502.157,196.1a.179.179,0,0,1,.077-.16.434.434,0,0,1,.353-.089.555.555,0,0,1,.334.215" transform="translate(-501.436 -195.432)"/><path class="u" d="M500.3,194.419a.179.179,0,0,1,.077-.16.434.434,0,0,1,.352-.09.556.556,0,0,1,.334.215" transform="translate(-500.03 -194.163)"/><path class="u" d="M502.887,197.354a.437.437,0,0,1,.169.276" transform="translate(-501.988 -196.573)"/><path class="u" d="M504.557,198.323a.173.173,0,0,0,.179-.081.589.589,0,0,0,.081-.52" transform="translate(-503.249 -196.85)"/></g></g><g transform="translate(8.424 6.602)"><path class="s" d="M508.248,199.355a.433.433,0,0,0-.011-.211.244.244,0,0,0,.054-.064.466.466,0,0,0-.075-.489.291.291,0,0,0,.017-.033.435.435,0,0,0-.09-.329.749.749,0,0,0-.172-.17.563.563,0,0,0-.095-.371.46.46,0,0,0-.145-.136.389.389,0,0,0-.4.017.493.493,0,0,0-.141.147.58.58,0,0,0-.274-.032c-.022-.012-.043-.027-.065-.037a.5.5,0,0,0-.513.015.447.447,0,0,0-.1.491.607.607,0,0,0,.07.132.621.621,0,0,0-.283.393.666.666,0,0,0,.034.428.327.327,0,0,0-.007.157.382.382,0,0,0,.094.159.8.8,0,0,0,.657.254.406.406,0,0,0,.185.2.372.372,0,0,0,.142.033.442.442,0,0,0,.191-.038.453.453,0,0,0,.09.064.406.406,0,0,0,.363.028.382.382,0,0,0,.179-.322h.008A.4.4,0,0,0,508.248,199.355Zm-.487-.912,0,.006c-.008,0-.017,0-.024.011C507.747,198.455,507.753,198.448,507.761,198.443Z" transform="translate(-506.007 -197.505)"/><g transform="translate(0.309 0.282)"><path class="t" d="M508.439,203.531a.334.334,0,0,0,.029.312.65.65,0,0,0,.23.208,1.678,1.678,0,0,0,.394.172" transform="translate(-508.133 -202.339)"/><path class="t" d="M510.218,203.664a.6.6,0,0,0,.463.107.574.574,0,0,0,.31-.423" transform="translate(-509.497 -202.2)"/><path class="t" d="M509.7,200.605a.738.738,0,0,1-.148-.524.486.486,0,0,1,.294-.406" transform="translate(-508.988 -199.427)"/><path class="t" d="M507.627,199.628a.925.925,0,0,0-.294.363.506.506,0,0,0-.022.436" transform="translate(-507.271 -199.391)"/><path class="t" d="M510.9,201.281a.183.183,0,0,1,.144-.125.517.517,0,0,1,.407.064.659.659,0,0,1,.27.359" transform="translate(-510.014 -200.532)"/><path class="t" d="M509.585,198.8a.183.183,0,0,1,.144-.125.517.517,0,0,1,.407.064.659.659,0,0,1,.27.359" transform="translate(-509.019 -198.66)"/><path class="t" d="M511.489,202.494a.474.474,0,0,1,.072.348" transform="translate(-510.457 -201.556)"/><path class="t" d="M512.161,204.533a.2.2,0,0,0,.221,0,.59.59,0,0,0,.287-.481" transform="translate(-510.965 -202.73)"/></g></g><g transform="translate(10.122 4.734)"><path class="s" d="M515.335,191.836a.456.456,0,0,0-.012-.225.259.259,0,0,0,.058-.068.5.5,0,0,0-.08-.521.3.3,0,0,0,.018-.036.462.462,0,0,0-.1-.35.8.8,0,0,0-.183-.181.6.6,0,0,0-.1-.4.492.492,0,0,0-.155-.145.416.416,0,0,0-.424.018.529.529,0,0,0-.15.156.616.616,0,0,0-.292-.034c-.023-.013-.046-.028-.07-.039a.531.531,0,0,0-.546.016.476.476,0,0,0-.106.523.643.643,0,0,0,.075.141.662.662,0,0,0-.3.419.71.71,0,0,0,.036.456.351.351,0,0,0-.007.167.405.405,0,0,0,.1.169.851.851,0,0,0,.7.271.433.433,0,0,0,.2.212.4.4,0,0,0,.152.035.476.476,0,0,0,.2-.04.487.487,0,0,0,.1.068.432.432,0,0,0,.387.03.407.407,0,0,0,.191-.343h.009A.426.426,0,0,0,515.335,191.836Zm-.519-.971,0,.006c-.008,0-.018.005-.026.011C514.8,190.878,514.808,190.87,514.817,190.865Z" transform="translate(-512.949 -189.867)"/><g transform="translate(0.329 0.301)"><path class="t" d="M515.539,196.284a.355.355,0,0,0,.031.333.694.694,0,0,0,.246.221,1.779,1.779,0,0,0,.42.183" transform="translate(-515.213 -195.015)"/><path class="t" d="M517.434,196.425a.638.638,0,0,0,.492.114.611.611,0,0,0,.33-.451" transform="translate(-516.666 -194.867)"/><path class="t" d="M516.879,193.168a.787.787,0,0,1-.158-.558.518.518,0,0,1,.313-.433" transform="translate(-516.124 -191.913)"/><path class="t" d="M514.674,192.128a.983.983,0,0,0-.313.387.539.539,0,0,0-.023.464" transform="translate(-514.294 -191.876)"/><path class="t" d="M518.162,193.887a.2.2,0,0,1,.153-.134.551.551,0,0,1,.434.069.7.7,0,0,1,.287.382" transform="translate(-517.216 -193.09)"/><path class="t" d="M516.76,191.247a.2.2,0,0,1,.153-.134.551.551,0,0,1,.434.069.7.7,0,0,1,.287.382" transform="translate(-516.157 -191.096)"/><path class="t" d="M518.788,195.18a.5.5,0,0,1,.076.37" transform="translate(-517.689 -194.181)"/><path class="t" d="M519.5,197.35a.214.214,0,0,0,.235,0,.63.63,0,0,0,.306-.513" transform="translate(-518.229 -195.43)"/></g></g><g transform="translate(9.605 2.847)"><path class="s" d="M512.676,183.674a.355.355,0,0,0-.009-.173.2.2,0,0,0,.044-.053.382.382,0,0,0-.062-.4.2.2,0,0,0,.014-.027.356.356,0,0,0-.074-.27.612.612,0,0,0-.141-.139.465.465,0,0,0-.078-.3.375.375,0,0,0-.119-.111.32.32,0,0,0-.327.014.411.411,0,0,0-.116.12.472.472,0,0,0-.225-.026c-.018-.01-.035-.022-.054-.03a.409.409,0,0,0-.421.012.367.367,0,0,0-.081.4.5.5,0,0,0,.058.109.509.509,0,0,0-.232.323.547.547,0,0,0,.028.351.271.271,0,0,0-.006.129.311.311,0,0,0,.078.13.657.657,0,0,0,.54.209.334.334,0,0,0,.152.163.311.311,0,0,0,.117.027.367.367,0,0,0,.157-.031.374.374,0,0,0,.074.052.333.333,0,0,0,.3.023.314.314,0,0,0,.147-.265h.007A.329.329,0,0,0,512.676,183.674Zm-.4-.749,0,0c-.006,0-.014,0-.02.009A.19.19,0,0,0,512.276,182.925Z" transform="translate(-510.837 -182.155)"/><g transform="translate(0.254 0.232)"><path class="t" d="M512.833,187.1a.273.273,0,0,0,.024.256.534.534,0,0,0,.189.171,1.367,1.367,0,0,0,.324.141" transform="translate(-512.582 -186.124)"/><path class="t" d="M514.294,187.211a.49.49,0,0,0,.379.088.471.471,0,0,0,.254-.348" transform="translate(-513.702 -186.01)"/><path class="t" d="M513.866,184.7a.608.608,0,0,1-.122-.43.4.4,0,0,1,.241-.334" transform="translate(-513.284 -183.732)"/><path class="t" d="M512.167,183.9a.757.757,0,0,0-.241.3.415.415,0,0,0-.018.358" transform="translate(-511.874 -183.704)"/><path class="t" d="M514.855,185.255a.15.15,0,0,1,.118-.1.424.424,0,0,1,.334.053.542.542,0,0,1,.222.294" transform="translate(-514.126 -184.64)"/><path class="t" d="M513.774,183.22a.15.15,0,0,1,.118-.1.424.424,0,0,1,.334.053.541.541,0,0,1,.222.294" transform="translate(-513.309 -183.103)"/><path class="t" d="M515.337,186.251a.389.389,0,0,1,.059.285" transform="translate(-514.49 -185.481)"/><path class="t" d="M515.888,187.924a.165.165,0,0,0,.181,0,.484.484,0,0,0,.236-.4" transform="translate(-514.906 -186.444)"/></g></g><g transform="translate(12.279 8.919)"><path class="s" d="M523.606,208.494a.357.357,0,0,0-.009-.173.2.2,0,0,0,.044-.053.381.381,0,0,0-.062-.4.2.2,0,0,0,.014-.028.356.356,0,0,0-.074-.27.614.614,0,0,0-.141-.139.464.464,0,0,0-.078-.3.378.378,0,0,0-.119-.112.321.321,0,0,0-.327.014.412.412,0,0,0-.115.12.475.475,0,0,0-.225-.027c-.018-.01-.035-.022-.054-.03a.409.409,0,0,0-.421.012.366.366,0,0,0-.081.4.5.5,0,0,0,.058.109.509.509,0,0,0-.232.323.547.547,0,0,0,.028.351.269.269,0,0,0-.006.129.311.311,0,0,0,.078.13.656.656,0,0,0,.54.209.334.334,0,0,0,.152.163.306.306,0,0,0,.117.027.361.361,0,0,0,.156-.031.382.382,0,0,0,.074.052.333.333,0,0,0,.3.023.313.313,0,0,0,.147-.264h.007A.328.328,0,0,0,523.606,208.494Zm-.4-.749v0c-.006,0-.014,0-.02.009S523.2,207.75,523.206,207.746Z" transform="translate(-521.767 -206.976)"/><g transform="translate(0.254 0.232)"><path class="t" d="M523.763,211.922a.274.274,0,0,0,.024.257.532.532,0,0,0,.189.17,1.368,1.368,0,0,0,.324.142" transform="translate(-523.512 -210.944)"/><path class="t" d="M525.224,212.031a.49.49,0,0,0,.379.088.47.47,0,0,0,.254-.348" transform="translate(-524.632 -210.83)"/><path class="t" d="M524.8,209.521a.608.608,0,0,1-.122-.43.4.4,0,0,1,.241-.333" transform="translate(-524.214 -208.553)"/><path class="t" d="M523.1,208.719a.758.758,0,0,0-.242.3.416.416,0,0,0-.018.358" transform="translate(-522.804 -208.524)"/><path class="t" d="M525.785,210.076a.149.149,0,0,1,.118-.1.425.425,0,0,1,.334.053.542.542,0,0,1,.222.294" transform="translate(-525.056 -209.461)"/><path class="t" d="M524.7,208.041a.15.15,0,0,1,.118-.1.425.425,0,0,1,.334.053.539.539,0,0,1,.222.294" transform="translate(-524.239 -207.924)"/><path class="t" d="M526.267,211.071a.39.39,0,0,1,.059.285" transform="translate(-525.42 -210.301)"/><path class="t" d="M526.818,212.745a.164.164,0,0,0,.181,0,.484.484,0,0,0,.236-.4" transform="translate(-525.836 -211.265)"/></g></g><g transform="translate(9.961 0.856)"><path class="s" d="M514.13,175.534a.356.356,0,0,0-.009-.173.2.2,0,0,0,.044-.053.383.383,0,0,0-.062-.4.178.178,0,0,0,.013-.027.356.356,0,0,0-.074-.27.614.614,0,0,0-.141-.139.463.463,0,0,0-.078-.3.385.385,0,0,0-.119-.111.321.321,0,0,0-.327.014.41.41,0,0,0-.116.12.477.477,0,0,0-.225-.026c-.018-.01-.035-.022-.054-.03a.409.409,0,0,0-.42.012.367.367,0,0,0-.082.4.488.488,0,0,0,.058.109.509.509,0,0,0-.232.323.547.547,0,0,0,.028.351.27.27,0,0,0-.006.129.314.314,0,0,0,.078.13.656.656,0,0,0,.54.209.334.334,0,0,0,.152.163.307.307,0,0,0,.117.027.16.16,0,0,1,.231.022.333.333,0,0,0,.3.023.314.314,0,0,0,.147-.264h.007A.329.329,0,0,0,514.13,175.534Zm-.4-.749,0,0c-.006,0-.014,0-.02.009S513.724,174.79,513.73,174.786Z" transform="translate(-512.291 -174.016)"/><g transform="translate(0.254 0.232)"><path class="t" d="M514.288,178.962a.274.274,0,0,0,.024.257.532.532,0,0,0,.189.17,1.372,1.372,0,0,0,.324.142" transform="translate(-514.036 -177.984)"/><path class="t" d="M515.748,179.071a.49.49,0,0,0,.38.088.471.471,0,0,0,.254-.348" transform="translate(-515.156 -177.87)"/><path class="t" d="M515.32,176.561a.607.607,0,0,1-.122-.43.4.4,0,0,1,.241-.333" transform="translate(-514.738 -175.593)"/><path class="t" d="M513.621,175.759a.754.754,0,0,0-.241.3.416.416,0,0,0-.018.358" transform="translate(-513.328 -175.564)"/><path class="t" d="M516.309,177.115a.15.15,0,0,1,.118-.1.424.424,0,0,1,.334.053.54.54,0,0,1,.222.294" transform="translate(-515.58 -176.5)"/><path class="t" d="M515.228,175.08a.15.15,0,0,1,.118-.1.425.425,0,0,1,.334.053.54.54,0,0,1,.222.294" transform="translate(-514.763 -174.964)"/><path class="t" d="M516.791,178.111a.39.39,0,0,1,.059.285" transform="translate(-515.944 -177.341)"/><path class="t" d="M517.342,179.784a.164.164,0,0,0,.182,0,.485.485,0,0,0,.236-.4" transform="translate(-516.36 -178.304)"/></g></g><g transform="translate(11.727 2.839)"><path class="s" d="M521.35,183.639a.354.354,0,0,0-.009-.173.2.2,0,0,0,.044-.053.383.383,0,0,0-.062-.4.207.207,0,0,0,.014-.028.357.357,0,0,0-.074-.27.618.618,0,0,0-.141-.139.462.462,0,0,0-.078-.3.38.38,0,0,0-.119-.112.32.32,0,0,0-.327.014.4.4,0,0,0-.116.12.476.476,0,0,0-.225-.027c-.018-.01-.035-.022-.054-.03a.409.409,0,0,0-.42.012.367.367,0,0,0-.082.4.49.49,0,0,0,.058.108.511.511,0,0,0-.232.323.546.546,0,0,0,.028.351.268.268,0,0,0-.006.129.316.316,0,0,0,.078.13.657.657,0,0,0,.539.209.332.332,0,0,0,.152.163.306.306,0,0,0,.117.027.361.361,0,0,0,.157-.031.383.383,0,0,0,.074.052.334.334,0,0,0,.3.023.314.314,0,0,0,.147-.265h.007A.328.328,0,0,0,521.35,183.639Zm-.4-.749v0c-.006,0-.014,0-.02.009S520.944,182.895,520.951,182.891Z" transform="translate(-519.511 -182.121)"/><g transform="translate(0.254 0.232)"><path class="t" d="M521.508,187.067a.274.274,0,0,0,.024.257.535.535,0,0,0,.189.171,1.375,1.375,0,0,0,.324.141" transform="translate(-521.256 -186.089)"/><path class="t" d="M522.968,187.177a.491.491,0,0,0,.38.088.472.472,0,0,0,.254-.347" transform="translate(-522.376 -185.976)"/><path class="t" d="M522.54,184.665a.606.606,0,0,1-.122-.43.4.4,0,0,1,.241-.334" transform="translate(-521.958 -183.698)"/><path class="t" d="M520.841,183.864a.76.76,0,0,0-.241.3.415.415,0,0,0-.018.358" transform="translate(-520.548 -183.669)"/><path class="t" d="M523.529,185.221a.151.151,0,0,1,.118-.1.426.426,0,0,1,.334.053.54.54,0,0,1,.221.294" transform="translate(-522.8 -184.606)"/><path class="t" d="M522.449,183.186a.15.15,0,0,1,.118-.1.426.426,0,0,1,.334.053.54.54,0,0,1,.221.294" transform="translate(-521.984 -183.069)"/><path class="t" d="M524.011,186.216a.389.389,0,0,1,.059.285" transform="translate(-523.164 -185.446)"/><path class="t" d="M524.563,187.89a.165.165,0,0,0,.181,0,.484.484,0,0,0,.236-.4" transform="translate(-523.581 -186.41)"/></g></g><g transform="translate(11.119 7.194)"><path class="s" d="M518.824,200.555a.335.335,0,0,0-.127-.1.243.243,0,0,0-.014-.069.346.346,0,0,0-.316-.207.244.244,0,0,0-.012-.028.307.307,0,0,0-.229-.114.464.464,0,0,0-.172.023.4.4,0,0,0-.256-.133.288.288,0,0,0-.141.023.313.313,0,0,0-.161.268.486.486,0,0,0,.025.169.435.435,0,0,0-.137.162c-.016.008-.033.014-.049.023a.4.4,0,0,0-.211.342.377.377,0,0,0,.349.345.6.6,0,0,0,.107.39.51.51,0,0,0,.263.2.263.263,0,0,0,.088.087.246.246,0,0,0,.133.022.543.543,0,0,0,.429-.3.254.254,0,0,0,.194-.016.266.266,0,0,0,.08-.076.382.382,0,0,0,.06-.144.285.285,0,0,0,.076-.025.308.308,0,0,0,.172-.222.358.358,0,0,0-.11-.285l0-.006A.384.384,0,0,0,518.824,200.555Zm-.738-.161,0,0a.2.2,0,0,0,0,.021C518.088,200.41,518.086,200.4,518.087,200.395Z" transform="translate(-517.024 -199.923)"/><g transform="translate(0.354 0.357)"><path class="t" d="M520.645,205.836a.254.254,0,0,0,.194.145.4.4,0,0,0,.219-.042,1.1,1.1,0,0,0,.269-.166" transform="translate(-520.113 -204.699)"/><path class="t" d="M522.016,203.443a.428.428,0,0,0,.26-.245.549.549,0,0,0-.113-.423" transform="translate(-521.148 -202.433)"/><path class="t" d="M519.811,203.131a.519.519,0,0,1-.367-.178.463.463,0,0,1-.11-.4" transform="translate(-519.113 -202.263)"/><path class="t" d="M518.47,203.852a.9.9,0,0,0,.084.382.409.409,0,0,0,.243.243" transform="translate(-518.47 -203.247)"/><path class="t" d="M520.539,202.241a.175.175,0,0,1-.011-.159.38.38,0,0,1,.212-.231.415.415,0,0,1,.323.012" transform="translate(-520.014 -201.715)"/><path class="t" d="M518.537,201.8a.175.175,0,0,1-.011-.159.381.381,0,0,1,.212-.232.415.415,0,0,1,.323.012" transform="translate(-518.502 -201.381)"/><path class="t" d="M521.316,203.554a.344.344,0,0,1,.232.136" transform="translate(-520.62 -203.022)"/><path class="t" d="M523.459,203.163c.057-.015.085-.081.093-.146a.556.556,0,0,0-.156-.44" transform="translate(-522.191 -202.285)"/></g></g><g transform="translate(12.711 6.142)"><path class="s" d="M525.332,196.255a.333.333,0,0,0-.127-.1.241.241,0,0,0-.014-.069.347.347,0,0,0-.316-.207.225.225,0,0,0-.012-.028.306.306,0,0,0-.229-.114.463.463,0,0,0-.172.023.4.4,0,0,0-.256-.133.287.287,0,0,0-.141.023.312.312,0,0,0-.161.268.486.486,0,0,0,.025.169.434.434,0,0,0-.136.162c-.016.008-.034.014-.049.023a.4.4,0,0,0-.211.342.381.381,0,0,0,.242.322.39.39,0,0,0,.107.023.6.6,0,0,0,.107.39.509.509,0,0,0,.263.2.264.264,0,0,0,.088.087.246.246,0,0,0,.133.022.543.543,0,0,0,.429-.3.254.254,0,0,0,.194-.016.266.266,0,0,0,.08-.076.385.385,0,0,0,.06-.144.3.3,0,0,0,.076-.025.309.309,0,0,0,.172-.222.357.357,0,0,0-.11-.285l0-.006A.384.384,0,0,0,525.332,196.255Zm-.738-.161,0,0a.2.2,0,0,0,0,.021C524.6,196.11,524.594,196.1,524.595,196.095Z" transform="translate(-523.532 -195.623)"/><g transform="translate(0.354 0.356)"><path class="t" d="M527.153,201.535a.253.253,0,0,0,.194.145.4.4,0,0,0,.219-.041,1.1,1.1,0,0,0,.269-.167" transform="translate(-526.621 -200.398)"/><path class="t" d="M528.523,199.142a.428.428,0,0,0,.261-.245.551.551,0,0,0-.113-.424" transform="translate(-527.656 -198.132)"/><path class="t" d="M526.318,198.831a.52.52,0,0,1-.367-.178.464.464,0,0,1-.11-.4" transform="translate(-525.621 -197.963)"/><path class="t" d="M524.978,199.552a.9.9,0,0,0,.084.382.409.409,0,0,0,.243.243" transform="translate(-524.978 -198.947)"/><path class="t" d="M527.047,197.94a.175.175,0,0,1-.011-.159.38.38,0,0,1,.212-.231.413.413,0,0,1,.323.012" transform="translate(-526.522 -197.414)"/><path class="t" d="M525.045,197.5a.174.174,0,0,1-.011-.159.38.38,0,0,1,.212-.231.416.416,0,0,1,.324.012" transform="translate(-525.01 -197.081)"/><path class="t" d="M527.824,199.254a.344.344,0,0,1,.232.136" transform="translate(-527.128 -198.722)"/><path class="t" d="M529.967,198.863c.057-.015.085-.081.093-.145a.556.556,0,0,0-.156-.44" transform="translate(-528.699 -197.985)"/></g></g><g transform="translate(9.757 8.8)"><path class="s" d="M513.556,207.226a.392.392,0,0,0-.148-.12.278.278,0,0,0-.016-.08.4.4,0,0,0-.368-.242.271.271,0,0,0-.014-.033.358.358,0,0,0-.267-.132.537.537,0,0,0-.2.027.467.467,0,0,0-.3-.155.336.336,0,0,0-.164.027.365.365,0,0,0-.188.313.565.565,0,0,0,.029.2.5.5,0,0,0-.159.189c-.019.009-.039.016-.057.027a.463.463,0,0,0-.246.4.445.445,0,0,0,.282.375.457.457,0,0,0,.125.027.693.693,0,0,0,.125.455.591.591,0,0,0,.306.236.308.308,0,0,0,.1.1.286.286,0,0,0,.154.025.631.631,0,0,0,.5-.344.3.3,0,0,0,.227-.019.316.316,0,0,0,.093-.088.45.45,0,0,0,.07-.168.323.323,0,0,0,.088-.029.36.36,0,0,0,.2-.258.418.418,0,0,0-.128-.333l0-.007A.448.448,0,0,0,513.556,207.226Zm-.86-.187,0,0c0,.009-.005.016,0,.025C512.7,207.057,512.7,207.048,512.7,207.039Z" transform="translate(-511.458 -206.49)"/><g transform="translate(0.412 0.415)"><path class="t" d="M515.678,213.38a.3.3,0,0,0,.226.169.469.469,0,0,0,.255-.048,1.292,1.292,0,0,0,.313-.194" transform="translate(-515.058 -212.054)"/><path class="t" d="M517.275,210.591a.5.5,0,0,0,.3-.286.64.64,0,0,0-.131-.494" transform="translate(-516.264 -209.414)"/><path class="t" d="M514.706,210.229a.606.606,0,0,1-.428-.207.54.54,0,0,1-.128-.471" transform="translate(-513.893 -209.217)"/><path class="t" d="M513.144,211.068a1.042,1.042,0,0,0,.1.445.476.476,0,0,0,.283.283" transform="translate(-513.144 -210.364)"/><path class="t" d="M515.554,209.19a.2.2,0,0,1-.013-.185.442.442,0,0,1,.247-.27.483.483,0,0,1,.377.014" transform="translate(-514.943 -208.577)"/><path class="t" d="M513.221,208.676a.2.2,0,0,1-.013-.186.444.444,0,0,1,.247-.27.484.484,0,0,1,.377.014" transform="translate(-513.18 -208.188)"/><path class="t" d="M516.46,210.721a.4.4,0,0,1,.271.158" transform="translate(-515.649 -210.101)"/><path class="t" d="M518.956,210.265c.067-.017.1-.094.108-.17a.648.648,0,0,0-.182-.512" transform="translate(-517.479 -209.242)"/></g></g></g><g transform="translate(4.813 36.966)"><g transform="translate(17.502 35.813)"><path class="b" d="M479.621,374.365l2.35,4.3,3.619-1.607-2.248-5.361Z" transform="translate(-479.621 -371.691)"/><g transform="translate(0.811 4.609)"><path class="v" d="M488.7,390.53s.926,2.125,1.854,3.766c-3.223,1.7-7.595,3.957-7.595,3.957s-.353-1.379,1.66-2.69c-1.318-3.05-1-2.465-1-2.465Z" transform="translate(-482.936 -390.53)"/><g transform="translate(1.294 4.847)"><path class="d" d="M489.188,410.891a.136.136,0,0,0,.034-.025.147.147,0,0,0,0-.208,1.315,1.315,0,0,0-.852-.316.147.147,0,0,0,0,.295,1.03,1.03,0,0,1,.642.228A.147.147,0,0,0,489.188,410.891Z" transform="translate(-488.226 -410.342)"/></g></g><g transform="translate(0.784 8.015)"><rect class="d" width="8.451" height="0.114" transform="matrix(0.881, -0.473, 0.473, 0.881, 0, 3.996)"/></g><g transform="translate(1.57 4.913)"><path class="d" d="M486.087,394.422l5.138-2.545-.051-.1-5.138,2.545Z" transform="translate(-486.037 -391.775)"/></g><g transform="translate(6.414 5.072)"><path class="d" d="M507.324,395.607l.1-.049-1.486-3.133-.1.049Z" transform="translate(-505.838 -392.425)"/></g><g transform="translate(6.056 6.614)"><path class="d" d="M504.491,401.287l.108-.036a2.132,2.132,0,0,1,.958-2.426l-.058-.1A2.249,2.249,0,0,0,504.491,401.287Z" transform="translate(-504.377 -398.727)"/></g></g><path class="w" d="M433.563,237.272s.918,11.766,3.411,18.412,7.314,17.414,7.314,17.414a15.152,15.152,0,0,0,7.157-3.365c-2.222-5.33-7.039-16.25-7.374-21.049s-.213-15.586-.213-15.586l-10.207.705Z" transform="translate(-427.329 -231.19)"/><g transform="translate(0 38.133)"><path class="b" d="M423.548,381.8l.066,4.9,3.951.274.523-5.79Z" transform="translate(-419.764 -381.176)"/><g transform="translate(0 5.246)"><path class="v" d="M416.768,402.783s-.176,2.312-.125,4.2c-3.644-.007-8.564-.058-8.564-.058s.334-1.384,2.726-1.6c.264-3.312.272-2.645.272-2.645Z" transform="translate(-408.08 -402.621)"/><g transform="translate(2.383 2.404)"><path class="d" d="M418.5,413.333a.137.137,0,0,0,.043-.006.147.147,0,0,0,.1-.183,1.314,1.314,0,0,0-.605-.678.147.147,0,0,0-.137.261,1.027,1.027,0,0,1,.46.5A.147.147,0,0,0,418.5,413.333Z" transform="translate(-417.822 -412.448)"/></g></g><g transform="translate(0.106 9.193)"><rect class="d" width="8.451" height="0.114" transform="translate(0 0.046) rotate(-0.311)"/></g><g transform="translate(2.928 5.583)"><rect class="d" width="0.114" height="5.734" transform="matrix(0.027, -1, 1, 0.027, 0, 0.114)"/></g><g transform="translate(8.152 5.786)"><rect class="d" width="3.467" height="0.114" transform="translate(0 3.464) rotate(-87.46)"/></g><g transform="translate(6.193 7.463)"><path class="d" d="M433.508,413.494a2.1,2.1,0,0,1,1.983-1.7l0-.114a2.248,2.248,0,0,0-2.09,1.79Z" transform="translate(-433.395 -411.685)"/></g></g><path class="w" d="M417.584,243.044,418.4,268.1l-7.7.241s-2.673-37.31-.9-41.533,5.946,1.734,5.946,1.734Z" transform="translate(-408.921 -225.299)"/><path class="x" d="M470.889,243.774s-.4,12.157.432,15.372a184.52,184.52,0,0,0,7.234,19.469" transform="translate(-455.451 -239.254)"/><path class="x" d="M481.523,382.644s-3.951,2.193-6.283,2.226" transform="translate(-458.81 -344.152)"/><path class="x" d="M435.489,253.806c-.019,6.558,1.384,14.178,3.51,19.01" transform="translate(-428.784 -246.832)"/></g><path class="b" d="M395.177,232.957a9.011,9.011,0,0,1,.466-1.287l-.1-.019-1.8-1.357s-.045.243-.11.609l-.315,0-.045.107-.475-.187a1,1,0,0,0-.026-.1h-.245l-.216-.085,0,.083h-.2s-2.171,2.858-.645,3.9c.056.5.855.423.855.423.065.367.884.518.952.2,0,.539,1.268.348,1.2.1a2.344,2.344,0,0,1-.209-1.805c-.036.972.4,1.592.738,1.6C395.446,235.148,394.943,233.763,395.177,232.957Z" transform="translate(-390.304 -192.106)"/><path class="v" d="M399.374,115.764s-5.438,1.384-6.727,5.223c-1.508,4.491-4.037,22.431-4.24,23.124a10.186,10.186,0,0,0,6.564,1.182c1.223-1.182,3.56-18.2,3.56-18.2l2.4-9.456Z" transform="translate(-388.406 -105.594)"/><path class="v" d="M417.874,112.889s5.952,1.471,7.574,3.236c2.976,3.239,5.056,12.539,5.219,14.692s-3.1,6.944-4.159,8.055a36.782,36.782,0,0,1,.734,6.926,25.414,25.414,0,0,0-6.687,0c-2.446.545-10.823,0-12.475-.773,0-2.757.9-9.39.9-9.39L414.439,116l1.355-1.655Z" transform="translate(-403.267 -103.422)"/><g transform="translate(5.082)"><path class="b" d="M434.451,104.351s.624,1.661,1.572,2.089a2.978,2.978,0,0,1-2.691,2.576c-1.376.056-1.22-1.665-1.22-1.665s.225.231.012-.33S434.451,104.351,434.451,104.351Z" transform="translate(-426.498 -96.973)"/><g transform="translate(1.968 3.44)"><path class="b" d="M417.356,88.793a3.119,3.119,0,0,0,.58,2.688c.039.39-.459.775-.637,1.253-.128.344.8.553.844.713s1.23,3.429,3.851,1.054a4.1,4.1,0,0,0,1.217-2.308c.593-.239.448-2.241-.446-1.906a.944.944,0,0,0-.468.39,1.3,1.3,0,0,0-.118.244c-.027-.332-.819-.679-.725-1.626C421.2,89.6,419.487,87.231,417.356,88.793Z" transform="translate(-417.225 -88.256)"/><path class="l" d="M424.668,109.046c.024.132.556,1.041,1.3.686a.875.875,0,0,0,.345-1.361A3.63,3.63,0,0,0,424.668,109.046Z" transform="translate(-422.847 -103.44)"/><g transform="translate(0.742 1.852)"><path class="m" d="M422.881,98.284c.055-.209.216-.31.491-.033.173.174.354.575.061.744C422.986,99.252,422.792,98.625,422.881,98.284Z" transform="translate(-422.224 -97.53)"/><path class="l" d="M423.082,99.468c.024-.092.1-.137.218-.014.077.077.157.255.027.33C423.128,99.9,423.042,99.619,423.082,99.468Z" transform="translate(-422.384 -98.509)"/><path class="m" d="M420.272,96.131a1.219,1.219,0,0,1,1.481-.095c.027.024,0,.077-.034.066a2.149,2.149,0,0,0-.679-.153,1.417,1.417,0,0,0-.732.237c-.037.023-.068-.028-.036-.055Z" transform="translate(-420.259 -95.825)"/></g></g><path class="n" d="M410.672,76.379A1.556,1.556,0,0,0,409.3,78.52c.612,1.927,4.292.612,5.51.275.3.52.761,1.384,1.3,1.5a.86.86,0,0,1,.96-.629c.482.055.508,1.732.072,1.9-.121.488,1.337.486,1.7-.248s1.366-5.8-2-6.717C416.595,74.3,412.5,73.26,410.672,76.379Z" transform="translate(-409.179 -74.192)"/><path class="o" d="M432.536,109.821a3.441,3.441,0,0,0,2.018-2.2" transform="translate(-426.822 -99.443)"/></g><path class="y" d="M408.08,171.089s.777-14.888,1.588-23.7" transform="translate(-403.267 -129.486)"/><path class="y" d="M472.989,151.854s2,12.7,2.548,16.451" transform="translate(-452.297 -132.855)"/><g transform="translate(10.546 18.995)"><path class="f" d="M437.36,152.177c-1.4-1.03-2.7.627-2.7.627s-1.417-1.557-2.735-.426.733,3.306,2.887,4.528C436.874,155.528,438.758,153.207,437.36,152.177Z" transform="translate(-431.514 -151.839)"/></g><path class="y" d="M408.392,240.383a38.665,38.665,0,0,0,7.811.939c3.221-.1,5.035-.569,6.85-.529s4.408.348,4.408.348" transform="translate(-403.503 -199.727)"/><line class="y" y2="1.027" transform="translate(6.604 40.948)"/><line class="y" y2="1.098" transform="translate(8.093 41.139)"/><line class="y" y2="0.979" transform="translate(9.622 41.441)"/><line class="y" y2="0.979" transform="translate(11.274 41.555)"/><line class="y" y2="0.979" transform="translate(12.996 41.636)"/><line class="y" y2="1.155" transform="translate(14.923 41.46)"/><line class="y" y2="1.155" transform="translate(16.86 41.265)"/><line class="y" y2="1.155" transform="translate(18.603 41.058)"/><line class="y" y2="0.994" transform="translate(20.427 41.139)"/><line class="y" y2="0.994" transform="translate(22.262 41.22)"/></g></g><g transform="translate(19.973 3.368)"><path class="z" d="M375.385,100.115c-.375-.332-.791.111-.791.111s-.367-.484-.775-.193.125.969.713,1.376C375.159,101.066,375.761,100.448,375.385,100.115Z" transform="translate(-370.975 -97.009)"/><path class="z" d="M363.613,92.9c-.285-.122-.443.219-.443.219s-.31-.213-.493.038.263.545.687.669C363.666,93.5,363.9,93.022,363.613,92.9Z" transform="translate(-362.635 -91.672)"/><path class="z" d="M386.553,88.375c-.173-.3-.543-.1-.543-.1s-.135-.4-.466-.3-.131.663.165,1.059C386.2,88.949,386.726,88.675,386.553,88.375Z" transform="translate(-379.81 -87.961)"/></g></g></svg>