<svg xmlns="http://www.w3.org/2000/svg" width="14.596" height="10.754" viewBox="0 0 14.596 10.754"><defs><style>.a{fill:#495057;}</style></defs><g transform="translate(-278.001 -1338.921)"><path class="a" d="M.269,10.614a.251.251,0,0,1-.251-.251V5.045A4.392,4.392,0,0,1,.691,2.29,8.82,8.82,0,0,1,3.565.058.364.364,0,0,1,3.733.017.219.219,0,0,1,3.861.09l.683.986a.318.318,0,0,1,.1.186c0,.092,0,.087-.1.18a8.628,8.628,0,0,0-1.8,1.779,2.11,2.11,0,0,0-.3,1.258H5.348a.251.251,0,0,1,.251.251v5.632a.251.251,0,0,1-.251.251Z" transform="translate(292.599 1349.693) rotate(180)"/><path class="a" d="M.269,10.614a.251.251,0,0,1-.251-.251V5.045A4.392,4.392,0,0,1,.691,2.29,8.82,8.82,0,0,1,3.565.058.364.364,0,0,1,3.733.017.219.219,0,0,1,3.861.09l.683.986a.318.318,0,0,1,.1.186c0,.092,0,.087-.1.18a8.628,8.628,0,0,0-1.8,1.779,2.11,2.11,0,0,0-.3,1.258H5.348a.251.251,0,0,1,.251.251v5.632a.251.251,0,0,1-.251.251Z" transform="translate(283.6 1349.536) rotate(180)"/></g></svg>