<svg xmlns="http://www.w3.org/2000/svg" width="260.303" height="225.159" viewBox="0 0 260.303 225.159"><defs><style>.a{fill:#f5f5f5;}.b{fill:#fafafa;}.c{fill:#ebebeb;}.d{fill:#f0f0f0;}.e{fill:#e87058;}.f{fill:#f27c60;}.g{fill:#a92417;}.h{fill:#fbd7b8;}.ab,.ac,.i,.k,.m,.o,.s,.x,.y{fill:none;}.i{stroke:#fbd7b8;}.ab,.ac,.i,.k,.m,.s,.x,.y{stroke-miterlimit:10;}.i,.s,.x{stroke-width:0.5px;}.j{fill:#f7e1c6;}.k{stroke:#e2b798;}.l{fill:#706959;}.m{stroke:#595245;}.ac,.m,.y{stroke-width:0.75px;}.n{fill:#595245;}.o{stroke:#f7e1c6;stroke-linecap:round;stroke-linejoin:round;}.ar,.as,.p{fill:#fff;}.q{fill:#663024;}.r{fill:#723739;}.s{stroke:#d66751;}.t{fill:#c13333;}.u{fill:#543a36;}.v{fill:#442d2a;}.w{fill:#ef5454;}.x,.y{stroke:#c13333;}.z{fill:#bd3b27;}.aa{fill:#3f2c25;}.ab{stroke:#3f2c25;stroke-width:0.932px;mix-blend-mode:screen;isolation:isolate;}.ac{stroke:#a92417;}.ad{fill:#e5877a;}.ae,.au{fill:#263238;}.af{fill:#8b726a;}.ag{fill:#407bff;}.ah{fill:#695584;}.ah,.ai{opacity:0.4;}.ai{fill:#3e54a4;}.aj{fill:#ffdbbb;}.ak{fill:#eef2fc;}.al{fill:#ffb573;}.am{fill:#ffb7a4;}.an{fill:#c28d6a;}.ao{fill:#582f0c;}.ap{opacity:0.2;}.aq{fill:#4962bd;}.ar{opacity:0.7;}.as,.at{opacity:0.3;}.au{fill-rule:evenodd;}.av{fill:#fef1e9;}.aw{fill:#f2f6ff;}.ax{fill:#ffdaba;}.ay{fill:#ed893e;}</style></defs><g transform="translate(-78.81 -858)"><ellipse class="a" cx="19.127" cy="3.808" rx="19.127" ry="3.808" transform="translate(86.772 1044.695)"/><ellipse class="a" cx="23.113" cy="4.601" rx="23.113" ry="4.601" transform="translate(127.417 1044.695)"/><ellipse class="a" cx="54.998" cy="5.821" rx="54.998" ry="5.821" transform="translate(229.118 1045.885)"/><g transform="translate(78.81 858)"><g transform="translate(0)"><circle class="b" cx="21.147" cy="21.147" r="21.147" transform="translate(152.528 29.907) rotate(-45)"/><g transform="translate(0 126.885)"><g transform="translate(96.307 19.998)"><path class="a" d="M370.337,336.155c-1.5-.284-3.865-3.822-10.727-6-6.015-.654-16.441-4.726-17.911-7.926-6.7-.872-11.228-5.138-24.861-7.926l-14.7,8.568-2.807,31.521H394.9S372.643,338.827,370.337,336.155Z" transform="translate(-238.778 -314.303)"/><path class="c" d="M282.212,333.6c-3.934-4.453-16.766-9.31-16.766-9.31s-.4-2.564,9.09-9.985c-19.649,7.916-48.888,20.979-53.5,21.852-2.305,2.672-24.561,18.237-24.561,18.237h112.01s-7.418-7.613-3.676-9.5S282.346,337.234,282.212,333.6Z" transform="translate(-196.476 -314.303)"/></g><g transform="translate(42.797)"><path class="a" d="M256.115,313.085c-1.345-.425-3.791-5.729-10.036-8.992-5.342-.981-21.105-10.945-22.731-15.741-1.406-2.165-12.043-5.693-16.438-8.019l-3.874,18.311-7.27,41.776h83.8S258.417,317.091,256.115,313.085Z" transform="translate(-142.674 -280.333)"/><path class="c" d="M175,301.243c0-2.767-7.571-5.032-7.571-5.032s.289-.619,2.384-15.878c-5.53,13.079-40.664,31.445-44.616,32.752-1.741,4.006-19.62,27.335-19.62,27.335H212.743s-6.8-2.991-12.17-11.491C198.524,325.686,175.5,306.692,175,301.243Z" transform="translate(-105.581 -280.333)"/></g><g transform="translate(0 22.41)"><path class="a" d="M151.989,338.936c-1.027-.267-2.648-3.592-7.348-5.639-4.12-.615-11.263-4.442-12.27-7.449-4.588-.82-10.8-5.844-17.031-7.449l-4.029,11.482-7.967,26.2h65.471S153.569,341.447,151.989,338.936Z" transform="translate(-61.864 -318.399)"/><path class="c" d="M90.389,329.88c-1.74,1.367-7.875,2.051-7.875,2.051s1.373-3.964,3.845-13.532c-5.036,8.2-33.49,19.717-36.65,20.537-1.58,2.511-16.825,17.14-16.825,17.14H84.666s1.694-8.016,4.258-9.793S90.481,333.3,90.389,329.88Z" transform="translate(-32.885 -318.399)"/></g></g><path class="a" d="M177.124,186.493c-.076.009-.152.019-.229.036-.032-6.867-6.051-11.457-14.153-10.437a21.631,21.631,0,0,0-13.427,7.354,16.978,16.978,0,0,0-12.373,8.569,8.975,8.975,0,0,0-2.951-.093c-4.833.608-9.174,4.576-9.691,8.861a6.791,6.791,0,0,0-.011,1.541l60.286-7.588a7.663,7.663,0,0,0,.366-1.585C185.457,188.866,181.957,185.885,177.124,186.493Z" transform="translate(-70.463 -110.517)"/><path class="d" d="M301.529,123.178c-.04.005-.081.01-.121.019-.017-3.639-3.206-6.071-7.5-5.531a11.464,11.464,0,0,0-7.115,3.9,9,9,0,0,0-6.557,4.541,4.751,4.751,0,0,0-1.563-.049,5.965,5.965,0,0,0-5.136,4.7,3.571,3.571,0,0,0-.006.816l31.946-4.02a4.049,4.049,0,0,0,.194-.84C305.945,124.435,304.091,122.856,301.529,123.178Z" transform="translate(-131.853 -86.514)"/><path class="a" d="M123.007,132.859a1.635,1.635,0,0,0-.164.026c-.023-4.907-4.323-8.187-10.113-7.458a15.455,15.455,0,0,0-9.594,5.254A12.129,12.129,0,0,0,94.3,136.8a6.4,6.4,0,0,0-2.108-.067c-3.454.435-6.556,3.27-6.925,6.332a4.824,4.824,0,0,0-.008,1.1l43.076-5.421a5.539,5.539,0,0,0,.261-1.133C128.961,134.554,126.461,132.424,123.007,132.859Z" transform="translate(-54.413 -89.695)"/><path class="c" d="M384.022,183.47l-.007,0c.188-3.767-2.788-6.405-6.989-6.24-2.2-4.461-7.462-7.046-13.982-6.226a23.026,23.026,0,0,0-15.591,9.485q-.364.024-.731.07a17.044,17.044,0,0,0-12.267,8.1c-.088,0-.18.015-.269.026-4.837.609-9.174,4.575-9.691,8.861a6.555,6.555,0,0,0-.011,1.541l62.673-7.887a7.947,7.947,0,0,0,.366-1.585A5.671,5.671,0,0,0,384.022,183.47Z" transform="translate(-152.801 -108.419)"/></g></g><g transform="translate(94.35 973.801)"><g transform="translate(0 0)"><g transform="translate(0 8.053)"><path class="e" d="M387.194,237.484s1.806,2.871,4.378,2.75c1.43-.171,1.931-.354,1.506-2.445s-3.907-2.575-3.907-2.575Z" transform="translate(-354.875 -194.266)"/><path class="f" d="M343.023,281.646l-8.76,1.521s.856,6.172,1.8,12.561c-2.074,5.737-1.05,19.68-.882,23.954.041,1.048,3.744-.226,3.744-.226s3.4-23.548,3.433-23.728C342.944,292.8,343.023,281.646,343.023,281.646Z" transform="translate(-318.052 -226.568)"/><g transform="translate(16.774 91.801)"><g transform="translate(0)"><path class="g" d="M336.114,402.4v3.955c3.461.043,8.2.093,8.2.093s-.3-1.319-2.568-1.557c-.206-3.149-.222-2.516-.222-2.516Z" transform="translate(-336.114 -402.32)"/><g transform="translate(5.163 2.29)"><path class="h" d="M353.218,410.677a.137.137,0,0,1-.04-.007.139.139,0,0,1-.091-.175,1.248,1.248,0,0,1,.584-.636.14.14,0,0,1,.126.25.978.978,0,0,0-.444.47A.14.14,0,0,1,353.218,410.677Z" transform="translate(-353.079 -409.844)"/></g></g><line class="i" y1="0.019" x2="5.472" transform="translate(0 0.433)"/><line class="i" x2="8.117" y2="0.113" transform="translate(0 3.778)"/></g><g transform="translate(0.056 56)"><path class="f" d="M290.819,284.674a94.173,94.173,0,0,1,.345,10.941c-3.262,4.744-2.917,13.317-4.758,22.589-.2,1.025,3.5,1.371,3.5,1.371l7.5-21.957c.685-2.007,1.571-11.116,1.571-11.116Z" transform="translate(-284.809 -284.674)"/><g transform="translate(0 32.842)"><path class="g" d="M282.166,392.594s-.607,2.506-.991,3.895l6.768,3.19s.276-1.323-1.69-2.482c1.12-2.951.842-2.382.842-2.382Z" transform="translate(-281.175 -392.594)"/><g transform="translate(4.469 4.414)"><path class="h" d="M295.941,407.657a.133.133,0,0,1-.034-.023.139.139,0,0,1-.01-.2,1.249,1.249,0,0,1,.8-.336.14.14,0,0,1,.011.28.975.975,0,0,0-.6.243A.139.139,0,0,1,295.941,407.657Z" transform="translate(-295.861 -407.1)"/></g><line class="i" x2="4.921" y2="2.224" transform="translate(0.9 0.371)"/><line class="i" x2="6.725" y2="3.193" transform="translate(0.068 3.646)"/></g></g><path class="j" d="M323.054,214.16c.273.272-.425,14.651,0,17.009,4.077.837,9.878,1.065,12.073.076.673-4.565.12-18.189.12-18.189l.046-8.815-7.858,2.127Z" transform="translate(-310.156 -172.718)"/><path class="j" d="M294.31,214.16c.273.272-.425,14.651,0,17.009,4.077.837,9.577.989,11.772,0,.673-4.565.421-18.113.421-18.113l.046-8.815-7.858,2.127Z" transform="translate(-290.159 -172.718)"/><path class="k" d="M333.315,251.8c.673-4.565.421-18.587.421-18.587" transform="translate(-317.392 -192.871)"/><path class="g" d="M319.534,167.649s5.416,2.092,9.17-.749,1.623-17.964,1.623-17.964l-5.062-1.318-1.682.248-1.8.8-2.9,1.623-.164,7.849Z" transform="translate(-307.238 -133.326)"/><path class="f" d="M329.087,132.823a3.632,3.632,0,0,0,.205,2.241c-1.166,1.42-1.4,1.781-2.13,1.547s-2.307-1.876-2.206-2.155a6.8,6.8,0,0,0-.178-1.632l.3-1.368Z" transform="translate(-311.453 -122.082)"/><path class="l" d="M303.17,144.341s1.785,6.01,1.785,8.369-.563,7.075-.547,10.347-.213,11.188-.67,12.783-4.365.987-7.584-.534-.645-11.792-.645-11.792l2.752-18.282,3.119-4.887Z" transform="translate(-290.413 -128.266)"/><path class="l" d="M342.215,141.735a12.37,12.37,0,0,1,7.095,5.1c2.4,3.994,6.238,10.943,7.988,12.7s5.351,5.25,3.753,8.279-3.956,5.006-6.7,4.474-3.753-5.109-4.057-6.76-3.2-9.091-3.2-9.091l-3.673-6.9S343.642,142.117,342.215,141.735Z" transform="translate(-323.584 -129.234)"/><path class="l" d="M349.113,152.748s.819,8.655,1.445,12.349,1.6,12.173,1.826,13.086-8.064.993-9.129.534.747-9.283.526-13.468-.864-19.373-.864-19.373v-1.4S348.961,151.194,349.113,152.748Z" transform="translate(-324.072 -131.143)"/><path class="m" d="M363.278,171.65s.819,8.655,1.446,12.349,1.6,12.173,1.826,13.086" transform="translate(-338.237 -150.045)"/><path class="m" d="M306.629,155.563s1.477,5.529,1.61,7.145a45.876,45.876,0,0,1-.3,6.156c-.1.812-.368,5.922-.368,7.494s-.38,8.445-.456,9.18l0,.022a1.308,1.308,0,0,1-1.332,1.178,13.85,13.85,0,0,1-5.92-1.428" transform="translate(-294.115 -138.854)"/><path class="j" d="M319.746,142.063s-1.319,2.688.38,3.88,3.831-2.17,3.831-2.17-1.608.2-2.821-2.038A2.212,2.212,0,0,1,319.746,142.063Z" transform="translate(-307.613 -129.234)"/><path class="n" d="M321.954,167.292c.025.1-.152.226-.4.29s-.462.037-.487-.059.152-.227.4-.29S321.929,167.2,321.954,167.292Z" transform="translate(-308.872 -146.948)"/><ellipse class="n" cx="0.456" cy="0.181" rx="0.456" ry="0.181" transform="translate(12.747 24.523) rotate(-3.252)"/><path class="n" d="M323.008,197.316c.006.1-.194.192-.445.206s-.46-.055-.466-.155.194-.192.446-.206S323,197.217,323.008,197.316Z" transform="translate(-309.588 -167.792)"/><path class="n" d="M321.941,216.086c-.006.1-.214.169-.466.154s-.451-.107-.446-.207.215-.169.466-.154S321.947,215.987,321.941,216.086Z" transform="translate(-308.846 -180.814)"/><path class="n" d="M320.877,234.517c-.006.1-.215.169-.466.154s-.451-.107-.445-.207.215-.169.466-.154S320.883,234.418,320.877,234.517Z" transform="translate(-308.105 -193.636)"/><path class="n" d="M319.379,249.29c-.006.1-.214.169-.466.154s-.451-.107-.446-.207.215-.169.466-.154S319.385,249.191,319.379,249.29Z" transform="translate(-307.063 -203.913)"/><path class="m" d="M344.153,150.5s.228,5.092.228,6.119.692,11.806.765,13.035-.575,6.973-.8,9.066a17.079,17.079,0,0,0-.142,3.331.624.624,0,0,0,.575.543,35.375,35.375,0,0,0,8.427-.422" transform="translate(-324.932 -135.331)"/><path class="j" d="M334.7,141.788s1.52,1.536,2.737.928.64-3.294-1.534-3.834A2.878,2.878,0,0,1,334.7,141.788Z" transform="translate(-318.355 -127.248)"/><path class="o" d="M332.408,148.765s-1.577,2.242-.638,3.053S332.408,148.765,332.408,148.765Z" transform="translate(-316.11 -134.124)"/><path class="o" d="M334.83,148.613s2.1,1.767,1.395,2.79S334.83,148.613,334.83,148.613Z" transform="translate(-318.446 -134.019)"/><path class="o" d="M334.745,150.5s.564,7.07-.046,8.008" transform="translate(-318.355 -135.331)"/><path class="o" d="M335.165,151.948a63.334,63.334,0,0,0,1.54,6.654" transform="translate(-318.679 -136.339)"/><path class="k" d="M298.361,245.98s.08,12.522.08,14.449" transform="translate(-293.075 -201.755)"/><path class="k" d="M300.6,245.98s.08,12.626.08,14.553" transform="translate(-294.632 -201.755)"/><g transform="translate(0 13.108)"><path class="f" d="M293.939,246.158a11.223,11.223,0,0,1,.275-1.68h-.127l-2.511-1.248s0,.307.005.77l-.386.067-.031.141-.624-.12a1.269,1.269,0,0,0-.055-.123l-.3.054-.283-.054.015.1-.472.085s-.556,3.406.846,3.874c.183.6.51,1.058,1.084,1.046h0a1.774,1.774,0,0,0,.808.559c.485.913,1.207.883,1.065.6a9.507,9.507,0,0,1-.3-3.162c.178,1.2.85,1.856,1.268,1.792C294.769,248.776,293.837,247.2,293.939,246.158Z" transform="translate(-286.798 -212.951)"/><path class="l" d="M291.6,143.73s-5.478,2.612-6.8,7.887-2.739,13.914-3.55,17.05.3,5.379,2.536,6.591a7.384,7.384,0,0,0,4.971.42s4.031-2.07,3.689-5.305-1.153-12.75-.95-15.448" transform="translate(-280.992 -143.73)"/><path class="m" d="M290.194,200.847a7.384,7.384,0,0,0,4.971.42s4.031-2.07,3.689-5.305-1.153-12.75-.95-15.448" transform="translate(-287.394 -169.32)"/><path class="n" d="M288.822,246.56s-.415,1.231,1.83,1.5,3.4-.03,3.538-.842C293.527,247.355,290.511,247.745,288.822,246.56Z" transform="translate(-286.418 -215.267)"/></g><g transform="translate(8.332 51.658)"><path class="g" d="M313.708,270.851c-1.2-1.009-2.467.411-2.467.411s-1.189-1.485-2.442-.541.471,3.023,2.343,4.249C313.078,273.844,314.91,271.86,313.708,270.851Z" transform="translate(-308.373 -270.406)"/></g><g transform="translate(5.095)"><g transform="translate(7.2 2.467)"><path class="f" d="M326.946,108.843c1.266,1.428.555,2.781.668,3.118.145.431.855.6,1.271,1.021.3.3-.587.967-.552,1.156s.334,4.211-3.569,2.95a4.759,4.759,0,0,1-2.386-1.86c-.741.03-1.542-2.155-.438-2.228a1.1,1.1,0,0,1,.68.189,1.511,1.511,0,0,1,.241.2c-.129-.364.542-1.108-.008-2.065C323.271,111.526,323.949,108.207,326.946,108.843Z" transform="translate(-321.396 -108.762)"/><path class="p" d="M336.917,129.062c.037.151-.091,1.365-1.044,1.343a1.015,1.015,0,0,1-1.014-1.274A4.213,4.213,0,0,1,336.917,129.062Z" transform="translate(-330.738 -122.817)"/><g transform="translate(4.048 2.039)"><path class="q" d="M337.115,117.888c-.157-.195-.376-.225-.534.2-.1.267-.1.777.29.816C337.466,118.962,337.372,118.206,337.115,117.888Z" transform="translate(-335.969 -117.055)"/><path class="p" d="M338.048,118.836c-.07-.086-.167-.1-.237.088-.044.118-.044.344.128.362C338.2,119.312,338.161,118.977,338.048,118.836Z" transform="translate(-336.846 -117.767)"/><path class="q" d="M336.312,115.514a1.414,1.414,0,0,0-1.61.605c-.017.038.032.083.067.054a2.5,2.5,0,0,1,.645-.486,1.644,1.644,0,0,1,.887-.1.038.038,0,0,0,.012-.075Z" transform="translate(-334.699 -115.462)"/></g></g><path class="r" d="M304.1,105.331s-2.477-2.368-4.118,1.41c-1.109,2.631-.282,3.756-1.333,4.678s-1.857,3.852,1.5,4.391,3.9-1.41,3.22-4.336A11.277,11.277,0,0,1,304.1,105.331Z" transform="translate(-297.736 -103.398)"/><path class="s" d="M325.362,133.268a4.589,4.589,0,0,0,3.929,1.113" transform="translate(-316.955 -123.343)"/><path class="r" d="M313.176,127.264s.493,3.382-.313,4.4a1.646,1.646,0,0,0,1.163,2.66c1.312.073,5.242-.428,4.778-2.721-.221-1.648-1.921-2.96-2.608-3.507A9.229,9.229,0,0,0,313.176,127.264Z" transform="translate(-308.015 -119.166)"/><path class="r" d="M315.888,107.75s2.7-2.257,2.388-4.459c1.181,1.106,1.47,1.265,2.155,1.083s.5-1.889-.541-2.939-2.88-.984-3.35-.14c-.575-.286-5.01.268-5.159,4.058s1.661,5.33,4.165,4.418a2.117,2.117,0,0,1-1.092-1.434c-.165-1.032.712-1.082,1.02-.885A3.341,3.341,0,0,1,315.888,107.75Z" transform="translate(-307.223 -100.655)"/></g><path class="n" d="M385.364,234.221s2.571.663,4.336-2.44c.521-1.111.265-1.172.265-1.172S387.062,233.995,385.364,234.221Z" transform="translate(-353.602 -191.062)"/></g><g transform="translate(32.688)"><g transform="translate(25.309 29.313)"><g transform="translate(6.703)"><path class="t" d="M500.572,185.774a1.6,1.6,0,0,0,1.057-1.095.62.62,0,0,0,.8.323.762.762,0,0,0,.294-.245c.028.053.051.108.08.16a3.369,3.369,0,0,0,.549.781,1.378,1.378,0,0,0,.8.424,10.646,10.646,0,0,0-.687-1.61.736.736,0,0,0,.251-.014,2.172,2.172,0,0,0,.455.25,1.536,1.536,0,0,0,1.474-.157,4.741,4.741,0,0,0-.617-.845c-.039-.04-.083-.075-.125-.111a1,1,0,0,0,.366-.455,1.982,1.982,0,0,0,.309.044,1.9,1.9,0,0,0,1.384-.518,2.234,2.234,0,0,0-1.085-.867,1.032,1.032,0,0,0-.017-.987,2.036,2.036,0,0,0-.44-.606,2.2,2.2,0,0,0,.071-.542,1.476,1.476,0,0,0,.654-.607.579.579,0,0,0,.063-.474.638.638,0,0,0-.239-.272,3.264,3.264,0,0,0-1.368-.458c-.021-.016-.04-.036-.061-.051l.02-.008a1.715,1.715,0,0,0,.816-.947.971.971,0,0,0-.738-.374,1.94,1.94,0,0,0-.491.018c.064-.072.13-.142.189-.219a.51.51,0,0,0,.13-.289.41.41,0,0,0-.167-.316.76.76,0,0,0-.328-.133,1.578,1.578,0,0,0-.22-.026c-.017-.075-.035-.149-.057-.224a3.525,3.525,0,0,0,.629-.911.228.228,0,0,0,.03-.118.263.263,0,0,0-.129-.165,3.984,3.984,0,0,0-.862-.518,1.416,1.416,0,0,0-.528-.1c.055-.074.11-.148.163-.221l.278-.389a.117.117,0,0,0,.021-.038c.016-.057-.047-.11-.1-.133a1.092,1.092,0,0,0-.96.134c-.026.015-.048.034-.074.049a1.123,1.123,0,0,0-.036-.4.42.42,0,0,0-.46-.344,1.752,1.752,0,0,0-.916.241,1.36,1.36,0,0,0-.557-.237c-.01,0-.019,0-.029,0l-.032-.456a1,1,0,0,0-.061-.33.214.214,0,0,0-.113-.125.18.18,0,0,0-.092,0,.894.894,0,0,0-.45.289c-.1.1-.184.205-.274.31a4.946,4.946,0,0,0-.128-.609.189.189,0,0,0-.036-.079c-.054-.06-.143-.025-.2.016a3.053,3.053,0,0,0-.565.5.887.887,0,0,0-.344-.33.674.674,0,0,0-.621.043.886.886,0,0,0-.086.071c-.156-.321-.315-.64-.488-.952a5.9,5.9,0,0,0-.265,1.378,2.989,2.989,0,0,0,.031.533s0-.009-.008-.013a.364.364,0,0,0-.262-.1.758.758,0,0,0-.449.152,2.608,2.608,0,0,0-.665-.489.235.235,0,0,0-.142-.033.136.136,0,0,0-.059.03,1.486,1.486,0,0,0-.275-.369,5.216,5.216,0,0,0-.163,1.705,2.053,2.053,0,0,0-.418-.114.382.382,0,0,0-.143,0,.3.3,0,0,0-.191.18.972.972,0,0,0,0,.652,2.3,2.3,0,0,0,.7,1.1,1.634,1.634,0,0,0,.117.719l3.233,6.131a4.837,4.837,0,0,0,.63,2.843,1.93,1.93,0,0,0,.243.436,1.362,1.362,0,0,0,.433.334A2.056,2.056,0,0,0,500.572,185.774Zm.863-12.279a1.414,1.414,0,0,0-.1-.341l.3.148C501.574,173.367,501.5,173.426,501.435,173.5Z" transform="translate(-493.601 -170.517)"/></g><path class="u" d="M473.948,194.926a.316.316,0,0,0,.2-.153l2.827-3.753a7.668,7.668,0,0,0,5.158,1.708,10.94,10.94,0,0,0,5.642-1.674c-7.039-2.44-9.08-11.765-9.08-11.765-1.262,1.234-2.311,1.8-2.867,3.546a9.674,9.674,0,0,0-.215,5.667c-1.257-.074-2.513-.126-3.767-.138a.264.264,0,0,0-.215.063.3.3,0,0,0-.046.182,10.688,10.688,0,0,0,.327,3.367,5.568,5.568,0,0,0,1.807,2.851A.35.35,0,0,0,473.948,194.926Z" transform="translate(-471.574 -176.619)"/><g transform="translate(0.912 4.173)"><path class="v" d="M475.808,198.266a.344.344,0,0,0,.224.1.316.316,0,0,0,.2-.153l2.827-3.753a7.668,7.668,0,0,0,5.158,1.708,10.941,10.941,0,0,0,5.642-1.674c-5.274-1.828-7.742-7.521-8.648-10.261a1.9,1.9,0,0,0-.457.991c-.029.419.275.917.672.912a.328.328,0,0,0-.088.4.332.332,0,0,0,.362.187.984.984,0,0,0,.112.668.315.315,0,0,0,.09.079.65.65,0,0,0-.243.305.828.828,0,0,0,.191.835,2.935,2.935,0,0,0,.229,1.065,1.175,1.175,0,0,0,.786.684.614.614,0,0,0,.728-.532c.07.413.266.946.656.94a2.239,2.239,0,0,0,.2.827.708.708,0,0,0,.664.417l.711,1.138c.244.391.652.843,1.029.663a9.472,9.472,0,0,1-4.217,1.27,5.428,5.428,0,0,1-3.939-1.538l3.9-1.33a2.151,2.151,0,0,0,.732-.359,1.6,1.6,0,0,0-1.123-.077,11.106,11.106,0,0,0-3.553,1.369l-.028-.018a26.139,26.139,0,0,0,2.691-4.823,8.889,8.889,0,0,0-2.49,3.839c.16-.74.309-1.484.412-2.24a3.994,3.994,0,0,0-.181-2.259,15.668,15.668,0,0,0-.852,5.212l-.045-.029a20.171,20.171,0,0,1-3.188.069c-.048.059.04.145.113.176,1.007.42,2.066.031,3.12-.041,0,.038,0,.076,0,.114l.216-.074a10.245,10.245,0,0,1-3.041,1.772,1.51,1.51,0,0,0-.817.769,1.059,1.059,0,0,0,1.047.028,8.649,8.649,0,0,0,2.606-1.909c-.49.781-.978,1.563-1.448,2.359A7.661,7.661,0,0,0,475.808,198.266Zm2.7-5.225.029-.01-.008.023Z" transform="translate(-474.57 -184.229)"/></g><g transform="translate(9.946 5.34)"><path class="w" d="M506.4,190.345a.4.4,0,0,0,.055-.2.244.244,0,0,0,.074-.041.444.444,0,0,0,.078-.487c.008-.009.02-.015.027-.026a.417.417,0,0,0,.013-.341.791.791,0,0,0-.118-.22.542.542,0,0,0,.022-.383.5.5,0,0,0-.1-.179.433.433,0,0,0-.4-.124.5.5,0,0,0-.185.089.643.643,0,0,0-.262-.127c-.018-.019-.034-.04-.054-.057a.552.552,0,0,0-.513-.166.42.42,0,0,0-.251.427.581.581,0,0,0,.029.149.6.6,0,0,0-.4.271.629.629,0,0,0-.1.414.305.305,0,0,0-.056.145.388.388,0,0,0,.044.183.886.886,0,0,0,.573.469.424.424,0,0,0,.122.252.42.42,0,0,0,.131.08.486.486,0,0,0,.2.031.5.5,0,0,0,.07.092.451.451,0,0,0,.351.154.365.365,0,0,0,.278-.241l.009,0A.4.4,0,0,0,506.4,190.345Zm-.2-1.029v.006c-.009,0-.018,0-.027,0C506.188,189.323,506.2,189.319,506.205,189.317Z" transform="translate(-504.256 -188.066)"/><g transform="translate(0.432 0.392)"><path class="x" d="M506.217,192.524a.316.316,0,0,0-.068.3.688.688,0,0,0,.164.276,1.853,1.853,0,0,0,.338.3" transform="translate(-505.996 -191.559)"/><path class="x" d="M507.475,193.779a.666.666,0,0,0,.425.263.558.558,0,0,0,.439-.29" transform="translate(-506.927 -192.413)"/><path class="x" d="M507.622,191.063a.713.713,0,0,1,.016-.545.473.473,0,0,1,.418-.279" transform="translate(-506.998 -189.969)"/><path class="x" d="M506.243,189.63a.9.9,0,0,0-.4.239.474.474,0,0,0-.158.4" transform="translate(-505.675 -189.546)"/><path class="x" d="M508.752,191.667a.185.185,0,0,1,.182-.068.578.578,0,0,1,.384.2.677.677,0,0,1,.156.432" transform="translate(-507.816 -190.915)"/><path class="x" d="M508.323,189.421a.184.184,0,0,1,.182-.068.576.576,0,0,1,.384.2.678.678,0,0,1,.156.432" transform="translate(-507.517 -189.352)"/><path class="x" d="M508.942,192.576a.453.453,0,0,1-.037.352" transform="translate(-507.922 -191.595)"/><path class="x" d="M508.677,194.8a.222.222,0,0,0,.22.075.567.567,0,0,0,.435-.352" transform="translate(-507.764 -192.951)"/></g></g><g transform="translate(7.32 4.034)"><path class="w" d="M496.411,186.214a.358.358,0,0,0,.2-.026.3.3,0,0,0,.073.054.382.382,0,0,0,.452-.112.228.228,0,0,0,.036.016.342.342,0,0,0,.294-.118.645.645,0,0,0,.124-.2.443.443,0,0,0,.333-.126.4.4,0,0,0,.1-.165.494.494,0,0,0-.1-.427.62.62,0,0,0-.171-.142.7.7,0,0,0-.03-.3c.007-.024.016-.048.02-.073a.627.627,0,0,0-.128-.55.425.425,0,0,0-.492-.076.459.459,0,0,0-.111.084.732.732,0,0,0-.439-.279.55.55,0,0,0-.4.064.287.287,0,0,0-.152,0,.3.3,0,0,0-.131.112.848.848,0,0,0-.1.723.341.341,0,0,0-.149.211.428.428,0,0,0,0,.155.591.591,0,0,0,.078.2.429.429,0,0,0-.041.1.493.493,0,0,0,.053.392.425.425,0,0,0,.348.172s0,.006,0,.009A.5.5,0,0,0,496.411,186.214Zm.764-.582,0,0a.205.205,0,0,0-.016-.025C497.161,185.618,497.169,185.624,497.175,185.633Z" transform="translate(-495.629 -183.771)"/><g transform="translate(0.264 0.32)"><path class="x" d="M497.013,185.928a.276.276,0,0,0-.293.051.566.566,0,0,0-.148.261,1.749,1.749,0,0,0-.078.435" transform="translate(-496.495 -185.576)"/><path class="x" d="M497.532,187.5a.559.559,0,0,0,.474.81" transform="translate(-497.182 -186.686)"/><path class="x" d="M498.531,186.955a.579.579,0,0,1,.468-.193.57.57,0,0,1,.453.289" transform="translate(-497.911 -186.171)"/><path class="x" d="M499.327,185.168a1.12,1.12,0,0,0-.412-.293.443.443,0,0,0-.422,0" transform="translate(-497.885 -184.824)"/><path class="x" d="M499.777,187.941a.232.232,0,0,1,.152.146.608.608,0,0,1,.028.442.531.531,0,0,1-.283.313" transform="translate(-498.707 -186.992)"/><path class="x" d="M501.449,186.676a.232.232,0,0,1,.152.146.609.609,0,0,1,.028.442.532.532,0,0,1-.283.313" transform="translate(-499.87 -186.112)"/><path class="x" d="M498.8,188.489a.377.377,0,0,1-.317.1" transform="translate(-497.877 -187.374)"/><path class="x" d="M496.891,189.251a.249.249,0,0,0,.052.237.667.667,0,0,0,.524.278" transform="translate(-496.761 -187.904)"/></g></g><g transform="translate(8.98 2.243)"><path class="w" d="M502.659,180.493a.358.358,0,0,0,.146-.137.257.257,0,0,0,.086.005.391.391,0,0,0,.3-.359.281.281,0,0,0,.036-.007.365.365,0,0,0,.175-.273.748.748,0,0,0,0-.244.471.471,0,0,0,.2-.3.461.461,0,0,0-.006-.2.486.486,0,0,0-.3-.317.535.535,0,0,0-.209-.027.723.723,0,0,0-.176-.245c-.007-.025-.012-.051-.021-.076a.623.623,0,0,0-.383-.412.392.392,0,0,0-.432.216.537.537,0,0,0-.046.138.629.629,0,0,0-.493.006.549.549,0,0,0-.289.287.272.272,0,0,0-.12.089.341.341,0,0,0-.047.174.929.929,0,0,0,.292.7.4.4,0,0,0-.011.272.463.463,0,0,0,.08.137.559.559,0,0,0,.166.134.478.478,0,0,0,.019.113.5.5,0,0,0,.243.316.37.37,0,0,0,.366-.049l.007.006A.433.433,0,0,0,502.659,180.493Zm.313-.954,0,0c-.009,0-.016-.011-.025-.013C502.954,179.535,502.963,179.536,502.973,179.539Z" transform="translate(-501.084 -177.886)"/><g transform="translate(0.448 0.463)"><path class="x" d="M502.777,181.312a.279.279,0,0,0-.207.214.656.656,0,0,0,.016.315,1.933,1.933,0,0,0,.16.429" transform="translate(-502.557 -180.732)"/><path class="x" d="M503.62,182.975a.726.726,0,0,0,.258.445.586.586,0,0,0,.535,0" transform="translate(-503.296 -181.889)"/><path class="x" d="M504.276,181.2a.622.622,0,0,1,.275-.44.5.5,0,0,1,.511-.005" transform="translate(-503.753 -180.298)"/><path class="x" d="M503.835,179.448a.959.959,0,0,0-.479-.022.426.426,0,0,0-.335.246" transform="translate(-502.88 -179.406)"/><path class="x" d="M505.737,181.974a.2.2,0,0,1,.2.042.638.638,0,0,1,.249.374.615.615,0,0,1-.066.439" transform="translate(-504.769 -181.184)"/><path class="x" d="M506.426,179.9a.2.2,0,0,1,.2.042.635.635,0,0,1,.249.374.616.616,0,0,1-.066.439" transform="translate(-505.248 -179.738)"/><path class="x" d="M505.163,182.768c-.04.11-.092.233-.2.27" transform="translate(-504.229 -181.745)"/><path class="x" d="M503.939,184.936a.249.249,0,0,0,.163.18.578.578,0,0,0,.561-.056" transform="translate(-503.518 -183.253)"/></g></g><g transform="translate(8.039 6.728)"><path class="w" d="M500.642,194.343a.512.512,0,0,0-.095-.223.3.3,0,0,0,.03-.093.539.539,0,0,0-.27-.495.308.308,0,0,0,0-.044.492.492,0,0,0-.221-.315.775.775,0,0,0-.242-.106.641.641,0,0,0-.243-.358.473.473,0,0,0-.2-.082.422.422,0,0,0-.4.2.617.617,0,0,0-.085.221.607.607,0,0,0-.291.087c-.027,0-.054-.01-.081-.011a.539.539,0,0,0-.514.244.546.546,0,0,0,.093.574.65.65,0,0,0,.124.111.774.774,0,0,0-.131.55.783.783,0,0,0,.2.447.39.39,0,0,0,.055.172.408.408,0,0,0,.159.129.82.82,0,0,0,.767-.018.421.421,0,0,0,.266.132.4.4,0,0,0,.157-.028.5.5,0,0,0,.179-.125.467.467,0,0,0,.117.029.428.428,0,0,0,.379-.131.475.475,0,0,0,.054-.427l.008,0A.491.491,0,0,0,500.642,194.343Zm-.854-.768,0,.006c-.006.008-.015.012-.02.022C499.777,193.594,499.781,193.584,499.787,193.575Z" transform="translate(-497.991 -192.624)"/><g transform="translate(0.372 0.468)"><path class="y" d="M500.794,199.313a.39.39,0,0,0,.153.324.664.664,0,0,0,.316.122,1.7,1.7,0,0,0,.468.011" transform="translate(-500.312 -197.746)"/><path class="y" d="M502.533,198.105a.62.62,0,0,0,.511-.09.714.714,0,0,0,.146-.595" transform="translate(-501.522 -196.429)"/><path class="y" d="M501.263,196.235a.836.836,0,0,1-.357-.5.6.6,0,0,1,.137-.569" transform="translate(-500.377 -194.861)"/><path class="y" d="M499.368,195.854a1.147,1.147,0,0,0-.155.523.607.607,0,0,0,.15.48" transform="translate(-499.212 -195.339)"/><path class="y" d="M502.158,196.163a.223.223,0,0,1,.1-.2.54.54,0,0,1,.439-.111.691.691,0,0,1,.415.267" transform="translate(-501.26 -195.332)"/><path class="y" d="M500.3,194.482a.222.222,0,0,1,.1-.2.539.539,0,0,1,.438-.111.692.692,0,0,1,.415.267" transform="translate(-499.965 -194.163)"/><path class="y" d="M502.887,197.354a.544.544,0,0,1,.21.343" transform="translate(-501.769 -196.383)"/><path class="y" d="M504.557,198.469a.215.215,0,0,0,.223-.1.733.733,0,0,0,.1-.647" transform="translate(-502.93 -196.638)"/></g></g><g transform="translate(10.479 8.213)"><path class="w" d="M508.795,199.806a.538.538,0,0,0-.014-.262.3.3,0,0,0,.067-.08.58.58,0,0,0-.093-.609.36.36,0,0,0,.021-.041.542.542,0,0,0-.112-.409.932.932,0,0,0-.214-.211.7.7,0,0,0-.118-.461.572.572,0,0,0-.181-.169.484.484,0,0,0-.5.021.614.614,0,0,0-.175.182.721.721,0,0,0-.341-.04c-.027-.015-.053-.033-.081-.046a.62.62,0,0,0-.638.018.556.556,0,0,0-.124.611.755.755,0,0,0,.088.164.773.773,0,0,0-.352.489.829.829,0,0,0,.042.532.407.407,0,0,0-.009.2.476.476,0,0,0,.117.2,1,1,0,0,0,.818.316.5.5,0,0,0,.23.247.463.463,0,0,0,.177.04.55.55,0,0,0,.237-.047.564.564,0,0,0,.112.079.505.505,0,0,0,.452.035.476.476,0,0,0,.222-.4h.01A.5.5,0,0,0,508.795,199.806Zm-.606-1.135,0,.007c-.009.006-.021.006-.03.013C508.171,198.686,508.179,198.678,508.189,198.671Z" transform="translate(-506.007 -197.505)"/><g transform="translate(0.385 0.351)"><path class="x" d="M508.446,203.531a.415.415,0,0,0,.036.389.808.808,0,0,0,.287.258,2.088,2.088,0,0,0,.491.214" transform="translate(-508.065 -202.049)"/><path class="x" d="M510.218,203.741a.745.745,0,0,0,.575.133.714.714,0,0,0,.385-.527" transform="translate(-509.321 -201.921)"/><path class="x" d="M509.735,200.832a.918.918,0,0,1-.184-.652.6.6,0,0,1,.365-.505" transform="translate(-508.853 -199.366)"/><path class="x" d="M507.714,199.628a1.151,1.151,0,0,0-.365.452.63.63,0,0,0-.027.542" transform="translate(-507.271 -199.333)"/><path class="x" d="M510.9,201.316a.227.227,0,0,1,.179-.156.644.644,0,0,1,.507.08.819.819,0,0,1,.336.446" transform="translate(-509.797 -200.384)"/><path class="x" d="M509.585,198.837a.228.228,0,0,1,.179-.156.644.644,0,0,1,.507.08.82.82,0,0,1,.336.446" transform="translate(-508.881 -198.66)"/><path class="x" d="M511.489,202.494a.59.59,0,0,1,.089.432" transform="translate(-510.205 -201.327)"/><path class="x" d="M512.161,204.651a.249.249,0,0,0,.275,0,.734.734,0,0,0,.357-.6" transform="translate(-510.673 -202.408)"/></g></g><g transform="translate(12.591 5.888)"><path class="w" d="M515.918,192.317a.568.568,0,0,0-.015-.28.322.322,0,0,0,.072-.085.617.617,0,0,0-.1-.648.362.362,0,0,0,.022-.044.575.575,0,0,0-.119-.435.994.994,0,0,0-.228-.225.746.746,0,0,0-.126-.491.611.611,0,0,0-.192-.18.517.517,0,0,0-.527.023.658.658,0,0,0-.187.194.766.766,0,0,0-.363-.043c-.029-.016-.057-.035-.087-.049a.661.661,0,0,0-.679.02.592.592,0,0,0-.132.651.8.8,0,0,0,.093.175.823.823,0,0,0-.375.521.883.883,0,0,0,.045.567.438.438,0,0,0-.009.208.5.5,0,0,0,.125.21,1.059,1.059,0,0,0,.871.337.539.539,0,0,0,.245.263.5.5,0,0,0,.189.043.593.593,0,0,0,.253-.05.608.608,0,0,0,.119.084.537.537,0,0,0,.481.038.507.507,0,0,0,.237-.427h.011A.53.53,0,0,0,515.918,192.317Zm-.645-1.208,0,.008c-.01.006-.022.006-.032.014C515.253,191.124,515.262,191.115,515.272,191.108Z" transform="translate(-512.949 -189.867)"/><g transform="translate(0.409 0.374)"><path class="x" d="M515.546,196.284a.442.442,0,0,0,.039.414.863.863,0,0,0,.306.275,2.212,2.212,0,0,0,.523.228" transform="translate(-515.14 -194.705)"/><path class="x" d="M517.434,196.507a.793.793,0,0,0,.613.142.76.76,0,0,0,.41-.561" transform="translate(-516.479 -194.569)"/><path class="x" d="M516.919,193.409a.979.979,0,0,1-.2-.694.645.645,0,0,1,.389-.538" transform="translate(-515.979 -191.848)"/><path class="x" d="M514.767,192.128a1.223,1.223,0,0,0-.39.481.67.67,0,0,0-.029.577" transform="translate(-514.294 -191.814)"/><path class="x" d="M518.162,193.924a.243.243,0,0,1,.19-.166.685.685,0,0,1,.539.085.873.873,0,0,1,.358.475" transform="translate(-516.985 -192.932)"/><path class="x" d="M516.76,191.284a.243.243,0,0,1,.19-.166.686.686,0,0,1,.54.086.873.873,0,0,1,.358.475" transform="translate(-516.01 -191.096)"/><path class="x" d="M518.788,195.18a.628.628,0,0,1,.095.46" transform="translate(-517.421 -193.937)"/><path class="x" d="M519.5,197.476a.266.266,0,0,0,.293,0,.783.783,0,0,0,.381-.638" transform="translate(-517.918 -195.088)"/></g></g><g transform="translate(11.948 3.542)"><path class="w" d="M513.125,184.044a.442.442,0,0,0-.012-.215.248.248,0,0,0,.055-.065.476.476,0,0,0-.077-.5.252.252,0,0,0,.017-.034.443.443,0,0,0-.092-.335.762.762,0,0,0-.176-.173.579.579,0,0,0-.1-.379.467.467,0,0,0-.148-.138.4.4,0,0,0-.407.017.511.511,0,0,0-.144.15.588.588,0,0,0-.28-.033c-.023-.012-.044-.027-.067-.037a.509.509,0,0,0-.523.015.456.456,0,0,0-.1.5.622.622,0,0,0,.072.135.634.634,0,0,0-.288.4.68.68,0,0,0,.034.437.338.338,0,0,0-.007.16.387.387,0,0,0,.1.162.817.817,0,0,0,.671.26.415.415,0,0,0,.189.2.387.387,0,0,0,.145.033.457.457,0,0,0,.195-.038.465.465,0,0,0,.092.065.414.414,0,0,0,.371.029.39.39,0,0,0,.183-.329h.009A.409.409,0,0,0,513.125,184.044Zm-.5-.931,0,.006c-.008,0-.017,0-.025.011A.233.233,0,0,0,512.628,183.113Z" transform="translate(-510.837 -182.155)"/><g transform="translate(0.316 0.288)"><path class="x" d="M512.838,187.1a.34.34,0,0,0,.03.319.665.665,0,0,0,.235.212,1.7,1.7,0,0,0,.4.176" transform="translate(-512.526 -185.885)"/><path class="x" d="M514.294,187.274a.609.609,0,0,0,.472.109.586.586,0,0,0,.316-.432" transform="translate(-513.558 -185.78)"/><path class="x" d="M513.9,184.886a.756.756,0,0,1-.152-.535.5.5,0,0,1,.3-.415" transform="translate(-513.172 -183.683)"/><path class="x" d="M512.238,183.9a.94.94,0,0,0-.3.371.517.517,0,0,0-.022.445" transform="translate(-511.874 -183.657)"/><path class="x" d="M514.855,185.283a.186.186,0,0,1,.147-.128.527.527,0,0,1,.416.066.674.674,0,0,1,.276.366" transform="translate(-513.948 -184.519)"/><path class="x" d="M513.774,183.248a.187.187,0,0,1,.147-.128.527.527,0,0,1,.416.066.673.673,0,0,1,.276.366" transform="translate(-513.196 -183.103)"/><path class="x" d="M515.337,186.251a.484.484,0,0,1,.073.355" transform="translate(-514.283 -185.293)"/><path class="x" d="M515.888,188.021a.205.205,0,0,0,.226,0,.6.6,0,0,0,.293-.492" transform="translate(-514.667 -186.18)"/></g></g><g transform="translate(15.275 11.095)"><path class="w" d="M524.055,208.865a.444.444,0,0,0-.011-.215.25.25,0,0,0,.055-.066.474.474,0,0,0-.077-.5.242.242,0,0,0,.017-.034.442.442,0,0,0-.092-.335.762.762,0,0,0-.176-.173.577.577,0,0,0-.1-.379.47.47,0,0,0-.148-.139.4.4,0,0,0-.407.017.512.512,0,0,0-.144.15.591.591,0,0,0-.28-.033c-.023-.012-.044-.027-.067-.037a.509.509,0,0,0-.523.015.456.456,0,0,0-.1.5.616.616,0,0,0,.072.135.633.633,0,0,0-.289.4.68.68,0,0,0,.034.437.334.334,0,0,0-.007.16.386.386,0,0,0,.1.162.816.816,0,0,0,.671.26.416.416,0,0,0,.189.2.381.381,0,0,0,.146.033.449.449,0,0,0,.195-.038.476.476,0,0,0,.092.065.415.415,0,0,0,.371.029.39.39,0,0,0,.183-.329h.009A.408.408,0,0,0,524.055,208.865Zm-.5-.932,0,.006c-.008,0-.017.005-.024.011C523.543,207.945,523.55,207.938,523.558,207.933Z" transform="translate(-521.767 -206.976)"/><g transform="translate(0.316 0.288)"><path class="x" d="M523.768,211.922a.341.341,0,0,0,.03.319.661.661,0,0,0,.235.212,1.7,1.7,0,0,0,.4.176" transform="translate(-523.456 -210.705)"/><path class="x" d="M525.224,212.094a.609.609,0,0,0,.472.109.585.585,0,0,0,.316-.432" transform="translate(-524.488 -210.6)"/><path class="x" d="M524.826,209.707a.756.756,0,0,1-.152-.535.5.5,0,0,1,.3-.415" transform="translate(-524.102 -208.503)"/><path class="x" d="M523.168,208.719a.942.942,0,0,0-.3.371.518.518,0,0,0-.022.445" transform="translate(-522.804 -208.477)"/><path class="x" d="M525.785,210.1a.186.186,0,0,1,.147-.128.529.529,0,0,1,.416.066.674.674,0,0,1,.276.366" transform="translate(-524.878 -209.34)"/><path class="x" d="M524.7,208.069a.187.187,0,0,1,.147-.128.529.529,0,0,1,.416.066.671.671,0,0,1,.276.366" transform="translate(-524.126 -207.924)"/><path class="x" d="M526.267,211.071a.485.485,0,0,1,.073.355" transform="translate(-525.213 -210.113)"/><path class="x" d="M526.818,212.842a.2.2,0,0,0,.226,0,.6.6,0,0,0,.293-.491" transform="translate(-525.596 -211.001)"/></g></g><g transform="translate(12.391 1.065)"><path class="w" d="M514.579,175.9a.443.443,0,0,0-.012-.216.246.246,0,0,0,.055-.065.476.476,0,0,0-.077-.5.226.226,0,0,0,.017-.034.442.442,0,0,0-.092-.335.764.764,0,0,0-.176-.173.576.576,0,0,0-.1-.379.479.479,0,0,0-.148-.138.4.4,0,0,0-.407.017.51.51,0,0,0-.144.149.594.594,0,0,0-.28-.033c-.023-.012-.044-.027-.067-.037a.509.509,0,0,0-.523.015.456.456,0,0,0-.1.5.609.609,0,0,0,.072.135.633.633,0,0,0-.289.4.68.68,0,0,0,.034.437.337.337,0,0,0-.007.16.39.39,0,0,0,.1.162.816.816,0,0,0,.671.26.415.415,0,0,0,.189.2.381.381,0,0,0,.145.033.2.2,0,0,1,.287.027.414.414,0,0,0,.371.029.39.39,0,0,0,.183-.329h.008A.409.409,0,0,0,514.579,175.9Zm-.5-.932,0,.006c-.008,0-.017,0-.024.011C514.067,174.985,514.074,174.978,514.082,174.973Z" transform="translate(-512.291 -174.016)"/><g transform="translate(0.316 0.288)"><path class="x" d="M514.293,178.962a.341.341,0,0,0,.03.319.662.662,0,0,0,.236.212,1.708,1.708,0,0,0,.4.176" transform="translate(-513.98 -177.745)"/><path class="x" d="M515.748,179.134a.61.61,0,0,0,.472.109.586.586,0,0,0,.316-.432" transform="translate(-515.012 -177.64)"/><path class="x" d="M515.35,176.747a.756.756,0,0,1-.151-.535.5.5,0,0,1,.3-.415" transform="translate(-514.626 -175.543)"/><path class="x" d="M513.692,175.759a.938.938,0,0,0-.3.371.517.517,0,0,0-.023.445" transform="translate(-513.328 -175.517)"/><path class="x" d="M516.309,177.144a.187.187,0,0,1,.147-.128.527.527,0,0,1,.416.066.672.672,0,0,1,.276.366" transform="translate(-515.402 -176.379)"/><path class="x" d="M515.228,175.109a.187.187,0,0,1,.147-.128.529.529,0,0,1,.416.066.672.672,0,0,1,.276.366" transform="translate(-514.65 -174.964)"/><path class="x" d="M516.791,178.111a.484.484,0,0,1,.073.355" transform="translate(-515.737 -177.153)"/><path class="x" d="M517.342,179.881a.2.2,0,0,0,.226,0,.6.6,0,0,0,.293-.492" transform="translate(-516.12 -178.04)"/></g></g><g transform="translate(14.588 3.531)"><path class="w" d="M521.8,184.01a.441.441,0,0,0-.011-.215.247.247,0,0,0,.055-.065.476.476,0,0,0-.077-.5.263.263,0,0,0,.017-.034.445.445,0,0,0-.092-.335.769.769,0,0,0-.176-.173.575.575,0,0,0-.1-.379.473.473,0,0,0-.148-.139.4.4,0,0,0-.406.017.5.5,0,0,0-.144.15.592.592,0,0,0-.28-.033c-.022-.012-.044-.027-.067-.037a.509.509,0,0,0-.523.015.456.456,0,0,0-.1.5.609.609,0,0,0,.072.135.635.635,0,0,0-.289.4.678.678,0,0,0,.035.437.332.332,0,0,0-.007.16.392.392,0,0,0,.1.162.817.817,0,0,0,.671.26.414.414,0,0,0,.189.2.381.381,0,0,0,.146.033.449.449,0,0,0,.195-.038.476.476,0,0,0,.092.065.415.415,0,0,0,.371.029.391.391,0,0,0,.183-.329h.008A.408.408,0,0,0,521.8,184.01Zm-.5-.931,0,.005c-.008,0-.017.005-.024.011C521.287,183.09,521.294,183.083,521.3,183.079Z" transform="translate(-519.511 -182.121)"/><g transform="translate(0.316 0.288)"><path class="x" d="M521.513,187.067a.341.341,0,0,0,.03.319.666.666,0,0,0,.236.212,1.711,1.711,0,0,0,.4.176" transform="translate(-521.2 -185.85)"/><path class="x" d="M522.968,187.24a.611.611,0,0,0,.472.109.587.587,0,0,0,.316-.432" transform="translate(-522.232 -185.746)"/><path class="x" d="M522.571,184.852a.754.754,0,0,1-.151-.535.5.5,0,0,1,.3-.415" transform="translate(-521.847 -183.648)"/><path class="x" d="M520.912,183.864a.945.945,0,0,0-.3.371.517.517,0,0,0-.022.445" transform="translate(-520.548 -183.622)"/><path class="x" d="M523.529,185.249a.187.187,0,0,1,.147-.128.53.53,0,0,1,.416.066.672.672,0,0,1,.275.366" transform="translate(-522.622 -184.485)"/><path class="x" d="M522.449,183.214a.187.187,0,0,1,.146-.128.529.529,0,0,1,.416.066.672.672,0,0,1,.275.366" transform="translate(-521.871 -183.069)"/><path class="x" d="M524.011,186.216a.484.484,0,0,1,.073.355" transform="translate(-522.957 -185.258)"/><path class="x" d="M524.563,187.987a.2.2,0,0,0,.226,0,.6.6,0,0,0,.293-.491" transform="translate(-523.341 -186.146)"/></g></g><g transform="translate(13.831 8.949)"><path class="w" d="M519.264,200.709a.417.417,0,0,0-.158-.128.3.3,0,0,0-.017-.086.431.431,0,0,0-.393-.258.29.29,0,0,0-.015-.035.381.381,0,0,0-.285-.141.577.577,0,0,0-.214.029.5.5,0,0,0-.318-.165.358.358,0,0,0-.175.029.39.39,0,0,0-.2.334.607.607,0,0,0,.031.21.54.54,0,0,0-.17.2c-.02.01-.042.017-.061.029a.5.5,0,0,0-.263.425.469.469,0,0,0,.434.43.74.74,0,0,0,.133.486.634.634,0,0,0,.327.252.328.328,0,0,0,.109.108.306.306,0,0,0,.165.027.676.676,0,0,0,.534-.367.316.316,0,0,0,.242-.02.33.33,0,0,0,.1-.094.475.475,0,0,0,.075-.179.355.355,0,0,0,.094-.032.383.383,0,0,0,.214-.276.445.445,0,0,0-.137-.355l0-.007A.478.478,0,0,0,519.264,200.709Zm-.918-.2.005,0a.265.265,0,0,0-.005.026C518.347,200.529,518.345,200.519,518.346,200.509Z" transform="translate(-517.024 -199.923)"/><g transform="translate(0.44 0.443)"><path class="x" d="M520.645,205.852a.316.316,0,0,0,.241.18.5.5,0,0,0,.273-.052,1.372,1.372,0,0,0,.334-.207" transform="translate(-519.983 -204.436)"/><path class="x" d="M522.016,203.606a.532.532,0,0,0,.324-.305.683.683,0,0,0-.14-.527" transform="translate(-520.937 -202.35)"/><path class="x" d="M519.93,203.273a.645.645,0,0,1-.457-.221.576.576,0,0,1-.137-.5" transform="translate(-519.062 -202.193)"/><path class="x" d="M518.47,203.852a1.117,1.117,0,0,0,.105.475.509.509,0,0,0,.3.3" transform="translate(-518.47 -203.1)"/><path class="x" d="M520.545,202.343a.218.218,0,0,1-.014-.2.473.473,0,0,1,.264-.288.517.517,0,0,1,.4.015" transform="translate(-519.892 -201.688)"/><path class="x" d="M518.543,201.9a.217.217,0,0,1-.014-.2.475.475,0,0,1,.264-.288.516.516,0,0,1,.4.015" transform="translate(-518.499 -201.381)"/><path class="x" d="M521.316,203.554a.428.428,0,0,1,.289.169" transform="translate(-520.45 -202.893)"/><path class="x" d="M523.474,203.306c.071-.019.106-.1.116-.181a.692.692,0,0,0-.194-.547" transform="translate(-521.897 -202.214)"/></g></g><g transform="translate(15.812 7.64)"><path class="w" d="M525.772,196.409a.414.414,0,0,0-.158-.128.3.3,0,0,0-.017-.086.431.431,0,0,0-.393-.258.278.278,0,0,0-.015-.035.381.381,0,0,0-.285-.141.576.576,0,0,0-.214.029.5.5,0,0,0-.318-.165.357.357,0,0,0-.175.029.389.389,0,0,0-.2.334.6.6,0,0,0,.031.21.539.539,0,0,0-.17.2c-.02.01-.042.017-.061.029a.494.494,0,0,0-.263.425.474.474,0,0,0,.3.4.485.485,0,0,0,.133.029.739.739,0,0,0,.133.486.633.633,0,0,0,.327.252.328.328,0,0,0,.109.108.307.307,0,0,0,.165.027.675.675,0,0,0,.534-.367.316.316,0,0,0,.242-.02.332.332,0,0,0,.1-.094.478.478,0,0,0,.075-.179.369.369,0,0,0,.094-.032.384.384,0,0,0,.214-.276.445.445,0,0,0-.137-.355l0-.007A.478.478,0,0,0,525.772,196.409Zm-.918-.2.005,0a.253.253,0,0,0-.005.026C524.855,196.229,524.854,196.219,524.854,196.209Z" transform="translate(-523.532 -195.623)"/><g transform="translate(0.44 0.443)"><path class="x" d="M527.153,201.551a.314.314,0,0,0,.241.18.5.5,0,0,0,.273-.051,1.372,1.372,0,0,0,.334-.207" transform="translate(-526.491 -200.136)"/><path class="x" d="M528.523,199.305a.532.532,0,0,0,.324-.305.685.685,0,0,0-.14-.527" transform="translate(-527.444 -198.049)"/><path class="x" d="M526.438,198.973a.647.647,0,0,1-.457-.221.577.577,0,0,1-.137-.5" transform="translate(-525.57 -197.893)"/><path class="x" d="M524.978,199.552a1.116,1.116,0,0,0,.1.475.509.509,0,0,0,.3.3" transform="translate(-524.978 -198.8)"/><path class="x" d="M527.053,198.042a.218.218,0,0,1-.014-.2.473.473,0,0,1,.264-.288.514.514,0,0,1,.4.015" transform="translate(-526.4 -197.388)"/><path class="x" d="M525.051,197.6a.217.217,0,0,1-.014-.2.473.473,0,0,1,.264-.288.518.518,0,0,1,.4.015" transform="translate(-525.007 -197.081)"/><path class="x" d="M527.824,199.254a.429.429,0,0,1,.289.169" transform="translate(-526.958 -198.593)"/><path class="x" d="M529.982,199.006c.071-.018.106-.1.116-.181a.692.692,0,0,0-.194-.547" transform="translate(-528.405 -197.914)"/></g></g><g transform="translate(12.137 10.947)"><path class="w" d="M514.068,207.406a.487.487,0,0,0-.184-.15.344.344,0,0,0-.02-.1.5.5,0,0,0-.458-.3.325.325,0,0,0-.018-.041.445.445,0,0,0-.332-.165.668.668,0,0,0-.249.034.581.581,0,0,0-.371-.192.418.418,0,0,0-.2.034.453.453,0,0,0-.234.389.7.7,0,0,0,.036.244.625.625,0,0,0-.2.235c-.024.012-.049.02-.072.034a.576.576,0,0,0-.306.5.553.553,0,0,0,.351.467.568.568,0,0,0,.155.034.862.862,0,0,0,.155.566.736.736,0,0,0,.381.293.383.383,0,0,0,.127.126.355.355,0,0,0,.192.031.786.786,0,0,0,.622-.428.367.367,0,0,0,.282-.024.392.392,0,0,0,.116-.11.559.559,0,0,0,.087-.209.4.4,0,0,0,.109-.036.448.448,0,0,0,.25-.321.52.52,0,0,0-.16-.414s0-.005,0-.009A.558.558,0,0,0,514.068,207.406ZM513,207.173l.006,0c0,.011-.006.019-.006.031C513,207.2,513,207.184,513,207.173Z" transform="translate(-511.458 -206.49)"/><g transform="translate(0.513 0.517)"><path class="x" d="M515.678,213.4a.367.367,0,0,0,.281.21.584.584,0,0,0,.318-.06,1.607,1.607,0,0,0,.39-.242" transform="translate(-514.907 -211.749)"/><path class="x" d="M517.275,210.781a.619.619,0,0,0,.377-.355.8.8,0,0,0-.163-.614" transform="translate(-516.018 -209.317)"/><path class="x" d="M514.845,210.394a.753.753,0,0,1-.533-.258.671.671,0,0,1-.159-.586" transform="translate(-513.834 -209.136)"/><path class="x" d="M513.144,211.068a1.3,1.3,0,0,0,.122.554.592.592,0,0,0,.352.352" transform="translate(-513.144 -210.192)"/><path class="x" d="M515.562,209.309a.253.253,0,0,1-.016-.231.55.55,0,0,1,.307-.336.6.6,0,0,1,.469.017" transform="translate(-514.801 -208.546)"/><path class="x" d="M513.229,208.795a.253.253,0,0,1-.016-.231.552.552,0,0,1,.307-.336.6.6,0,0,1,.469.018" transform="translate(-513.178 -208.188)"/><path class="x" d="M516.46,210.721a.5.5,0,0,1,.337.2" transform="translate(-515.451 -209.95)"/><path class="x" d="M518.974,210.431c.083-.021.123-.117.135-.211a.805.805,0,0,0-.226-.637" transform="translate(-517.136 -209.159)"/></g></g></g><g transform="translate(5.987 45.984)"><g transform="translate(21.771 44.549)"><path class="f" d="M479.621,375.017l2.923,5.343,4.5-2-2.8-6.669Z" transform="translate(-479.621 -371.691)"/><g transform="translate(1.009 5.733)"><path class="z" d="M490.106,390.53s1.152,2.644,2.307,4.685c-4.009,2.115-9.448,4.923-9.448,4.923s-.439-1.715,2.065-3.347c-1.639-3.794-1.242-3.066-1.242-3.066Z" transform="translate(-482.936 -390.53)"/><g transform="translate(1.61 6.029)"><path class="h" d="M489.423,411.025a.169.169,0,0,0,.043-.032.183.183,0,0,0,0-.259,1.636,1.636,0,0,0-1.06-.393.183.183,0,0,0,0,.366,1.281,1.281,0,0,1,.8.283A.183.183,0,0,0,489.423,411.025Z" transform="translate(-488.226 -410.342)"/></g></g><g transform="translate(0.976 9.97)"><rect class="h" width="10.512" height="0.142" transform="matrix(0.881, -0.473, 0.473, 0.881, 0, 4.971)"/></g><g transform="translate(1.952 6.112)"><path class="h" d="M486.1,395.067l6.392-3.166-.063-.127-6.392,3.166Z" transform="translate(-486.037 -391.775)"/></g><g transform="translate(7.978 6.31)"><path class="h" d="M507.686,396.383l.128-.061-1.848-3.9-.128.061Z" transform="translate(-505.838 -392.425)"/></g><g transform="translate(7.534 8.227)"><path class="h" d="M504.518,401.912l.135-.044a2.652,2.652,0,0,1,1.192-3.018l-.072-.123A2.8,2.8,0,0,0,504.518,401.912Z" transform="translate(-504.377 -398.727)"/></g></g><path class="aa" d="M433.563,238.29s1.142,14.636,4.242,22.9,9.1,21.662,9.1,21.662a18.848,18.848,0,0,0,8.9-4.186c-2.764-6.631-8.756-20.214-9.172-26.184s-.264-19.388-.264-19.388l-12.7.877Z" transform="translate(-425.808 -230.725)"/><g transform="translate(0 47.436)"><path class="f" d="M423.548,381.948l.082,6.09,4.914.341.651-7.2Z" transform="translate(-418.841 -381.176)"/><g transform="translate(0 6.526)"><path class="z" d="M418.888,402.823s-.219,2.876-.155,5.22c-4.532-.008-10.653-.072-10.653-.072s.415-1.721,3.391-1.991c.328-4.12.338-3.291.338-3.291Z" transform="translate(-408.08 -402.621)"/><g transform="translate(2.965 2.991)"><path class="h" d="M418.667,413.549a.17.17,0,0,0,.053-.008.182.182,0,0,0,.123-.228,1.634,1.634,0,0,0-.753-.843.183.183,0,0,0-.17.324,1.278,1.278,0,0,1,.573.624A.183.183,0,0,0,418.667,413.549Z" transform="translate(-417.822 -412.448)"/></g></g><g transform="translate(0.131 11.436)"><rect class="h" width="10.512" height="0.142" transform="translate(0 0.057) rotate(-0.311)"/></g><g transform="translate(3.643 6.945)"><rect class="h" width="0.142" height="7.133" transform="matrix(0.027, -1, 1, 0.027, 0, 0.142)"/></g><g transform="translate(10.141 7.197)"><rect class="h" width="4.313" height="0.142" transform="translate(0 4.309) rotate(-87.46)"/></g><g transform="translate(7.704 9.284)"><path class="h" d="M433.535,413.935A2.611,2.611,0,0,1,436,411.827l-.006-.142a2.8,2.8,0,0,0-2.6,2.226Z" transform="translate(-433.395 -411.685)"/></g></g><path class="aa" d="M419.631,247.373l1.021,31.174-9.584.3s-3.325-46.412-1.117-51.665,7.4,2.157,7.4,2.157Z" transform="translate(-408.855 -225.299)"/><path class="ab" d="M470.912,243.774s-.5,15.123.538,19.121a229.523,229.523,0,0,0,9,24.218" transform="translate(-451.709 -238.152)"/><path class="ab" d="M483.056,382.644s-4.915,2.728-7.816,2.769" transform="translate(-454.802 -334.762)"/><path class="ab" d="M435.489,253.806c-.024,8.157,1.721,17.637,4.366,23.647" transform="translate(-427.148 -245.131)"/></g><path class="f" d="M396.216,233.606a11.208,11.208,0,0,1,.579-1.6l-.124-.023-2.239-1.688s-.057.3-.136.758l-.391,0-.056.133-.591-.232a1.249,1.249,0,0,0-.032-.131l-.3,0-.268-.106,0,.1-.25,0s-2.7,3.555-.8,4.856c.07.623,1.063.526,1.064.526.081.457,1.1.645,1.184.243,0,.67,1.577.433,1.489.127a2.915,2.915,0,0,1-.26-2.246c-.045,1.209.495,1.98.918,2C396.551,236.332,395.925,234.61,396.216,233.606Z" transform="translate(-390.154 -182.79)"/><path class="z" d="M402.049,115.764s-6.765,1.722-8.369,6.5c-1.876,5.587-5.021,27.9-5.275,28.765a12.671,12.671,0,0,0,8.166,1.471c1.522-1.471,4.428-22.644,4.428-22.644l2.989-11.762Z" transform="translate(-388.406 -103.113)"/><path class="z" d="M420.263,112.889s7.4,1.83,9.421,4.025c3.7,4.029,6.289,15.6,6.492,18.276s-3.855,8.638-5.173,10.02a45.752,45.752,0,0,1,.913,8.616s-5.275-.678-8.318,0-13.463,0-15.518-.961c0-3.43,1.114-11.681,1.114-11.681l6.8-24.426,1.686-2.059Z" transform="translate(-402.093 -101.113)"/><g transform="translate(6.322)"><path class="f" d="M435.023,104.351s.776,2.066,1.955,2.6c-.456,1.864-1.636,3.134-3.347,3.2s-1.517-2.071-1.517-2.071.279.288.016-.41S435.023,104.351,435.023,104.351Z" transform="translate(-425.13 -95.173)"/><g transform="translate(2.449 4.28)"><path class="f" d="M417.388,88.925c-.609,1.954.683,2.964.721,3.343.048.485-.571.965-.793,1.558-.16.428,1,.687,1.05.887s1.53,4.265,4.791,1.311a5.1,5.1,0,0,0,1.514-2.871c.737-.3.558-2.788-.554-2.372a1.174,1.174,0,0,0-.582.485,1.61,1.61,0,0,0-.147.3c-.034-.413-1.018-.844-.9-2.023C422.164,89.928,420.038,86.982,417.388,88.925Z" transform="translate(-417.225 -88.256)"/><path class="p" d="M424.668,109.213c.03.164.691,1.295,1.613.853a1.088,1.088,0,0,0,.429-1.693A4.516,4.516,0,0,0,424.668,109.213Z" transform="translate(-422.403 -102.24)"/><g transform="translate(0.923 2.304)"><path class="q" d="M422.887,98.333c.068-.26.269-.386.611-.041.215.217.44.716.076.925C423.017,99.538,422.776,98.757,422.887,98.333Z" transform="translate(-422.069 -97.395)"/><path class="p" d="M423.084,99.49c.03-.115.119-.171.271-.018.1.1.2.317.034.41C423.142,100.024,423.035,99.678,423.084,99.49Z" transform="translate(-422.216 -98.297)"/><path class="q" d="M420.275,96.206a1.517,1.517,0,0,1,1.842-.118c.034.03.005.1-.042.082a2.673,2.673,0,0,0-.844-.191,1.762,1.762,0,0,0-.911.294c-.046.029-.084-.035-.045-.068Z" transform="translate(-420.259 -95.825)"/></g></g><path class="r" d="M411.036,76.912a1.935,1.935,0,0,0-1.712,2.663c.761,2.4,5.34.761,6.854.342.373.647.947,1.722,1.611,1.869A1.07,1.07,0,0,1,418.984,81c.6.068.632,2.155.089,2.367-.151.607,1.664.6,2.12-.308s1.7-7.215-2.485-8.356C418.4,74.326,413.306,73.032,411.036,76.912Z" transform="translate(-409.179 -74.192)"/><path class="s" d="M432.536,110.357a4.28,4.28,0,0,0,2.511-2.736" transform="translate(-425.428 -97.448)"/></g><path class="ac" d="M408.08,176.87s.966-18.519,1.976-29.476" transform="translate(-402.093 -125.118)"/><path class="ac" d="M472.989,151.854s2.491,15.8,3.17,20.464" transform="translate(-447.249 -128.22)"/><g transform="translate(13.118 23.629)"><path class="j" d="M438.786,152.259c-1.739-1.282-3.353.78-3.353.78s-1.763-1.937-3.4-.53.911,4.112,3.591,5.633C438.181,156.427,440.525,153.541,438.786,152.259Z" transform="translate(-431.514 -151.839)"/></g><path class="ac" d="M408.392,240.383a48.1,48.1,0,0,0,9.717,1.168c4.007-.127,6.264-.708,8.521-.658s5.483.433,5.483.433" transform="translate(-402.31 -189.809)"/><line class="ac" y2="1.278" transform="translate(8.215 50.938)"/><line class="ac" y2="1.366" transform="translate(10.068 51.175)"/><line class="ac" y2="1.218" transform="translate(11.97 51.55)"/><line class="ac" y2="1.218" transform="translate(14.024 51.692)"/><line class="ac" y2="1.218" transform="translate(16.167 51.793)"/><line class="ac" y2="1.437" transform="translate(18.563 51.574)"/><line class="ac" y2="1.437" transform="translate(20.972 51.331)"/><line class="ac" y2="1.437" transform="translate(23.141 51.074)"/><line class="ac" y2="1.236" transform="translate(25.41 51.175)"/><line class="ac" y2="1.236" transform="translate(27.693 51.275)"/></g></g><g transform="translate(24.845 4.19)"><path class="ad" d="M375.8,100.158c-.467-.413-.984.138-.984.138s-.456-.6-.964-.24.156,1.205.887,1.711C375.521,101.34,376.269,100.571,375.8,100.158Z" transform="translate(-370.316 -96.294)"/><path class="ad" d="M363.851,92.906c-.355-.152-.551.273-.551.273s-.386-.264-.613.047.327.678.855.832C363.917,93.656,364.206,93.058,363.851,92.906Z" transform="translate(-362.635 -91.378)"/><path class="ad" d="M386.841,88.476c-.215-.374-.676-.126-.676-.126s-.167-.5-.58-.369-.162.825.206,1.317C386.4,89.19,387.056,88.85,386.841,88.476Z" transform="translate(-378.453 -87.961)"/></g></g><g transform="translate(229.118 970.318)"><g transform="translate(0 0)"><path class="ae" d="M91.316,152.3c-6.565-.461-5.608-5.747-9.711-10.576a6.5,6.5,0,0,1,3.264-2.108,11.593,11.593,0,0,0-4.33,1.366,2.538,2.538,0,0,1-.533-1.389c2.423-2.118,8.733.959,10.9-2.987s10.222-2.628,10.5,2.493C111.506,144.368,96.708,152.682,91.316,152.3Z" transform="translate(-80.006 -111.531)"/><g transform="translate(25.415 55.22)"><path class="af" d="M197.632,340.045c-2.186-.916-2.626-1.913-3.751-2.608-.963-.6-1.271-.636-2.051-1.108a1.1,1.1,0,0,1-.114-1.78c.274-.285.119-.594.393-1.146l3.577.385c.333.828.946,4.629,2.082,5.323C198.852,339.774,198.5,340.41,197.632,340.045Z" transform="translate(-181.178 -302.244)"/><path class="ag" d="M160.381,235.864l-.815,10.306c2.273,1.623,4.01,3.5,13.049,1.877-3.275,8.2-2.118,18.975-2.118,18.975a7.718,7.718,0,0,0,3.577.385c.561-4.469,3.411-13.94,7.754-21.625a3.745,3.745,0,0,0-2.489-5.5C170.973,238.508,160.381,235.864,160.381,235.864Z" transform="translate(-159.566 -235.864)"/><path class="ah" d="M160.381,235.864l-.815,10.306c2.273,1.623,4.01,3.5,13.049,1.877-3.275,8.2-2.118,18.975-2.118,18.975a7.718,7.718,0,0,0,3.577.385c.561-4.469,3.411-13.94,7.754-21.625a3.745,3.745,0,0,0-2.489-5.5C170.973,238.508,160.381,235.864,160.381,235.864Z" transform="translate(-159.566 -235.864)"/><path class="ae" d="M197.287,329.651a6.55,6.55,0,0,0-.094,1.12.267.267,0,0,1-.285.247,15.756,15.756,0,0,1-3.771-.579.227.227,0,0,1-.183-.214l.009-1.056a.278.278,0,0,1,.33-.236l3.769.468A.232.232,0,0,1,197.287,329.651Z" transform="translate(-182.288 -299.2)"/></g><path class="ai" d="M160.211,255.962l-.352.144-.3,3.742c1.766,1.259,3.208,2.677,8,2.483A36.11,36.11,0,0,1,160.211,255.962Z" transform="translate(-134.149 -194.321)"/><g transform="translate(22.75 38.823)"><path class="aj" d="M159.106,188.7l2.194.407c.74.137,1.483.259,2.224.386,1.484.244,2.968.459,4.445.619l-.426.029c.616-.089,1.239-.168,1.862-.27s1.253-.195,1.881-.306l1.9-.318c.632-.1,1.276-.218,1.9-.309l.026,0a.982.982,0,0,1,.611,1.834c-.6.329-1.2.608-1.812.881s-1.228.519-1.853.757-1.257.457-1.9.654-1.291.387-1.95.55a1.081,1.081,0,0,1-.267.032l-.159,0c-.806-.012-1.613-.03-2.411-.09s-1.6-.123-2.386-.219-1.579-.206-2.364-.336-1.553-.279-2.366-.475a1.956,1.956,0,0,1,.809-3.826Z" transform="translate(-154.988 -187.34)"/><path class="ak" d="M151.289,184.793c2.245-.517,3.816-.074,7.491,1.462,1.168,2.115-.175,5.411-.175,5.411S150.39,189.655,151.289,184.793Z" transform="translate(-151.221 -184.57)"/><path class="al" d="M214.5,184.659l-.947-.117a1.11,1.11,0,0,0-.954.351l-1.134,1.236a2.071,2.071,0,0,0-.5,1.833l.087.406a7.049,7.049,0,0,0,3.464-.519l.569-.174a.924.924,0,0,0,.644-1.145l-.33-1.132A1.065,1.065,0,0,0,214.5,184.659Z" transform="translate(-191.851 -184.534)"/></g><g transform="translate(59.275 24.993)"><path class="am" d="M295.736,170.217l0,0c-.967-.715-1.959-1.392-2.948-2.067s-1.989-1.328-2.985-1.982-1.995-1.3-2.991-1.929l-1.472-.954c-.347-.231-.69-.454-1.009-.671a10.13,10.13,0,0,1-.641-.949c-.261-.438-.539-.913-.8-1.414s-.52-1.013-.769-1.54-.507-1.055-.752-1.594c-.487-1.079-.977-2.171-1.45-3.273l-1.414-3.289-.016-.037a3.166,3.166,0,0,0-5.873,2.361c.456,1.228.94,2.371,1.459,3.538s1.063,2.31,1.659,3.45q.442.856.917,1.712t1.015,1.705c.358.569.729,1.145,1.168,1.724a13.067,13.067,0,0,0,1.623,1.832l.134.124a1.623,1.623,0,0,0,.3.215c.6.338,1.154.637,1.708.906l1.652.8c1.094.522,2.2,1,3.3,1.487s2.219.936,3.341,1.377,2.246.87,3.4,1.256a1.587,1.587,0,0,0,1.449-2.781Z" transform="translate(-270.225 -146.253)"/><path class="am" d="M339.279,214.887l3.547-.074-1.107,4.108s-3.219-.323-3.324-2.061Z" transform="translate(-315.128 -191.31)"/><path class="am" d="M352.586,217.343l-.631,1.374a1.229,1.229,0,0,1-1.442.673l-1.713-.469,1.107-4.108,2.051.889A1.229,1.229,0,0,1,352.586,217.343Z" transform="translate(-322.21 -191.31)"/><path class="an" d="M265.56,145.057c.106,1.8-.05,3.608.653,5.474.661,1.755,2.742,5.358,4.739,6.846,3.985-.985,7.216-4.592,7.189-6.354-1.484-3.362-4.406-8.534-6.32-9.569C270.154,140.551,266.656,142.663,265.56,145.057Z" transform="translate(-265.56 -141.24)"/></g><g transform="translate(45.189 45.548)"><path class="am" d="M235.43,214.963l-9.086-.293c-1.093,7.225-.307,12.428,8.135,13.242,2.457.237,8.912.569,11.733,1.459-2.253,8.208-3.025,19.306-3.025,19.306l3.565-.506a206.333,206.333,0,0,1,8.027-19.128,6.324,6.324,0,0,0-3.361-8.64C243.51,217.3,235.43,214.963,235.43,214.963Z" transform="translate(-224.521 -211.768)"/><path class="ao" d="M233.837,208.664a48.923,48.923,0,0,1,10.171,3.635s-2.921,3.569-4.035,11.219c-2.11-.176-15.6-2.309-15.6-2.309-4.543-1.759-2.4-15.622-2.4-15.622Z" transform="translate(-221.463 -205.586)"/><path class="ap" d="M243.78,236.144l-3.345,6.352c3.3.517,8.361,1.294,11,1.646A27.9,27.9,0,0,1,243.78,236.144Z" transform="translate(-234.374 -226.382)"/><path class="af" d="M287.126,320.525s-4.676-1.706-4.982-4.088l-4.8.648-.485,4.63h1.15l.291-.575.617.575c6.241,0,7.289-.066,8.447-.452A.732.732,0,0,0,287.126,320.525Z" transform="translate(-259.163 -281.026)"/></g><g transform="translate(5.13 48.292)"><rect class="ae" width="30.421" height="2.794" rx="1.397" transform="translate(6.577 18.682)"/><path class="ae" d="M170.435,281.837a.523.523,0,0,1-.194-.037l-10.821-4.27a.528.528,0,0,1,.388-.981l10.82,4.27a.528.528,0,0,1-.194,1.018Z" transform="translate(-138.954 -256.597)"/><path class="ae" d="M191.177,370.943a.115.115,0,0,1-.028,0l-36.16-8.189a.125.125,0,0,1,.056-.244L191.2,370.7a.125.125,0,0,1-.027.247Z" transform="translate(-136.099 -315.119)"/><path class="ae" d="M157.543,347.14a.125.125,0,0,1,0-.25L193.2,346a.13.13,0,0,1,.128.122.125.125,0,0,1-.122.128l-35.657.892Z" transform="translate(-137.818 -303.887)"/><path class="ae" d="M269.057,344.479a.751.751,0,0,0,.676-.423l5.007-10.3a.751.751,0,0,0-1.351-.657l-5.007,10.3a.751.751,0,0,0,.675,1.079Z" transform="translate(-213.283 -294.823)"/><path class="ae" d="M279.066,334.182H282.9a.751.751,0,1,0,0-1.5h-3.839a.751.751,0,1,0,0,1.5Z" transform="translate(-220.095 -294.823)"/><path class="ae" d="M323.033,297.684a17.253,17.253,0,1,1-17.253,17.254,17.273,17.273,0,0,1,17.253-17.254m0-2a19.256,19.256,0,1,0,19.256,19.256,19.256,19.256,0,0,0-19.256-19.256Z" transform="translate(-237.423 -269.643)"/><g transform="translate(67.731 27.415)"><path class="ae" d="M363.788,335.75a.125.125,0,0,1-.125-.125V300.117a.125.125,0,0,1,.25,0v35.508A.125.125,0,0,1,363.788,335.75Z" transform="translate(-345.909 -299.992)"/><path class="ae" d="M343.72,355.818H308.212a.125.125,0,1,1,0-.25H343.72a.125.125,0,0,1,0,.25Z" transform="translate(-308.087 -337.814)"/><path class="ae" d="M349.6,341.627a.125.125,0,0,1-.089-.036L324.4,316.483a.125.125,0,1,1,.177-.177l25.108,25.108a.125.125,0,0,1-.088.214Z" transform="translate(-319.164 -311.069)"/><path class="ae" d="M324.489,341.627a.125.125,0,0,1-.089-.214l25.108-25.108a.125.125,0,0,1,.177.177l-25.108,25.108A.126.126,0,0,1,324.489,341.627Z" transform="translate(-319.164 -311.069)"/><path class="ae" d="M342.52,337.276a.127.127,0,0,1-.048-.009.125.125,0,0,1-.068-.164l13.588-32.8a.125.125,0,1,1,.231.1L342.636,337.2A.125.125,0,0,1,342.52,337.276Z" transform="translate(-331.435 -302.869)"/><path class="ae" d="M345.247,348.137a.121.121,0,0,1-.048-.009L312.394,334.54a.125.125,0,0,1,.1-.232L345.3,347.9a.125.125,0,0,1-.048.241Z" transform="translate(-310.966 -323.339)"/><path class="ae" d="M356.108,337.276a.125.125,0,0,1-.116-.077L342.4,304.394a.125.125,0,1,1,.231-.1L356.224,337.1a.125.125,0,0,1-.068.164A.127.127,0,0,1,356.108,337.276Z" transform="translate(-331.435 -302.87)"/><path class="ae" d="M312.442,348.138a.125.125,0,0,1-.048-.241L345.2,334.309a.125.125,0,0,1,.1.232L312.49,348.129A.119.119,0,0,1,312.442,348.138Z" transform="translate(-310.966 -323.34)"/></g><path class="ae" d="M115.32,297.684a17.253,17.253,0,1,1-17.253,17.254,17.273,17.273,0,0,1,17.253-17.254m0-2a19.256,19.256,0,1,0,19.256,19.256,19.256,19.256,0,0,0-19.256-19.256Z" transform="translate(-96.064 -269.643)"/><path class="ae" d="M144.43,339.037a5.01,5.01,0,1,1-5.01,5.01,5.016,5.016,0,0,1,5.01-5.01m0-.582a5.592,5.592,0,1,0,5.592,5.592,5.592,5.592,0,0,0-5.592-5.592Z" transform="translate(-125.174 -298.753)"/><path class="ae" d="M150.023,352.606a2.967,2.967,0,1,1,2.967-2.967A2.97,2.97,0,0,1,150.023,352.606Zm0-4.432a1.465,1.465,0,1,0,1.465,1.465A1.467,1.467,0,0,0,150.023,348.175Z" transform="translate(-130.767 -304.346)"/><path class="ae" d="M255.544,345.8a6.356,6.356,0,1,1-6.356,6.356,6.364,6.364,0,0,1,6.356-6.356m0-.738a7.094,7.094,0,1,0,7.094,7.094,7.094,7.094,0,0,0-7.094-7.094Z" transform="translate(-199.77 -303.248)"/><g transform="translate(1.377 27.415)"><path class="ae" d="M156.076,335.75a.125.125,0,0,1-.125-.125V300.117a.125.125,0,0,1,.25,0v35.508A.125.125,0,0,1,156.076,335.75Z" transform="translate(-138.197 -299.992)"/><path class="ae" d="M136.007,355.818H100.5a.125.125,0,1,1,0-.25h35.508a.125.125,0,1,1,0,.25Z" transform="translate(-100.374 -337.814)"/><path class="ae" d="M141.885,341.627a.126.126,0,0,1-.089-.036l-25.108-25.108a.125.125,0,1,1,.177-.177l25.108,25.108a.125.125,0,0,1-.088.214Z" transform="translate(-111.452 -311.069)"/><path class="ae" d="M116.777,341.627a.125.125,0,0,1-.088-.214L141.8,316.306a.125.125,0,0,1,.177.177l-25.108,25.108A.125.125,0,0,1,116.777,341.627Z" transform="translate(-111.452 -311.069)"/><path class="ae" d="M134.808,337.276a.125.125,0,0,1-.116-.173L148.28,304.3a.125.125,0,1,1,.231.1L134.923,337.2A.125.125,0,0,1,134.808,337.276Z" transform="translate(-123.723 -302.87)"/><path class="ae" d="M137.535,348.138a.122.122,0,0,1-.048-.009L104.682,334.54a.125.125,0,0,1,.1-.232L137.583,347.9a.125.125,0,0,1-.048.241Z" transform="translate(-103.253 -323.34)"/><path class="ae" d="M148.4,337.277a.125.125,0,0,1-.116-.077l-13.588-32.805a.125.125,0,1,1,.231-.1L148.512,337.1a.124.124,0,0,1-.116.173Z" transform="translate(-123.723 -302.87)"/><path class="ae" d="M104.73,348.138a.125.125,0,0,1-.048-.241l32.805-13.588a.125.125,0,0,1,.1.232l-32.805,13.588A.119.119,0,0,1,104.73,348.138Z" transform="translate(-103.253 -323.34)"/></g><path class="ae" d="M155.276,297.979a.5.5,0,0,1-.429-.759l16.19-26.95a.5.5,0,0,1,.858.516l-16.19,26.95A.5.5,0,0,1,155.276,297.979Z" transform="translate(-136.02 -252.185)"/><path class="aq" d="M344.489,268.348a1,1,0,0,1-.974-.773l-8.182-34.895a1,1,0,0,1-.005-.432l1.181-5.7a1,1,0,0,1,1.961.407l-1.136,5.483,8.132,34.679a1,1,0,0,1-.976,1.23Z" transform="translate(-258.88 -222.053)"/><path class="aq" d="M190.728,358.44a.967.967,0,0,1-.1,0l-36.518-3.612a1,1,0,1,1,.2-1.993l36.518,3.612a1,1,0,0,1-.1,2Z" transform="translate(-134.953 -308.533)"/><path class="aq" d="M216.83,288.417h-.043a1,1,0,0,1-.791-.446L191.732,251.49a1,1,0,0,1,1.668-1.109l23.5,35.336,22.625-28.44a1,1,0,1,1,1.567,1.247l-23.481,29.516A1,1,0,0,1,216.83,288.417Z" transform="translate(-161.056 -238.51)"/><path class="aq" d="M225.2,274.293q-.662,0-1.326-.029a29.61,29.61,0,0,1-19.692-8.683,1,1,0,0,1,1.417-1.415,27.524,27.524,0,0,0,37.371,1.657l4.617-3.871a1,1,0,1,1,1.286,1.535l-4.617,3.871A29.6,29.6,0,0,1,225.2,274.293Z" transform="translate(-169.444 -246.53)"/><g transform="translate(80.257)"><path class="ag" d="M380.622,246.143c-.27-1.334,2.562-2.98,4.61-2.991C383.165,244.391,382.432,246.407,380.622,246.143Z" transform="translate(-369.964 -233.895)"/><path class="ag" d="M372.047,243.557c.883-.686,0-3.229-1.268-4.334C371.4,241.1,370.778,242.751,372.047,243.557Z" transform="translate(-363.278 -231.221)"/><path class="ag" d="M350.777,246.269c.714-.884-1.489-2.106-3.48-2.2C348.892,244.986,348.924,246.37,350.777,246.269Z" transform="translate(-347.297 -234.519)"/><g transform="translate(8.972 1.337)"><path class="ag" d="M375.66,233.241l-.278-.1c1.14-3.037,4.313-6.82,6.529-7.782l.118.273C379.912,226.547,376.758,230.319,375.66,233.241Z" transform="translate(-375.382 -223.12)"/><g transform="translate(4.635)"><path class="ag" d="M390.568,219.743a1.332,1.332,0,0,1,.438-1.137c.636-.7.8.228.825,1.054.127-.715.489-1.417,1.347-1.028.6.272.267.794-.205,1.24.442-.137.861.01.942.918.086.967-.659.746-1.251.43a1.172,1.172,0,0,1-.132,1.858c-.658.6-.758-.265-.73-1.076-.183.673-.586,1.271-1.374.816-.692-.4-.028-1.031.591-1.46-.575.2-1.2.114-1.121-1.065C389.94,219.663,390.229,219.594,390.568,219.743Z" transform="translate(-389.891 -218.36)"/><path class="ap" d="M390.568,219.743a1.332,1.332,0,0,1,.438-1.137c.636-.7.8.228.825,1.054.127-.715.489-1.417,1.347-1.028.6.272.267.794-.205,1.24.442-.137.861.01.942.918.086.967-.659.746-1.251.43a1.172,1.172,0,0,1-.132,1.858c-.658.6-.758-.265-.73-1.076-.183.673-.586,1.271-1.374.816-.692-.4-.028-1.031.591-1.46-.575.2-1.2.114-1.121-1.065C389.94,219.663,390.229,219.594,390.568,219.743Z" transform="translate(-389.891 -218.36)"/><g transform="translate(1.595 1.956)"><path class="ag" d="M394.978,224.685a.526.526,0,0,0,.033.648.346.346,0,0,0,.533-.119.527.527,0,0,0-.032-.648A.347.347,0,0,0,394.978,224.685Z" transform="translate(-394.883 -224.483)"/><path class="ar" d="M394.978,224.685a.526.526,0,0,0,.033.648.346.346,0,0,0,.533-.119.527.527,0,0,0-.032-.648A.347.347,0,0,0,394.978,224.685Z" transform="translate(-394.883 -224.483)"/></g></g></g><g transform="translate(7.783)"><path class="ag" d="M373.394,232.884l-.278-.107c1.053-2.724,2.708-8.765,1.958-11.064l.282-.092C376.13,223.991,374.46,230.126,373.394,232.884Z" transform="translate(-372.651 -219.242)"/><path class="ag" d="M375.991,217.169a1.2,1.2,0,0,0,.7-1c.176-.935-.758-.568-1.509-.142.545-.5.915-1.2-.028-1.733-.66-.373-.89.2-.956.856-.187-.46-.609-.743-1.471-.318-.917.453-.2.981.491,1.323a1.164,1.164,0,0,0-1.554,1.13c-.077.9.763.515,1.463.047-.469.527-.719,1.2.235,1.641.837.383.933-.539.881-1.312.228.607.736,1.106,1.726.394C376.5,217.672,376.36,217.382,375.991,217.169Z" transform="translate(-371.661 -214.174)"/><path class="ar" d="M375.991,217.169a1.2,1.2,0,0,0,.7-1c.176-.935-.758-.568-1.509-.142.545-.5.915-1.2-.028-1.733-.66-.373-.89.2-.956.856-.187-.46-.609-.743-1.471-.318-.917.453-.2.981.491,1.323a1.164,1.164,0,0,0-1.554,1.13c-.077.9.763.515,1.463.047-.469.527-.719,1.2.235,1.641.837.383.933-.539.881-1.312.228.607.736,1.106,1.726.394C376.5,217.672,376.36,217.382,375.991,217.169Z" transform="translate(-371.661 -214.174)"/><g transform="translate(2.044 1.996)"><path class="ag" d="M378.953,220.964a.533.533,0,0,1-.6.326.381.381,0,0,1-.266-.529.533.533,0,0,1,.6-.326A.381.381,0,0,1,378.953,220.964Z" transform="translate(-378.059 -220.424)"/><path class="ap" d="M378.953,220.964a.533.533,0,0,1-.6.326.381.381,0,0,1-.266-.529.533.533,0,0,1,.6-.326A.381.381,0,0,1,378.953,220.964Z" transform="translate(-378.059 -220.424)"/></g></g></g><g transform="translate(80.8 4.809)"><path class="ag" d="M359.831,248.825c-.572-1.573-.48-5.6.3-4.6s-1.116,3.1.077,4.526C360,249.185,359.831,248.825,359.831,248.825Z" transform="translate(-356.12 -239.328)"/><path class="ag" d="M365.6,248.738c.286-1.317,2.081-4.022,2.178-3s-2.091,1.63-1.892,3.115C365.565,249.057,365.6,248.738,365.6,248.738Z" transform="translate(-360.298 -240.309)"/><g transform="translate(5.479 6.67)"><path class="ag" d="M366.172,251.428c.476-.665,2.127-1.74,1.936-1.15s-1.557.405-1.8,1.28C366.074,251.6,366.172,251.428,366.172,251.428Z" transform="translate(-366.151 -250.107)"/><path class="as" d="M366.172,251.428c.476-.665,2.127-1.74,1.936-1.15s-1.557.405-1.8,1.28C366.074,251.6,366.172,251.428,366.172,251.428Z" transform="translate(-366.151 -250.107)"/></g><path class="ag" d="M375.962,249.661c.226-1.329,1.9-4.112,2.038-3.1s-2.014,1.723-1.749,3.2C375.939,249.982,375.962,249.661,375.962,249.661Z" transform="translate(-367.349 -240.876)"/><g transform="translate(3.922 3.478)"><path class="ag" d="M362,249.653c1.166-4.008.621-6.238.621-6.238C363.349,244.358,362.927,247.85,362,249.653Z" transform="translate(-361.769 -242.36)"/><path class="ag" d="M362.165,242.227c-.489.054-.8-.712-.889-1.709a3.344,3.344,0,0,0,.447.3s.026-.488.062-.705c.129.113.334.394.524.533a1.749,1.749,0,0,0,.106-.493C362.861,240.6,363.3,241.94,362.165,242.227Z" transform="translate(-361.276 -240.113)"/><path class="as" d="M362.165,242.227c-.489.054-.8-.712-.889-1.709a3.344,3.344,0,0,0,.447.3s.026-.488.062-.705c.129.113.334.394.524.533a1.749,1.749,0,0,0,.106-.493C362.861,240.6,363.3,241.94,362.165,242.227Z" transform="translate(-361.276 -240.113)"/></g><g transform="translate(2.473 0.442)"><path class="ag" d="M358.87,241.91c-.953-4.731-.108-7.246-.108-7.246C357.834,235.68,357.979,239.743,358.87,241.91Z" transform="translate(-357.686 -233.369)"/><path class="ag" d="M357.682,233.087c.569,0,.834-.914.819-2.071a3.882,3.882,0,0,1-.478.4s-.088-.558-.156-.8c-.135.146-.337.493-.539.676a2.02,2.02,0,0,1-.181-.555C356.688,231.3,356.347,232.891,357.682,233.087Z" transform="translate(-356.74 -230.61)"/><path class="at" d="M357.682,233.087c.569,0,.834-.914.819-2.071a3.882,3.882,0,0,1-.478.4s-.088-.558-.156-.8c-.135.146-.337.493-.539.676a2.02,2.02,0,0,1-.181-.555C356.688,231.3,356.347,232.891,357.682,233.087Z" transform="translate(-356.74 -230.61)"/></g><g transform="translate(0 5.956)"><path class="ag" d="M351.829,250.421c-.6-1.175-2.987-3.282-2.821-2.294s2.392,1.015,2.58,2.472C351.946,250.713,351.829,250.421,351.829,250.421Z" transform="translate(-348.999 -247.871)"/><path class="at" d="M351.829,250.421c-.6-1.175-2.987-3.282-2.821-2.294s2.392,1.015,2.58,2.472C351.946,250.713,351.829,250.421,351.829,250.421Z" transform="translate(-348.999 -247.871)"/></g><path class="ag" d="M376.292,251.4c.51-.81,2.364-2.181,2.182-1.478s-1.791.582-2.018,1.622C376.19,251.6,376.292,251.4,376.292,251.4Z" transform="translate(-367.56 -243.176)"/><path class="ag" d="M372.8,247.319c.861-1.2,1.737-4.66.838-3.988s.216,2.9-1.139,3.838C372.573,247.585,372.8,247.319,372.8,247.319Z" transform="translate(-364.995 -238.767)"/><g transform="translate(0.001 3.478)"><path class="ag" d="M354.439,249.255c-.689-4.117-2.148-5.889-2.148-5.889C353.355,243.9,354.49,247.228,354.439,249.255Z" transform="translate(-351.241 -242.327)"/><path class="ag" d="M350.546,242.091c-.418.261-1.029-.294-1.543-1.154a3.338,3.338,0,0,0,.533.077s-.189-.451-.25-.663c.166.045.472.209.7.253a1.758,1.758,0,0,0-.118-.491C350.469,240.327,351.44,241.341,350.546,242.091Z" transform="translate(-349.003 -240.113)"/><path class="as" d="M350.546,242.091c-.418.261-1.029-.294-1.543-1.154a3.338,3.338,0,0,0,.533.077s-.189-.451-.25-.663c.166.045.472.209.7.253a1.758,1.758,0,0,0-.118-.491C350.469,240.327,351.44,241.341,350.546,242.091Z" transform="translate(-349.003 -240.113)"/></g><g transform="translate(1.182 1.089)"><path class="ag" d="M357.609,243.6c-2.1-4.347-1.9-6.993-1.9-6.993C355.061,237.819,356.209,241.719,357.609,243.6Z" transform="translate(-354.621 -235.337)"/><path class="ag" d="M353.95,235.082c.552-.138.582-1.093.279-2.21a3.864,3.864,0,0,1-.365.5s-.223-.519-.35-.74c-.1.175-.2.561-.354.788a2.017,2.017,0,0,1-.313-.492C352.545,233.6,352.608,235.224,353.95,235.082Z" transform="translate(-352.699 -232.637)"/><path class="at" d="M353.95,235.082c.552-.138.582-1.093.279-2.21a3.864,3.864,0,0,1-.365.5s-.223-.519-.35-.74c-.1.175-.2.561-.354.788a2.017,2.017,0,0,1-.313-.492C352.545,233.6,352.608,235.224,353.95,235.082Z" transform="translate(-352.699 -232.637)"/></g><g transform="translate(4.726 2.07)"><path class="ag" d="M363.792,245.218c1.714-3.807,1.485-6.09,1.485-6.09C365.865,240.163,364.96,243.562,363.792,245.218Z" transform="translate(-363.792 -238.035)"/><g transform="translate(0.723)"><path class="ag" d="M366.7,237.854c-.492-.015-.693-.817-.642-1.816a3.339,3.339,0,0,0,.4.36s.094-.48.16-.69c.112.13.276.436.444.6a1.742,1.742,0,0,0,.174-.474C367.62,236.345,367.865,237.728,366.7,237.854Z" transform="translate(-366.055 -235.708)"/><path class="at" d="M366.7,237.854c-.492-.015-.693-.817-.642-1.816a3.339,3.339,0,0,0,.4.36s.094-.48.16-.69c.112.13.276.436.444.6a1.742,1.742,0,0,0,.174-.474C367.62,236.345,367.865,237.728,366.7,237.854Z" transform="translate(-366.055 -235.708)"/></g></g><g transform="translate(6.822)"><path class="ag" d="M372.165,240.527c.953-4.731.108-7.246.108-7.246C373.2,234.3,373.056,238.36,372.165,240.527Z" transform="translate(-371.587 -231.986)"/><path class="ag" d="M371.175,231.7c-.569,0-.834-.914-.818-2.071a3.857,3.857,0,0,0,.478.4s.088-.558.156-.8c.135.145.337.493.539.676a2.023,2.023,0,0,0,.181-.555C372.169,229.921,372.51,231.508,371.175,231.7Z" transform="translate(-370.356 -229.227)"/><path class="as" d="M371.175,231.7c-.569,0-.834-.914-.818-2.071a3.857,3.857,0,0,0,.478.4s.088-.558.156-.8c.135.145.337.493.539.676a2.023,2.023,0,0,0,.181-.555C372.169,229.921,372.51,231.508,371.175,231.7Z" transform="translate(-370.356 -229.227)"/></g><g transform="translate(8.524 3.232)"><path class="ag" d="M375.684,248.485c.689-4.117,2.148-5.889,2.148-5.889C376.769,243.13,375.633,246.458,375.684,248.485Z" transform="translate(-375.683 -241.557)"/><g transform="translate(1.296)"><path class="ag" d="M380.1,241.321c.418.261,1.029-.294,1.543-1.154a3.319,3.319,0,0,1-.533.076s.188-.451.25-.663c-.166.046-.472.21-.7.253a1.75,1.75,0,0,1,.118-.491C380.177,239.557,379.206,240.571,380.1,241.321Z" transform="translate(-379.738 -239.343)"/><path class="as" d="M380.1,241.321c.418.261,1.029-.294,1.543-1.154a3.319,3.319,0,0,1-.533.076s.188-.451.25-.663c-.166.046-.472.21-.7.253a1.75,1.75,0,0,1,.118-.491C380.177,239.557,379.206,240.571,380.1,241.321Z" transform="translate(-379.738 -239.343)"/></g></g><g transform="translate(7.555 0.843)"><path class="ag" d="M372.65,242.828c2.1-4.347,1.9-6.993,1.9-6.993C375.2,237.049,374.05,240.949,372.65,242.828Z" transform="translate(-372.65 -234.567)"/><g transform="translate(1.266)"><path class="ag" d="M377.084,234.312c-.552-.138-.582-1.093-.28-2.21a3.851,3.851,0,0,0,.365.5s.223-.519.35-.74c.095.175.2.561.354.788a2.023,2.023,0,0,0,.313-.493C378.489,232.832,378.426,234.454,377.084,234.312Z" transform="translate(-376.613 -231.867)"/><path class="at" d="M377.084,234.312c-.552-.138-.582-1.093-.28-2.21a3.851,3.851,0,0,0,.365.5s.223-.519.35-.74c.095.175.2.561.354.788a2.023,2.023,0,0,0,.313-.493C378.489,232.832,378.426,234.454,377.084,234.312Z" transform="translate(-376.613 -231.867)"/></g></g></g><path class="ae" d="M358.382,255.734c-.337,2.264-3.007,4.285-6.381,4.634-4.253.439-7.571-1.756-7.164-4.5l.894-6.011c.014-.093.139-.169.278-.169H359.28Z" transform="translate(-265.343 -238.346)"/><path class="ae" d="M339.944,262.509a12.531,12.531,0,0,1-3.2-.871,6.5,6.5,0,0,0-.8,1.413,11.709,11.709,0,0,0,3.909,1.06Z" transform="translate(-259.312 -246.476)"/><path class="ae" d="M346.222,228.28a1,1,0,0,1-.281-.041l-4.193-1.224a1,1,0,1,1,.561-1.922l4.193,1.224a1,1,0,0,1-.28,1.963Z" transform="translate(-262.773 -221.578)"/><path class="au" d="M185.645,250.457l10.844,1.472a.856.856,0,0,0,.964-.733l.112-.827a.856.856,0,0,0-.676-.954l-10.744-2.2a.856.856,0,0,0-1.021.724l-.211,1.56A.856.856,0,0,0,185.645,250.457Z" transform="translate(-156.524 -236.645)"/><path class="ae" d="M263.6,358.4a1.81,1.81,0,1,0,1.81,1.81,1.811,1.811,0,0,0-1.81-1.81m0-1.5a3.311,3.311,0,1,1-3.311,3.311A3.312,3.312,0,0,1,263.6,356.9Z" transform="translate(-207.829 -311.307)"/><path class="ae" d="M253.384,376.715a.751.751,0,0,0,.676-.423l5.007-10.3a.751.751,0,0,0-1.351-.657l-5.006,10.3a.752.752,0,0,0,.675,1.08Z" transform="translate(-202.617 -316.761)"/><path class="ae" d="M247.033,398.654h3.839a.751.751,0,1,0,0-1.5h-3.839a.751.751,0,1,0,0,1.5Z" transform="translate(-198.295 -338.7)"/></g><g transform="translate(39.183 47.688)"><path class="am" d="M217,214.874l-9.787-.938c-3.938,6.155-3.029,12.134,2.807,17.709,2.88,2.751,6.4,5.654,10.3,9.294a2.822,2.822,0,0,1,.932,3.026c-3.186,7.391-2.186,25.8-2.186,25.8l3.475-.942a199.291,199.291,0,0,1,7.863-26.2c.718-1.849.564-4-1.24-6.53C223.085,227.592,217,214.874,217,214.874Z" transform="translate(-204.128 -213.408)"/><path class="ao" d="M205.039,212.284c-1,1.905-3.611,7.054-1.689,12.027s8.885,10.425,10.13,11.539c3.869-3.547,11.021-6.39,11.021-6.39s-5.129-8.822-5.657-13.747C214.037,213.867,205.039,212.284,205.039,212.284Z" transform="translate(-202.663 -212.284)"/><path class="af" d="M256.548,385.205s-4.676-1.706-4.982-4.087l-4.8.648-.485,4.63h1.15l.291-.575.617.575c6.241,0,7.289-.066,8.447-.452A.733.733,0,0,0,256.548,385.205Z" transform="translate(-232.348 -327.184)"/></g><path class="av" d="M218.471,130.85a59.469,59.469,0,0,1,11.072,3.014,5.8,5.8,0,0,1,3.4,7.123c-1.746,5.553-4.573,8.212-6.71,17.841-3.511,5.093-21.432-1.257-21.432-1.257-.214-2.213,3.573-7.674,4.756-11.431a49.671,49.671,0,0,0,2.217-10.1A5.789,5.789,0,0,1,218.471,130.85Z" transform="translate(-164.927 -109.121)"/><g transform="translate(52.756 6.228)"><path class="am" d="M255.193,111.391c-.162,2.62.03,5.673-1.156,7.341a6.46,6.46,0,0,0,4.57,3.343c2.723.645,2.625-.856,2.136-1.984-1.7-1.471-1.458-2.941-.763-3.693Z" transform="translate(-251.199 -102.161)"/><path class="ap" d="M260.477,110.66l3.684,5.242a2.005,2.005,0,0,0-.491,1.744,3.959,3.959,0,0,1-2.447-1.545,6.03,6.03,0,0,1-1.026-4.318C260.3,111.431,260.388,111.058,260.477,110.66Z" transform="translate(-255.378 -101.664)"/><path class="am" d="M256.8,95.539c-.233,3.178-.151,4.6,1.226,6.416a3.9,3.9,0,0,0,6.969-.833c1.063-2.747,1.266-7.482-1.658-9.128A4.391,4.391,0,0,0,256.8,95.539Z" transform="translate(-253.013 -88.567)"/><path class="p" d="M280.865,108.892l-.056,0a1.038,1.038,0,0,1-.726-.383,2.154,2.154,0,0,1-.429-1.567c.088-1.03.752-1.829,1.47-1.789a1.039,1.039,0,0,1,.726.384,2.154,2.154,0,0,1,.429,1.567h0C282.194,108.1,281.566,108.892,280.865,108.892Zm.2-3.638c-.647,0-1.228.745-1.308,1.694a2.047,2.047,0,0,0,.4,1.489.935.935,0,0,0,.652.347c.671.043,1.277-.719,1.36-1.693a2.049,2.049,0,0,0-.4-1.489.937.937,0,0,0-.652-.348Zm1.16,1.842h0Z" transform="translate(-268.625 -97.914)"/><path class="ae" d="M257.535,83.92c.63.821.571,1.114.571,1.114a8.212,8.212,0,0,0-4.631-1.641,3.344,3.344,0,0,0-2.755-.85s1.009.469,1.223.865c-1.421-.041-4.426-.131-4.263,1.134a3.98,3.98,0,0,0-2.032-.1,8.612,8.612,0,0,1,1.517.515c-1.695.523-1.334,3.051-.871,4.163.513,1.231-1.143.762-1.143.762s.519.868,1.315.734a3.7,3.7,0,0,0,2.92,2.079c1.495-.322,1.941-3.24,1.011-3.782,1.656.621,3.85-.58,5.417-1.968a7.849,7.849,0,0,1,1.749,1.845s1.554-.663,1.246-1.806C260.012,87.252,259.045,84.331,257.535,83.92Z" transform="translate(-245.152 -82.499)"/><path class="p" d="M260.631,108.516h0c-.037,0-3.719-.335-4.611-.232a.051.051,0,0,1-.059-.046.052.052,0,0,1,.046-.058,44.9,44.9,0,0,1,4.633.231.053.053,0,0,1,0,.105Z" transform="translate(-252.505 -99.961)"/><path class="p" d="M271.14,107.515l-.057,0a1.039,1.039,0,0,1-.726-.384,2.153,2.153,0,0,1-.429-1.567c.085-1,.713-1.791,1.414-1.791l.056,0a1.04,1.04,0,0,1,.726.383,2.153,2.153,0,0,1,.429,1.567h0C272.468,106.727,271.841,107.515,271.14,107.515Zm.2-3.638c-.647,0-1.228.746-1.308,1.694a2.046,2.046,0,0,0,.4,1.489.936.936,0,0,0,.652.348c.665.044,1.276-.719,1.359-1.693a2.049,2.049,0,0,0-.4-1.489.936.936,0,0,0-.652-.347Zm1.16,1.843h0Z" transform="translate(-262.007 -96.976)"/><path class="p" d="M278.571,108.969a.053.053,0,0,1-.049-.033c-.093-.225-.579-.06-.584-.058a.053.053,0,0,1-.035-.1c.025-.008.584-.2.717.117a.052.052,0,0,1-.029.069A.054.054,0,0,1,278.571,108.969Z" transform="translate(-267.417 -100.339)"/><path class="p" d="M271.094,117.61a23.142,23.142,0,0,0-3.491-1.322,2.271,2.271,0,0,0,1.861,1.918C270.806,118.626,271.094,117.61,271.094,117.61Z" transform="translate(-260.431 -105.494)"/><path class="am" d="M252.418,108.1a2.9,2.9,0,0,0,1.158,1.792c.769.517,1.089-.32,1.067-1.294-.019-.877-.148-2.1-1.013-2.218S252.225,107.178,252.418,108.1Z" transform="translate(-250.071 -98.745)"/><path class="ae" d="M271.934,106.8c-.037.269.075.505.252.528s.349-.177.387-.446-.075-.505-.252-.528S271.971,106.53,271.934,106.8Z" transform="translate(-263.373 -98.732)"/><path class="ae" d="M281.256,108.062c-.037.269.075.505.252.528s.349-.177.387-.446-.075-.506-.251-.528S281.293,107.793,281.256,108.062Z" transform="translate(-269.718 -99.591)"/><path class="am" d="M278.38,109.521a9.6,9.6,0,0,0,1.07,2.425,1.575,1.575,0,0,1-1.317.128Z" transform="translate(-267.597 -100.889)"/><path class="ae" d="M269.419,103.051a.157.157,0,0,1-.067-.044.159.159,0,0,1,.013-.225,1.6,1.6,0,0,1,1.4-.406.158.158,0,0,1,.113.195.162.162,0,0,1-.2.114h0a1.277,1.277,0,0,0-1.109.333A.161.161,0,0,1,269.419,103.051Z" transform="translate(-261.593 -96.005)"/><path class="ae" d="M284.085,103.8a.158.158,0,0,1-.141-.053,1.252,1.252,0,0,0-1.054-.458.158.158,0,0,1-.178-.136.161.161,0,0,1,.136-.18,1.57,1.57,0,0,1,1.337.564.161.161,0,0,1-.1.264Z" transform="translate(-270.713 -96.429)"/></g><g transform="translate(35.752)"><path class="am" d="M208.056,94.773l-.026-.018-2.946-2.035c-.987-.681-1.961-1.377-2.923-2.066q-.721-.519-1.414-1.052t-1.358-1.057c-.439-.353-.85-.719-1.228-1.061-.226-.205-.434-.415-.6-.6a6.825,6.825,0,0,1,.226-1.108,25.894,25.894,0,0,1,1-2.833c.393-.974.831-1.955,1.279-2.941l1.366-2.957.018-.037a1.587,1.587,0,0,0-2.588-1.76c-.818.855-1.541,1.722-2.26,2.632s-1.387,1.851-2.03,2.842a23.816,23.816,0,0,0-1.766,3.222,12.2,12.2,0,0,0-.69,2,6.665,6.665,0,0,0-.188,1.316,4.9,4.9,0,0,0,.276,1.879,2.184,2.184,0,0,0,.181.381l.066.108a13.08,13.08,0,0,0,1.476,1.952c.481.544.973,1.022,1.46,1.485s.978.9,1.471,1.331,1,.835,1.5,1.237c1,.809,2.024,1.565,3.055,2.306s2.066,1.438,3.18,2.128a3.166,3.166,0,0,0,3.466-5.3Z" transform="translate(-191.923 -71.006)"/><path class="am" d="M215.249,74.688l2.379-2.631L213.8,70.2s-1.865,2.644-.62,3.862Z" transform="translate(-206.097 -67.902)"/><path class="am" d="M219.7,63.476l-1.451-.424a1.229,1.229,0,0,0-1.453.649l-.768,1.6,3.829,1.855.671-2.132A1.229,1.229,0,0,0,219.7,63.476Z" transform="translate(-208.33 -63.003)"/><path class="an" d="M223.5,128.516a5.862,5.862,0,0,1-6.973,4.429q-.178-.042-.357-.095c-1.8-.53-5.217-1.427-6.541-3.681.689-4.047,1.982-9.269,3.741-9.371,3.462,1.233,7.4,3.438,9.55,3.795C224.01,123.775,224.044,126.184,223.5,128.516Z" transform="translate(-203.973 -101.656)"/></g><g transform="translate(16.615 54.825)"><path class="af" d="M200.113,382.921c-2.256.727-3.238.257-4.546.461-1.12.173-1.379.344-2.278.494-.751.125-.941-.27-.71-1.023.116-.378-.3-.529-.447-1.126l2.966-2.035c.791.412,3.195,2.644,4.509,2.432C200.864,381.921,201.012,382.631,200.113,382.921Z" transform="translate(-172.929 -333.35)"/><path class="ag" d="M141.843,234.626s1.476,11.329,3.527,19.43c2.154,8.508,5.8,22.346,8.817,26.911A7.719,7.719,0,0,1,151.22,283s-12.292-14.339-11.585-24.436c-8.619-13.794-8.093-17.47-7.056-20.759Z" transform="translate(-132.016 -234.626)"/><path class="ah" d="M141.843,234.626s1.476,11.329,3.527,19.43c2.154,8.508,5.8,22.346,8.817,26.911A7.719,7.719,0,0,1,151.22,283s-12.292-14.339-11.585-24.436c-8.619-13.794-8.093-17.47-7.056-20.759Z" transform="translate(-132.016 -234.626)"/><path class="ae" d="M192.593,375.894a6.528,6.528,0,0,0,.658.911.268.268,0,0,1-.056.373,15.741,15.741,0,0,1-3.241,2.015.227.227,0,0,1-.279-.043l-.681-.807a.278.278,0,0,1,.1-.394l3.167-2.1A.232.232,0,0,1,192.593,375.894Z" transform="translate(-170.76 -330.702)"/></g><path class="aw" d="M133.934,189.169a50.291,50.291,0,0,1,.417,5.769c.154,2.538,1.431,7.229.687,7.687-1.344,1.193-5.314,1.964-12.675,1.729A52.671,52.671,0,0,0,118,190.576a2.983,2.983,0,0,1,2-4.187c.5-.12,1.022-.234,1.565-.335a40.685,40.685,0,0,1,5.756-.785c.633-.029,1.292-.038,1.924-.037A4.815,4.815,0,0,1,133.934,189.169Z" transform="translate(-105.675 -146.186)"/><path class="ax" d="M129.367,224.416l-.817-.493a1.11,1.11,0,0,0-1.015-.068l-1.539.666a2.071,2.071,0,0,0-1.2,1.47l-.086.406a7.05,7.05,0,0,0,3.375.937l.591.073a.924.924,0,0,0,1.055-.784l.16-1.169A1.064,1.064,0,0,0,129.367,224.416Z" transform="translate(-110.427 -172.409)"/><path class="ax" d="M108.182,195.919c-.486.584-1.02,1.2-1.51,1.822s-.99,1.24-1.464,1.863-.921,1.255-1.324,1.878a9.469,9.469,0,0,0-.922,1.742l-.649-1.857a5.778,5.778,0,0,0,1.259.811,10.772,10.772,0,0,0,1.6.605,17.843,17.843,0,0,0,1.768.428c.6.119,1.246.21,1.826.289l.076.01a.977.977,0,0,1,.08,1.921,13.315,13.315,0,0,1-2.128.285,14.46,14.46,0,0,1-2.159-.04,11.438,11.438,0,0,1-2.217-.435,8.213,8.213,0,0,1-2.219-1.05,1.66,1.66,0,0,1-.674-1.757l.025-.1a11,11,0,0,1,1.122-2.744,25.009,25.009,0,0,1,1.4-2.249c.488-.716,1-1.4,1.534-2.069s1.065-1.312,1.67-1.963a1.956,1.956,0,0,1,2.939,2.58Z" transform="translate(-93.254 -151.259)"/><path class="ak" d="M116.722,187.768c-2.1-.118-3.312.468-5.845,4.208.982,2.466,4.395,4.829,4.395,4.829S118.637,191.29,116.722,187.768Z" transform="translate(-101.015 -147.903)"/><path class="ax" d="M128.264,167.345c.754,1.783,1.831,5.093.8,6.493,0,0,1.718-.5,5.756,1.293.868-1.694,0-2.077,0-2.077-2.169-.207-2.439-1.73-2.382-3.2Z" transform="translate(-112.848 -134.013)"/><path class="p" d="M133.988,187.174c-1.2.342-1.334,2.247-1.334,2.247s-3.522-1.512-4.364-3.025a12.253,12.253,0,0,0,.983-.83S133.175,186.564,133.988,187.174Z" transform="translate(-112.865 -146.414)"/><path class="p" d="M147.867,186.183a2.3,2.3,0,0,1,1.676,1.366c-.088-2.739-1.4-2.813-1.4-2.813a1.585,1.585,0,0,0-1.131-.009A1.326,1.326,0,0,1,147.867,186.183Z" transform="translate(-125.606 -145.779)"/><path class="ap" d="M133.573,170.544l2.467,1.481a5.833,5.833,0,0,0,.038,1.035,2.843,2.843,0,0,1-2.337-1.521A2.785,2.785,0,0,1,133.573,170.544Z" transform="translate(-116.457 -136.19)"/><path class="ax" d="M118.332,148.082c1.48,2.691,2.048,3.858,4.135,4.7,3.14,1.262,6.163-.942,5.527-3.972-.572-2.727-2.9-6.669-6.161-6.647A3.934,3.934,0,0,0,118.332,148.082Z" transform="translate(-105.729 -116.873)"/><path class="ae" d="M119.845,141.517c2.012,1.09-5.287,3.32-5.287,3.32,1.016.645,2.98,6.185-3,4.924C112.057,142.521,113.535,140.337,119.845,141.517Z" transform="translate(-101.479 -116.23)"/><path class="p" d="M137.336,163.388a21.823,21.823,0,0,0-3.511.139,2.138,2.138,0,0,0,2.318.977C137.46,164.374,137.336,163.388,137.336,163.388Z" transform="translate(-116.633 -131.307)"/><path class="ae" d="M133.194,156.721c.114.231.33.368.481.305s.182-.3.067-.532-.33-.368-.482-.306S133.08,156.49,133.194,156.721Z" transform="translate(-116.156 -126.41)"/><path class="ae" d="M142.185,153.173c.114.231.33.368.482.305s.182-.3.067-.532-.33-.368-.481-.306S142.071,152.942,142.185,153.173Z" transform="translate(-122.275 -123.996)"/><path class="ae" d="M142.354,151.97l.478-.389S142.761,152.132,142.354,151.97Z" transform="translate(-122.437 -123.285)"/><path class="ay" d="M141.777,155.943a7.574,7.574,0,0,0,1.488,1.224c-.189.4-.778.45-.778.45Z" transform="translate(-122.044 -126.253)"/><path class="ax" d="M118.249,165.033a2.11,2.11,0,0,0,1.641.466c.714-.133.645-.991.089-1.617-.5-.564-1.475-1.174-2.02-.722S117.626,164.545,118.249,165.033Z" transform="translate(-105.624 -131.058)"/><path class="ae" d="M129.528,152.583a.137.137,0,0,0,.072-.089,1.1,1.1,0,0,1,.694-.783.138.138,0,0,0,.093-.181.164.164,0,0,0-.2-.1,1.377,1.377,0,0,0-.889.98.153.153,0,0,0,.114.18A.159.159,0,0,0,129.528,152.583Z" transform="translate(-113.552 -123.179)"/><path class="ae" d="M141.517,148.2a.138.138,0,0,0,.087-.064.149.149,0,0,0-.062-.2,1.576,1.576,0,0,0-1.392-.135.137.137,0,0,0-.061.194.163.163,0,0,0,.206.071,1.259,1.259,0,0,1,1.1.118A.16.16,0,0,0,141.517,148.2Z" transform="translate(-120.883 -120.644)"/><path class="ae" d="M133.363,155.518l.478-.389S133.77,155.68,133.363,155.518Z" transform="translate(-116.318 -125.699)"/></g></g></g></svg>